<svg width="188" height="140" viewBox="0 0 188 140" fill="none" xmlns="http://www.w3.org/2000/svg">
<g filter="url(#filter0_d_66_1560)">
    <defs>
        <filter id="filter0_d_66_1560" x="0" y="0" width="188" height="139.152" filterUnits="userSpaceOnUse" color-interpolation-filters="sRGB">
            <feFlood flood-opacity="0" result="BackgroundImageFix"/>
            <feColorMatrix in="SourceAlpha" type="matrix" values="0 0 0 0 0 0 0 0 0 0 0 0 0 0 0 0 0 0 127 0" result="hardAlpha"/>
            <feOffset dx="4" dy="4"/>
            <feGaussianBlur stdDeviation="5"/>
            <feComposite in2="hardAlpha" operator="out"/>
            <feColorMatrix type="matrix" values="0 0 0 0 0 0 0 0 0 0 0 0 0 0 0 0 0 0 0.5 0"/>
            <feBlend mode="normal" in2="BackgroundImageFix" result="effect1_dropShadow_66_1560"/>
            <feBlend mode="normal" in="SourceGraphic" in2="effect1_dropShadow_66_1560" result="shape"/>
        </filter>
        <linearGradient id="paint0_linear_66_1560" x1="31.2692" y1="81.0905" x2="46.6234" y2="91.3171" gradientUnits="userSpaceOnUse">
            <stop stop-color="#373B42"/>
            <stop offset="0.37" stop-color="#222529"/>
            <stop offset="0.73" stop-color="#222529"/>
            <stop offset="1" stop-color="#373B42"/>
        </linearGradient>
        <linearGradient id="paint1_linear_66_1560" x1="28.5804" y1="74.7579" x2="39.0117" y2="53.9806" gradientUnits="userSpaceOnUse">
            <stop stop-color="#373B42"/>
            <stop offset="1" stop-color="#4C535C"/>
        </linearGradient>
        <linearGradient id="paint2_linear_66_1560" x1="11.2366" y1="70.4944" x2="20.6617" y2="62.7975" gradientUnits="userSpaceOnUse">
            <stop stop-color="#373B42"/>
            <stop offset="1" stop-color="#222529"/>
        </linearGradient>
        <linearGradient id="paint3_linear_66_1560" x1="170.736" y1="63.997" x2="86.8194" y2="120.9" gradientUnits="userSpaceOnUse">
            <stop stop-color="#D6DCE3"/>
            <stop offset="1" stop-color="#C2C8CF"/>
        </linearGradient>
        <linearGradient id="paint4_linear_66_1560" x1="88.7067" y1="73.405" x2="161.646" y2="73.405" gradientUnits="userSpaceOnUse">
            <stop stop-color="white" stop-opacity="0.5"/>
            <stop offset="1" stop-color="white" stop-opacity="0"/>
        </linearGradient>
        <linearGradient id="paint5_linear_66_1560" x1="110.479" y1="38.3648" x2="138.14" y2="93.1816" gradientUnits="userSpaceOnUse">
            <stop stop-color="#C2C8CF"/>
            <stop offset="1" stop-color="#ABB5C2"/>
        </linearGradient>
        <linearGradient id="paint6_linear_66_1560" x1="122.689" y1="95.3079" x2="129.301" y2="101.516" gradientUnits="userSpaceOnUse">
            <stop stop-color="#899CA8"/>
            <stop offset="1" stop-color="#6A7E8A"/>
        </linearGradient>
        <linearGradient id="paint7_linear_66_1560" x1="122.07" y1="95.9675" x2="128.687" y2="102.169" gradientUnits="userSpaceOnUse">
            <stop stop-color="#899CA8"/>
            <stop offset="1" stop-color="#6A7E8A"/>
        </linearGradient>
        <linearGradient id="paint8_linear_66_1560" x1="121.95" y1="36.3298" x2="129.085" y2="90.6237" gradientUnits="userSpaceOnUse">
            <stop stop-color="white" stop-opacity="0.5"/>
            <stop offset="1" stop-color="white" stop-opacity="0"/>
        </linearGradient>
    </defs>
<path d="M21.81 43.4809L95.3577 9.30493C94.2151 9.8336 93.2771 10.9023 92.6234 12.4826C89.5935 19.8556 92.1289 32.4641 96.3241 40.3885C97.7282 43.0318 100.48 47.3351 104.106 48.6482C104.572 48.8188 105.056 48.9381 105.545 49.0007C105.789 49.0291 106.016 49.0007 106.215 48.904C81.6976 60.296 57.1854 71.688 32.6677 83.0743C32.463 83.171 32.2413 83.1994 31.9969 83.171C31.5023 83.1084 31.0248 82.9891 30.553 82.8185C26.9319 81.5054 24.1748 77.2021 22.7707 74.5588C18.5698 66.6287 16.0401 54.0259 19.07 46.6472C19.7238 45.0669 20.6617 43.9982 21.8043 43.4695L21.81 43.4809Z" fill="#373B42"/>
<path d="M24.857 52.5707L98.4104 18.4004C98.3137 18.4459 98.2228 18.5027 98.1261 18.5766C97.3303 19.1962 96.9323 20.1854 96.921 21.6065C96.8641 27.5697 103.288 38.126 103.35 38.2341L29.8026 72.41C29.7401 72.302 23.3221 61.7457 23.3733 55.7825C23.3847 54.3613 23.7826 53.3722 24.5784 52.7526C24.6751 52.6787 24.766 52.6218 24.8627 52.5764L24.857 52.5707Z" fill="#222529"/>
<path d="M23.5609 49.7854L97.1086 15.6151C97.7282 15.3309 98.399 15.3138 99.0982 15.5696C99.7348 15.8027 100.394 16.2518 101.054 16.9226C106.119 22.0615 110.558 39.2972 109.751 47.1022C109.456 49.9787 108.54 51.235 107.534 51.7011C83.0164 63.0931 58.5043 74.4851 33.9865 85.8714C34.9926 85.4053 35.9022 84.1433 36.1978 81.2669C37.005 73.4619 32.5653 56.2261 27.5003 51.0872C26.8409 50.4164 26.1815 49.9616 25.5448 49.7342C24.8456 49.4784 24.1748 49.4955 23.5552 49.7797L23.5609 49.7854Z" fill="#2B2E33"/>
<path d="M114.6 41.3095C114.867 24.7218 108.364 12.4998 101.895 7.98625C100.94 7.31546 100.002 6.8209 99.0925 6.49119C97.245 5.82041 95.5282 5.84314 94.0673 6.51961L20.5139 40.6899C21.9749 40.0134 23.6973 39.9907 25.5391 40.6615C26.4487 40.9912 27.3866 41.4858 28.3416 42.1565C34.6118 46.5337 40.9274 58.1701 41.0525 73.9961C41.0411 75.7697 41.4902 77.7537 43.2922 76.9123L112.429 44.7942C113.514 44.203 114.515 42.7648 114.589 41.3152L114.6 41.3095Z" fill="#40444D"/>
<path d="M41.0582 73.9961C41.0468 75.7698 41.4959 77.7537 43.2979 76.9124L112.434 44.7942C113.52 44.203 114.521 42.7648 114.594 41.3152C114.657 37.4838 114.356 33.8911 113.776 30.5713L40.2339 64.7359C40.7341 67.6237 41.0297 70.7218 41.0582 73.9961Z" fill="#F0F0F0"/>
<path d="M42.6839 77.0999C41.3992 76.4576 41.223 75.2979 41.2116 73.9961C41.0809 58.1701 34.7653 46.5394 28.4951 42.1565C27.5401 41.4857 26.6021 40.9912 25.6926 40.6615C24.7433 40.3204 23.828 40.1555 22.9697 40.1726C23.7883 40.1726 24.6523 40.3374 25.5448 40.6615C26.4543 40.9912 27.3923 41.4857 28.3473 42.1565C34.6175 46.5337 40.9331 58.1701 41.0581 73.9961C41.0525 75.1785 41.2514 76.4462 41.9165 76.918L42.6612 77.1056C42.6612 77.1056 42.6726 77.1056 42.6839 77.1056V77.0999Z" fill="#757B8C"/>
<path d="M41.0638 73.9962C40.9331 58.1702 34.6175 46.5394 28.3473 42.1566C27.3923 41.4858 26.4543 40.9912 25.5448 40.6615C21.8384 39.3143 18.6437 40.7525 17.0065 44.726C13.9311 52.207 15.6649 65.5033 21.0369 75.639C23.8337 80.9143 27.1706 84.3763 30.6041 85.6212C31.2351 85.8486 31.8604 86.0021 32.4914 86.0817C33.941 86.2579 35.7544 85.5644 36.1978 81.2668C37.005 73.4618 32.5653 56.226 27.5003 51.0871C26.8409 50.4163 26.1815 49.9616 25.5448 49.7342C24.6353 49.4045 23.7712 49.5295 23.0151 50.115C21.7759 51.0814 21.1335 52.6788 21.1165 54.8503C21.071 60.0802 24.7489 67.5384 26.8295 71.3358C27.4207 72.3874 28.4724 72.4272 29.8026 72.4101C29.7401 72.3021 23.3221 61.7458 23.3733 55.7826C23.3846 54.3615 23.7826 53.3723 24.5784 52.7527C24.9195 52.4855 25.2549 52.4173 25.6187 52.5481C25.8859 52.6447 26.1758 52.855 26.4884 53.1791C30.3028 57.0503 34.7027 72.8763 33.958 80.0503C33.725 82.2616 33.0712 83.3133 31.9968 83.1825C31.5023 83.12 31.0248 83.0006 30.553 82.8301C26.9318 81.5169 24.1748 77.2137 22.7707 74.5703C18.5698 66.6403 16.0401 54.0374 19.07 46.6588C20.349 43.5493 22.7536 42.4294 25.6016 43.464C26.3122 43.7198 27.0512 44.1121 27.8073 44.6408C33.31 48.4836 38.8355 59.057 38.8013 73.6892C38.8013 74.7408 39.5972 76.4008 40.5408 76.6054L42.5418 77.1056C41.2457 76.4633 41.0638 75.2979 41.0581 73.9905L41.0638 73.9962Z" fill="#555A66"/>
<path d="M48.488 92.5848C38.6592 92.5848 31.5194 89.3105 27.6254 82.9494L31.5648 80.5391C36.357 88.3725 47.1634 88.6227 55.3834 87.4459C66.9118 85.7974 76.2005 77.9753 85.1879 70.4091C97.5065 60.0347 110.24 49.3135 127.197 58.2611L125.043 62.3426C110.837 54.8389 100.326 63.6899 88.161 73.9393C78.679 81.9205 68.873 90.1802 56.0371 92.0164C53.3711 92.3973 50.8528 92.5848 48.488 92.5848Z" fill="#373B42"/>
<path d="M31.5648 80.5391L27.6254 82.9493C31.5194 89.3161 38.6592 92.5848 48.488 92.5848C48.5164 92.5848 48.5391 92.5848 48.5675 92.5848L50.9721 87.895C43.639 88.3156 35.5384 87.0366 31.5648 80.5447V80.5391Z" fill="url(#paint0_linear_66_1560)"/>
<path d="M50.7618 66.663C48.9768 56.5614 42.0416 52.3548 36.357 52.7129C30.7462 53.071 24.874 57.8404 24.4079 67.6862C24.118 73.8426 25.198 78.9759 27.6311 82.9437L31.5705 80.5334C29.6321 77.3671 28.7737 73.115 29.0238 67.9022C29.3762 60.4269 33.3555 57.5278 36.6583 57.3174C40.4897 57.0787 44.9237 60.1143 46.2198 67.4645C48.0673 77.9015 40.5636 83.2678 35.9249 85.5359C27.7277 89.5436 17.2225 89.3901 13.4479 85.2119C9.62217 80.9712 10.5033 76.4462 11.373 74.1212C13.249 69.0903 18.1036 65.2475 23.5154 64.4516C22.9185 63.0077 22.3785 61.507 21.9578 60.029C15.2841 61.3422 9.39479 66.2196 7.04704 72.5068C4.94941 78.1289 6.03517 83.8874 10.0201 88.3043C12.8567 91.4479 17.8876 93.0567 23.5268 93.0567C28.2109 93.0567 33.3214 91.9482 37.9487 89.6857C47.8285 84.8538 52.4956 76.4689 50.7618 66.663Z" fill="url(#paint1_linear_66_1560)"/>
<path d="M10.941 75.4969C11.0661 74.9853 11.2139 74.5192 11.3617 74.1212C13.2376 69.0903 18.0923 65.2475 23.504 64.4517C22.9072 63.0078 22.3671 61.5071 21.9464 60.0291C15.6934 61.2569 10.1338 65.617 7.52455 71.3301L10.941 75.4969Z" fill="url(#paint2_linear_66_1560)"/>
<path d="M172.947 61.6663C173.516 60.7113 174.113 58.7672 173.982 57.1527C173.413 50.4449 172.947 45.4594 172.913 45.0615L132.854 113.885C132.768 114.022 132.677 114.152 132.586 114.283C130.904 116.563 127.658 117.916 124.742 117.58L70.1805 104.187L63.8137 100.651L65.701 108.815C65.9398 109.781 66.3832 110.338 66.9289 110.469L79.3839 113.516C94.5164 117.228 109.649 120.946 124.787 124.658V124.68C128.573 125.59 134.712 125.374 137.464 122.105L138.538 120.809L172.959 61.6777V61.6549L172.947 61.6663Z" fill="url(#paint3_linear_66_1560)"/>
<path d="M173.055 46.676C172.97 45.7494 172.919 45.1866 172.907 45.0615L132.848 113.885C132.763 114.022 132.672 114.152 132.581 114.283C130.898 116.563 127.652 117.916 124.736 117.58L70.1748 104.187L63.9161 100.714C64.2571 102.249 65.5191 103.499 67.5031 103.988L124.037 117.865C127.362 118.683 131.432 117.04 133.126 114.198L172.39 48.3927C172.731 47.8186 172.947 47.2387 173.05 46.6703L173.055 46.676Z" fill="white"/>
<path d="M124.781 124.351V124.334C109.643 120.616 94.5107 116.904 79.3782 113.186L66.9232 110.139C66.5765 110.054 66.1728 109.77 65.8545 109.332C66.1103 109.986 66.4798 110.372 66.9232 110.48L79.3782 113.527C94.5107 117.239 109.643 120.957 124.781 124.669V124.692C128.414 125.562 134.206 125.391 137.094 122.492C134.059 125.073 128.266 125.186 124.781 124.345V124.351Z" fill="#ABB5C2"/>
<path d="M172.947 61.6663L138.532 120.821L170.446 82.8984C172.231 80.3403 174.101 76.7192 173.743 71.802L172.947 61.6606V61.6663Z" fill="#C2C8CF"/>
<path d="M173.163 64.4233L172.947 61.6663L138.532 120.82L144.427 113.811L173.163 64.4233Z" fill="#ABB5C2"/>
<path d="M169.235 41.3437L112.702 27.4675C109.376 26.6489 105.306 28.2918 103.612 31.1284L64.3481 96.9336C62.6541 99.7759 63.9729 102.738 67.2984 103.556L123.832 117.432C127.158 118.251 131.228 116.608 132.922 113.766L172.185 47.9606C173.879 45.1183 172.561 42.1566 169.229 41.3437" fill="#F0F0F0"/>
<path style="mix-blend-mode:overlay" d="M123.838 117.432L112.855 114.738L88.7067 56.1124L100.042 37.1143L132.08 114.88C130.102 117.012 126.697 118.132 123.838 117.432ZM149.663 36.5402L119.631 29.1672L145.678 92.3973L161.646 65.6341L149.663 36.5402Z" fill="url(#paint4_linear_66_1560)"/>
<path d="M163.34 51.5475L106.807 37.6714C105.84 37.4326 104.652 37.9101 104.163 38.7401L82.7435 74.6442C82.2547 75.4684 82.6412 76.3325 83.6019 76.5713L140.136 90.4474C141.102 90.6862 142.29 90.2087 142.779 89.3844L164.199 53.4803C164.693 52.656 164.307 51.792 163.34 51.5532V51.5475Z" fill="white"/>
<path d="M163.238 51.394L106.704 37.5178C105.738 37.279 104.55 37.7565 104.061 38.5865L82.6412 74.4906C82.1523 75.3149 82.5389 76.1789 83.4996 76.4177L140.033 90.2938C141 90.5326 142.188 90.0551 142.677 89.2308L164.096 53.3267C164.591 52.5025 164.199 51.6384 163.238 51.3996V51.394Z" fill="url(#paint5_linear_66_1560)"/>
<g style="mix-blend-mode:multiply">
<path d="M82.8402 74.8715L104.26 38.9674C104.754 38.1432 105.943 37.6657 106.903 37.8987L163.437 51.7749C163.789 51.8602 164.056 52.0307 164.244 52.2524C164.113 51.8488 163.767 51.5248 163.232 51.3883L106.699 37.5122C105.732 37.2734 104.544 37.7509 104.055 38.5809L82.6355 74.485C82.3229 75.008 82.3684 75.548 82.6867 75.9346C82.5844 75.6105 82.6185 75.241 82.8402 74.8715Z" fill="#ABB5C2"/>
</g>
<path d="M145.724 49.5808L126.481 44.8569C125.515 44.6181 124.327 45.0957 123.838 45.9256L105.073 77.373C104.578 78.1972 104.97 79.0613 105.931 79.3001L125.179 84.024C126.146 84.2627 127.334 83.7852 127.823 82.9553L146.588 51.5079C147.082 50.6836 146.69 49.8196 145.729 49.5808H145.724Z" fill="white"/>
<path d="M145.678 49.5239L126.43 44.8C125.463 44.5613 124.275 45.0388 123.787 45.8687L105.022 77.3161C104.527 78.1404 104.914 79.0044 105.88 79.2432L125.128 83.9671C126.094 84.2058 127.277 83.7283 127.771 82.9041L146.536 51.4567C147.031 50.6324 146.644 49.7684 145.678 49.5296V49.5239Z" fill="#F0F0F0"/>
<path d="M97.6373 67.1235L95.2668 66.5437L94.1185 68.4651L96.489 69.0506L97.6373 67.1235Z" fill="#168A58"/>
<path d="M99.8145 63.4796L97.444 62.894L96.2957 64.8211L98.6662 65.401L99.8145 63.4796Z" fill="#28A82D"/>
<path d="M101.992 59.8358L99.6155 59.2502L98.4672 61.1773L100.843 61.7572L101.992 59.8358Z" fill="#FFE342"/>
<path d="M104.169 56.1863L101.793 55.6008L100.644 57.5279L103.021 58.1077L104.169 56.1863Z" fill="#FFAA42"/>
<path d="M106.34 52.5369L103.97 51.957L102.822 53.8784L105.192 54.464L106.34 52.5369Z" fill="#FF571F"/>
<path d="M108.518 48.8929L106.147 48.3074L104.999 50.2345L107.369 50.8143L108.518 48.8929Z" fill="#FF1231"/>
<path d="M148.321 57.4313C148.634 57.5109 148.918 57.5109 149.163 57.4313C149.413 57.3517 149.595 57.2096 149.72 57.005C149.799 56.8742 149.828 56.7548 149.799 56.6412C149.777 56.5331 149.72 56.4308 149.635 56.3342C149.549 56.2432 149.418 56.1295 149.254 56.0102C149.089 55.8908 148.969 55.7998 148.896 55.7316C148.822 55.6691 148.776 55.6009 148.759 55.527C148.736 55.4588 148.759 55.3735 148.81 55.2882C148.89 55.1518 149.004 55.0665 149.157 55.021C149.305 54.9756 149.481 54.9812 149.686 55.0324C149.913 55.0893 150.067 55.1745 150.146 55.2996C150.226 55.419 150.22 55.5497 150.135 55.6918L150.095 55.76L150.118 55.8055L150.334 55.8567L150.396 55.8283L150.442 55.7487C150.567 55.5383 150.578 55.3451 150.47 55.1802C150.362 55.0097 150.152 54.8846 149.839 54.805C149.549 54.7311 149.282 54.7368 149.049 54.805C148.816 54.8789 148.64 55.0154 148.52 55.22C148.441 55.3507 148.412 55.4701 148.429 55.5724C148.452 55.6805 148.509 55.7714 148.594 55.8567C148.679 55.9419 148.805 56.0443 148.975 56.1693C149.129 56.2887 149.248 56.3853 149.328 56.4706C149.407 56.5502 149.453 56.6298 149.47 56.7037C149.487 56.7776 149.47 56.8572 149.419 56.9424C149.339 57.0732 149.22 57.1641 149.06 57.2153C148.896 57.2665 148.708 57.2608 148.492 57.2153C148.253 57.1585 148.088 57.0675 147.997 56.9481C147.912 56.8287 147.912 56.698 147.997 56.5559L148.054 56.4592L148.031 56.4081L147.821 56.3569L147.759 56.3853L147.69 56.499C147.565 56.7037 147.56 56.8913 147.673 57.0675C147.787 57.238 148.003 57.3574 148.327 57.437L148.321 57.4313Z" fill="#272F36"/>
<path d="M150.601 57.9087L150.624 57.9542L150.84 58.0111L150.902 57.9883L151.545 56.9082L151.562 56.8912L153.267 55.7372L153.295 55.7031L153.261 55.686L153.034 55.6292L152.966 55.6406L151.584 56.5728L151.567 56.5785L151.556 56.5672L151.505 55.2824L151.465 55.2426L151.238 55.1858L151.186 55.1972L151.181 55.2256L151.249 56.8116L151.243 56.8286L150.601 57.9087Z" fill="#272F36"/>
<path d="M155.279 56.3628C155.177 56.1923 154.961 56.0672 154.648 55.9876C154.358 55.9137 154.091 55.9194 153.864 55.9876C153.631 56.0559 153.449 56.198 153.33 56.4026C153.25 56.5334 153.222 56.6527 153.244 56.7551C153.261 56.8574 153.318 56.954 153.403 57.0393C153.489 57.1246 153.614 57.2269 153.784 57.3519C153.943 57.4713 154.057 57.568 154.137 57.6532C154.216 57.7328 154.262 57.8124 154.273 57.8806C154.29 57.9545 154.273 58.0341 154.222 58.1194C154.142 58.2501 154.023 58.3411 153.864 58.3922C153.705 58.4434 153.511 58.4434 153.295 58.3922C153.051 58.3297 152.886 58.2387 152.801 58.1251C152.716 58.0057 152.716 57.8749 152.801 57.7328L152.858 57.6362L152.841 57.585L152.63 57.5339L152.562 57.5623L152.494 57.676C152.369 57.8806 152.369 58.0682 152.477 58.2388C152.591 58.4093 152.807 58.5287 153.131 58.6083C153.443 58.6878 153.727 58.6878 153.978 58.6083C154.228 58.5287 154.41 58.3866 154.535 58.1876C154.614 58.0568 154.637 57.9375 154.62 57.8238C154.592 57.7158 154.54 57.6134 154.449 57.5168C154.364 57.4258 154.233 57.3122 154.069 57.1928C153.904 57.0734 153.784 56.9824 153.716 56.9142C153.642 56.846 153.597 56.7835 153.574 56.7096C153.557 56.6414 153.574 56.5561 153.625 56.4708C153.705 56.3344 153.818 56.2491 153.972 56.2037C154.125 56.1582 154.296 56.1639 154.501 56.215C154.734 56.2719 154.887 56.3628 154.961 56.4822C155.035 56.6016 155.035 56.7323 154.95 56.8744L154.91 56.9427L154.933 56.9881L155.143 57.0393L155.205 57.0166L155.251 56.937C155.376 56.7266 155.387 56.539 155.279 56.3685V56.3628Z" fill="#272F36"/>
<path d="M148.282 58.8639C148.247 58.7843 148.174 58.7332 148.054 58.7047C147.975 58.682 147.895 58.682 147.815 58.6934C147.736 58.7047 147.662 58.7389 147.594 58.7843H147.582C147.582 58.7218 147.565 58.6706 147.526 58.6252C147.486 58.5797 147.423 58.5513 147.338 58.5285C147.275 58.5115 147.207 58.5058 147.139 58.5172C147.071 58.5228 147.008 58.5399 146.951 58.574H146.94L146.985 58.4887L146.974 58.4603L146.849 58.4319L146.815 58.4489L146.229 59.4267L146.241 59.4494L146.36 59.4779L146.394 59.4665L146.781 58.8184C146.826 58.7445 146.883 58.6934 146.957 58.6593C147.031 58.6308 147.111 58.6252 147.196 58.6479C147.281 58.6706 147.332 58.7047 147.355 58.7616C147.378 58.8184 147.366 58.881 147.327 58.9549L146.94 59.6029L146.951 59.6257L147.071 59.6541L147.105 59.6427L147.491 58.9947C147.537 58.9208 147.594 58.8696 147.673 58.8412C147.747 58.8128 147.832 58.8071 147.912 58.8298C147.992 58.8525 148.043 58.8867 148.066 58.9435C148.088 59.0003 148.077 59.0629 148.037 59.1368L147.651 59.7848L147.668 59.8076L147.787 59.836L147.821 59.8246L148.225 59.1481C148.287 59.0458 148.304 58.9492 148.27 58.8753L148.282 58.8639Z" fill="#272F36"/>
<path d="M150.231 59.3415C150.197 59.2619 150.123 59.2107 150.004 59.1823C149.924 59.1595 149.845 59.1595 149.765 59.1709C149.686 59.1823 149.612 59.2164 149.544 59.2619H149.532C149.532 59.1993 149.515 59.1425 149.475 59.1027C149.436 59.0572 149.373 59.0288 149.293 59.0061C149.225 58.989 149.157 58.9833 149.094 58.9947C149.026 59.0004 148.964 59.0174 148.907 59.0515H148.901V59.0459L148.947 58.9663L148.935 58.9378L148.816 58.9094L148.776 58.9265L148.191 59.9042L148.208 59.9327L148.327 59.9611L148.361 59.944L148.748 59.296C148.793 59.2221 148.85 59.1709 148.93 59.1425C149.004 59.1141 149.083 59.1084 149.168 59.1311C149.248 59.1482 149.299 59.188 149.328 59.2448C149.35 59.3017 149.339 59.3642 149.293 59.4381L148.907 60.0861L148.924 60.1146L149.043 60.143L149.077 60.1316L149.464 59.4836C149.509 59.4097 149.566 59.3585 149.64 59.3244C149.714 59.296 149.799 59.2903 149.879 59.313C149.959 59.3358 150.01 59.3699 150.038 59.4267C150.061 59.4836 150.055 59.5461 150.01 59.62L149.623 60.268L149.635 60.2908L149.754 60.3192L149.788 60.3078L150.192 59.6314C150.254 59.529 150.271 59.4324 150.237 59.3585L150.231 59.3415Z" fill="#272F36"/>
<path d="M152.09 59.262L151.971 59.2336L151.937 59.2449L151.567 59.8589L151.562 59.8646L150.806 59.677L150.8 59.6656L151.164 59.0573L151.152 59.0346L151.033 59.0005L150.999 59.0175L150.18 60.3875L150.192 60.4103L150.311 60.4444L150.345 60.4273L150.715 59.8077L150.732 59.802L151.488 59.9896V59.9953L151.118 60.6206L151.13 60.6433L151.249 60.6718L151.289 60.6604L152.107 59.2847L152.09 59.262Z" fill="#272F36"/>
<path d="M153.051 59.9441L153.011 59.9611L152.966 60.035H152.96C152.932 59.9384 152.852 59.8702 152.71 59.8361C152.602 59.8076 152.505 59.8133 152.403 59.8418C152.301 59.8702 152.21 59.927 152.136 60.0009C152.102 60.0293 152.073 60.0635 152.045 60.1032C152.016 60.143 151.982 60.1942 151.948 60.251C151.88 60.3591 151.84 60.4443 151.829 60.5069C151.806 60.5978 151.817 60.6774 151.869 60.7456C151.914 60.8138 151.999 60.8536 152.102 60.882C152.232 60.9162 152.357 60.8991 152.483 60.8366H152.488L152.443 60.9105C152.38 61.0185 152.301 61.0867 152.21 61.1208C152.113 61.1549 151.994 61.1549 151.846 61.1208L151.789 61.1037H151.766L151.749 61.1151L151.692 61.2061L151.704 61.2345C151.704 61.2345 151.749 61.2459 151.789 61.2572C151.965 61.3027 152.124 61.3027 152.267 61.2572C152.409 61.2117 152.528 61.1151 152.619 60.9673L153.193 60.0009L153.182 59.9725L153.062 59.9441H153.051ZM152.829 60.2397L152.801 60.3079C152.801 60.3079 152.761 60.3818 152.716 60.45C152.681 60.5069 152.659 60.5466 152.636 60.5808C152.613 60.6092 152.596 60.6319 152.585 60.6547C152.539 60.7058 152.483 60.7456 152.409 60.7683C152.335 60.7968 152.261 60.7968 152.187 60.774C152.107 60.757 152.056 60.7229 152.028 60.6717C151.994 60.6205 151.988 60.5694 152.005 60.5069C152.011 60.4671 152.045 60.3988 152.102 60.2965C152.158 60.2056 152.204 60.1374 152.244 60.0976C152.295 60.0464 152.363 60.0066 152.431 59.9839C152.505 59.9611 152.579 59.9554 152.653 59.9782C152.727 59.9952 152.778 60.0293 152.807 60.0805C152.829 60.1317 152.835 60.1828 152.818 60.2454L152.829 60.2397Z" fill="#272F36"/>
<path d="M128.789 57.6756C128.755 57.596 128.681 57.5449 128.562 57.5164C128.482 57.4937 128.402 57.4937 128.323 57.5051C128.243 57.5164 128.169 57.5449 128.101 57.5903H128.09C128.09 57.5278 128.073 57.4766 128.027 57.4369C127.982 57.3914 127.925 57.363 127.84 57.3402C127.777 57.3232 127.709 57.3232 127.641 57.3289C127.572 57.3345 127.51 57.3516 127.459 57.3857H127.447L127.493 57.3061L127.482 57.2777L127.362 57.2493L127.328 57.2663L126.743 58.2441L126.754 58.2668L126.873 58.2952L126.907 58.2839L127.3 57.6301C127.339 57.5562 127.402 57.5051 127.476 57.4766C127.55 57.4482 127.629 57.4425 127.715 57.4653C127.8 57.488 127.851 57.5221 127.868 57.579C127.891 57.6301 127.879 57.6984 127.84 57.7723L127.453 58.4203L127.464 58.443L127.584 58.4715L127.618 58.4601L128.01 57.8064C128.05 57.7325 128.113 57.6813 128.192 57.6529C128.266 57.6245 128.351 57.6188 128.431 57.6415C128.51 57.6642 128.562 57.6984 128.584 57.7552C128.613 57.812 128.596 57.8746 128.556 57.9485L128.169 58.5965L128.186 58.6249L128.3 58.6534L128.34 58.642L128.744 57.9655C128.806 57.8575 128.823 57.7666 128.789 57.6927V57.6756Z" fill="#272F36"/>
<path d="M130.744 58.1532C130.71 58.0736 130.636 58.0224 130.517 57.994C130.438 57.9712 130.358 57.9712 130.278 57.9826C130.199 57.994 130.125 58.0224 130.057 58.0679H130.045C130.045 58.0054 130.028 57.9542 129.983 57.9144C129.943 57.8689 129.88 57.8405 129.801 57.8178C129.733 57.8007 129.664 57.795 129.602 57.8064C129.534 57.8121 129.471 57.8291 129.414 57.8632H129.409L129.454 57.7837L129.443 57.7552L129.323 57.7268L129.284 57.7439L128.698 58.7216L128.715 58.75L128.834 58.7785L128.869 58.7671L129.261 58.1134C129.306 58.0451 129.363 57.994 129.443 57.9599C129.517 57.9315 129.596 57.9258 129.681 57.9485C129.761 57.9712 129.812 58.0054 129.835 58.0622C129.858 58.1134 129.846 58.1816 129.801 58.2555L129.414 58.9035L129.431 58.9319L129.551 58.9604L129.585 58.949L129.977 58.2953C130.017 58.2271 130.085 58.1759 130.159 58.1418C130.233 58.1134 130.318 58.1077 130.398 58.1304C130.477 58.1532 130.528 58.1873 130.557 58.2441C130.58 58.2953 130.568 58.3635 130.528 58.4374L130.142 59.0854L130.153 59.1082L130.273 59.1366L130.307 59.1252L130.71 58.4488C130.773 58.3407 130.79 58.2498 130.756 58.1759L130.744 58.1532Z" fill="#272F36"/>
<path d="M132.603 58.0791L132.484 58.0507L132.444 58.0621L132.08 58.676L132.069 58.6817L131.313 58.4941L131.307 58.4827L131.677 57.8688L131.665 57.846L131.54 57.8176L131.506 57.829L130.688 59.2047L130.699 59.2274L130.824 59.2558L130.858 59.2445L131.228 58.6248L131.239 58.6192L131.995 58.8011V58.8124L131.626 59.4321L131.643 59.4605L131.762 59.4889L131.796 59.4775L132.615 58.1019L132.603 58.0791Z" fill="#272F36"/>
<path d="M133.678 58.7896L133.558 58.7612L133.519 58.7783L133.473 58.8522H133.467H133.462C133.433 58.7555 133.354 58.6873 133.217 58.6532C133.109 58.6248 133.007 58.6305 132.905 58.6589C132.802 58.693 132.711 58.7442 132.632 58.8181C132.598 58.8465 132.569 58.8806 132.541 58.9204C132.512 58.9602 132.478 59.0113 132.444 59.0682C132.376 59.1762 132.342 59.2615 132.325 59.324C132.296 59.4149 132.313 59.4945 132.37 59.5628C132.416 59.631 132.495 59.6764 132.603 59.6992C132.734 59.7333 132.859 59.7162 132.984 59.6537H132.99L132.944 59.7333C132.882 59.8413 132.802 59.9095 132.706 59.9436C132.609 59.9777 132.49 59.972 132.342 59.9436L132.285 59.9266H132.262L132.245 59.9379L132.188 60.0289L132.2 60.0573C132.2 60.0573 132.245 60.0744 132.285 60.0801C132.461 60.1255 132.626 60.1255 132.763 60.0801C132.905 60.0346 133.024 59.9379 133.115 59.7901L133.689 58.8237L133.678 58.7953V58.7896ZM133.337 59.0568L133.308 59.125C133.308 59.125 133.268 59.1932 133.229 59.2615C133.195 59.3183 133.166 59.3638 133.149 59.3922C133.126 59.4206 133.109 59.4434 133.092 59.4661C133.047 59.5173 132.99 59.5571 132.916 59.5798C132.842 59.6025 132.768 59.6082 132.694 59.5855C132.615 59.5684 132.564 59.5343 132.535 59.4832C132.501 59.432 132.501 59.3752 132.518 59.3183C132.524 59.2785 132.558 59.2046 132.615 59.108C132.672 59.017 132.717 58.9488 132.763 58.909C132.814 58.8579 132.882 58.8181 132.95 58.7953C133.024 58.7726 133.098 58.7669 133.172 58.784C133.246 58.801 133.297 58.8351 133.325 58.8863C133.348 58.9374 133.354 58.9886 133.337 59.0511V59.0568Z" fill="#272F36"/>
<path d="M142.085 69.1755C142.37 69.2437 142.631 69.238 142.876 69.1528C143.114 69.0675 143.302 68.9197 143.427 68.698L144.109 67.5554C144.24 67.3394 144.257 67.1461 144.172 66.9812C144.081 66.8164 143.893 66.697 143.609 66.6288L142.603 66.3787L142.54 66.4071L141.062 68.8856L141.085 68.9311L142.091 69.1755H142.085ZM142.716 66.6799L142.739 66.6686L143.484 66.8505C143.671 66.896 143.791 66.9812 143.848 67.0949C143.899 67.2143 143.876 67.3507 143.785 67.5099L143.143 68.5843C143.052 68.7435 142.921 68.8515 142.756 68.914C142.591 68.9822 142.415 68.9879 142.227 68.9424L141.483 68.7605V68.7435L142.711 66.6743L142.716 66.6799Z" fill="#272F36"/>
<path d="M143.717 69.5734L143.933 69.6302L143.995 69.6018L145.479 67.1233L145.456 67.0778L145.24 67.021L145.172 67.0494L143.694 69.5279L143.717 69.5734Z" fill="#272F36"/>
<path d="M147.338 67.5383L147.048 67.4644L146.98 67.4814L144.558 69.7325L144.57 69.778L144.803 69.8348L144.871 69.8178L145.314 69.3971H145.337L146.616 69.7041L146.627 69.7212L146.519 70.2214L146.553 70.2612L146.787 70.318L146.838 70.301V70.2839L147.372 67.5667L147.338 67.5212V67.5383ZM146.673 69.4653L146.661 69.4767H146.644L145.542 69.2095L145.53 69.1982V69.1868L146.98 67.8339H146.997L147.003 67.8395L146.673 69.4653Z" fill="#272F36"/>
<path d="M141.352 70.4715C141.318 70.3919 141.244 70.3408 141.125 70.3123C141.045 70.2896 140.965 70.2896 140.886 70.301C140.806 70.3123 140.732 70.3408 140.664 70.3862H140.653C140.653 70.3237 140.636 70.2726 140.596 70.2271C140.556 70.1873 140.494 70.1532 140.408 70.1361C140.346 70.1191 140.278 70.1134 140.209 70.1248C140.141 70.1304 140.084 70.1475 140.028 70.1816H140.016V70.1759L140.067 70.0963L140.056 70.0736L139.937 70.0452L139.902 70.0565L139.317 71.0343L139.328 71.0627L139.448 71.0911L139.482 71.0741L139.868 70.426C139.908 70.3521 139.971 70.301 140.045 70.2726C140.118 70.2384 140.198 70.2328 140.283 70.2555C140.369 70.2782 140.42 70.3123 140.442 70.3692C140.465 70.426 140.454 70.4943 140.408 70.5682L140.022 71.2105L140.033 71.2389L140.153 71.2674L140.187 71.2503L140.573 70.6023C140.619 70.5284 140.676 70.4772 140.755 70.4488C140.835 70.4204 140.914 70.4147 141 70.4317C141.079 70.4545 141.13 70.4886 141.153 70.5454C141.176 70.6023 141.164 70.6648 141.119 70.7444L140.732 71.3867L140.744 71.4152L140.863 71.4436L140.897 71.4265L141.301 70.7501C141.363 70.6477 141.375 70.5568 141.346 70.4772L141.352 70.4715Z" fill="#272F36"/>
<path d="M143.302 70.9491C143.273 70.8752 143.194 70.8184 143.074 70.79C142.995 70.7729 142.915 70.7672 142.836 70.7786C142.756 70.79 142.682 70.8184 142.614 70.8639H142.603C142.603 70.8013 142.586 70.7502 142.546 70.7047C142.506 70.6649 142.443 70.6308 142.364 70.6137C142.296 70.5967 142.227 70.591 142.165 70.5967C142.097 70.5967 142.04 70.6194 141.977 70.6535H141.972V70.6478L142.023 70.5682L142.011 70.5455L141.892 70.5171L141.858 70.5285L141.272 71.5062L141.284 71.5346L141.403 71.5631L141.437 71.546L141.824 70.8923C141.869 70.8184 141.926 70.7729 142.006 70.7388C142.08 70.7047 142.159 70.699 142.245 70.7217C142.324 70.7388 142.375 70.7786 142.404 70.8354C142.426 70.8923 142.415 70.9548 142.37 71.0344L141.983 71.6768L141.994 71.7052L142.114 71.7336L142.154 71.7165L142.54 71.0685C142.586 70.9946 142.642 70.9434 142.716 70.915C142.796 70.8866 142.876 70.8809 142.955 70.898C143.035 70.9207 143.086 70.9548 143.114 71.0117C143.137 71.0685 143.126 71.131 143.08 71.2049L142.694 71.853L142.705 71.8814L142.824 71.9098L142.858 71.8928L143.262 71.2163C143.325 71.114 143.342 71.023 143.308 70.9434L143.302 70.9491Z" fill="#272F36"/>
<path d="M145.166 70.8696L145.047 70.8412L145.007 70.8525L144.643 71.4665L144.632 71.4721L143.876 71.2846L143.87 71.2789L144.24 70.6649L144.228 70.6422L144.103 70.6138L144.069 70.6251L143.251 71.9951L143.262 72.0236L143.381 72.052L143.421 72.0349L143.791 71.4153L143.802 71.4096L144.558 71.5972V71.6086L144.189 72.2225L144.206 72.2509L144.325 72.2794L144.359 72.268L145.178 70.898L145.166 70.8696Z" fill="#272F36"/>
<path d="M146.121 71.5517L146.087 71.5631L146.042 71.6427H146.036H146.03C146.002 71.5461 145.922 71.4778 145.786 71.4437C145.678 71.4153 145.581 71.421 145.473 71.4494C145.371 71.4778 145.28 71.5347 145.201 71.6086C145.166 71.637 145.138 71.6711 145.11 71.7109C145.087 71.7507 145.053 71.7962 145.013 71.8587C144.945 71.9667 144.911 72.052 144.894 72.1145C144.871 72.2055 144.882 72.2851 144.939 72.3533C144.99 72.4215 145.064 72.467 145.172 72.4897C145.303 72.5238 145.434 72.5068 145.553 72.4442H145.559L145.513 72.5181C145.451 72.6261 145.371 72.6944 145.274 72.7285C145.178 72.7626 145.058 72.7569 144.911 72.7228L144.848 72.7057H144.825L144.808 72.7171L144.751 72.808L144.763 72.8365C144.763 72.8365 144.808 72.8478 144.842 72.8592C145.019 72.9047 145.183 72.899 145.32 72.8592C145.468 72.8137 145.581 72.7171 145.672 72.5636L146.247 71.5972L146.235 71.5745L146.116 71.5461L146.121 71.5517ZM145.9 71.8473L145.871 71.9156C145.871 71.9156 145.832 71.9838 145.792 72.052C145.758 72.1088 145.735 72.1486 145.712 72.1827C145.689 72.2112 145.672 72.2339 145.661 72.2566C145.616 72.3078 145.553 72.3476 145.485 72.3703C145.411 72.3931 145.343 72.3988 145.263 72.376C145.183 72.359 145.132 72.3249 145.104 72.2737C145.07 72.2225 145.07 72.1657 145.087 72.1088C145.093 72.0634 145.127 71.9951 145.183 71.8985C145.24 71.8076 145.286 71.7393 145.326 71.6995C145.377 71.6484 145.445 71.6086 145.513 71.5859C145.587 71.5574 145.661 71.5574 145.735 71.5745C145.809 71.5915 145.86 71.6256 145.888 71.6768C145.917 71.7223 145.922 71.7791 145.9 71.8417V71.8473Z" fill="#272F36"/>
<path d="M133.956 79.1692L134.485 79.2999C134.644 79.3397 134.798 79.334 134.945 79.2715C135.093 79.2146 135.207 79.118 135.287 78.9816C135.366 78.8451 135.383 78.7258 135.338 78.6178C135.292 78.5097 135.184 78.4415 135.031 78.4017L134.326 78.2312L134.286 78.2483L133.348 79.8172L133.365 79.8456L133.502 79.8797L133.541 79.8627L133.951 79.1748H133.968L133.956 79.1692ZM134.388 78.4131H134.405L134.923 78.5325C135.031 78.5609 135.093 78.6064 135.127 78.6803C135.161 78.7542 135.15 78.8395 135.093 78.9304C135.036 79.0214 134.962 79.0896 134.86 79.1294C134.758 79.1692 134.656 79.1805 134.553 79.1521L134.036 79.027V79.0157L134.388 78.4188V78.4131Z" fill="#272F36"/>
<path d="M135.133 80.0219C135.139 80.1128 135.179 80.1924 135.252 80.2606C135.321 80.3289 135.423 80.38 135.548 80.4084C135.673 80.4369 135.804 80.4482 135.923 80.4255C136.043 80.4084 136.156 80.363 136.259 80.3004C136.355 80.2379 136.44 80.1526 136.497 80.0503L137.151 78.9589L137.134 78.9304L136.998 78.8963L136.958 78.9134L136.304 80.0105C136.242 80.1185 136.145 80.1981 136.02 80.2436C135.9 80.2947 135.77 80.3004 135.633 80.2663C135.497 80.2322 135.412 80.1697 135.366 80.0844C135.326 79.9991 135.338 79.8968 135.4 79.7888L136.054 78.6917L136.037 78.6633L135.9 78.6292L135.861 78.6462L135.207 79.7377C135.144 79.84 135.116 79.9366 135.127 80.0276L135.133 80.0219Z" fill="#272F36"/>
<path d="M136.713 80.6698L137.845 80.9483L137.884 80.9313L137.941 80.8346L137.93 80.8062L136.975 80.5731L136.969 80.5618L137.828 79.1236L137.816 79.0951L137.674 79.061L137.64 79.0781L136.702 80.6414L136.713 80.6698Z" fill="#272F36"/>
<path d="M139.345 80.2946C139.243 80.2207 139.163 80.1639 139.124 80.1184C139.078 80.0729 139.044 80.0331 139.033 79.9877C139.021 79.9422 139.033 79.891 139.067 79.8399C139.118 79.7546 139.186 79.6977 139.283 79.6693C139.379 79.6409 139.487 79.6466 139.618 79.675C139.76 79.7091 139.857 79.766 139.908 79.8455C139.954 79.9251 139.954 80.0047 139.897 80.0957L139.874 80.1355L139.891 80.1639L140.027 80.198L140.067 80.1809L140.096 80.1298C140.175 79.999 140.181 79.8796 140.113 79.7716C140.045 79.6636 139.914 79.584 139.709 79.5329C139.527 79.4874 139.362 79.4874 139.215 79.5329C139.067 79.5784 138.953 79.6693 138.879 79.7944C138.828 79.874 138.811 79.9536 138.822 80.0161C138.834 80.0843 138.868 80.1411 138.925 80.1923C138.976 80.2435 139.061 80.3117 139.169 80.3913C139.266 80.4708 139.34 80.5334 139.391 80.5789C139.442 80.63 139.465 80.6812 139.482 80.7267C139.493 80.7721 139.482 80.8233 139.448 80.8745C139.396 80.954 139.323 81.0166 139.22 81.0507C139.118 81.0791 138.999 81.0791 138.862 81.0507C138.709 81.0109 138.606 80.954 138.549 80.8801C138.498 80.8062 138.498 80.721 138.549 80.6357L138.589 80.5732L138.572 80.5447L138.441 80.5106L138.402 80.5277L138.356 80.5959C138.282 80.7267 138.271 80.846 138.345 80.954C138.413 81.0621 138.549 81.1416 138.754 81.1928C138.947 81.2383 139.129 81.2383 139.288 81.1928C139.448 81.1416 139.561 81.0507 139.641 80.9256C139.692 80.846 139.703 80.7665 139.692 80.6982C139.675 80.63 139.641 80.5618 139.584 80.505C139.527 80.4481 139.448 80.3799 139.345 80.3003V80.2946Z" fill="#272F36"/>
<path d="M141.955 80.1129L140.784 79.823L140.744 79.8401L139.806 81.4033L139.823 81.4317L140.988 81.7217L141.028 81.7046L141.091 81.608L141.073 81.5796L140.084 81.3351L140.079 81.3237L140.425 80.7439L140.437 80.7382L141.136 80.9088L141.176 80.8917L141.233 80.7951L141.221 80.7666L140.522 80.5961V80.5847L140.857 80.0163L140.874 80.0106L141.869 80.255L141.909 80.2323L141.966 80.1357L141.955 80.1129Z" fill="#272F36"/>
<path d="M135.122 81.0167L135.002 80.9883L134.968 80.994L133.621 82.2389L133.627 82.2673L133.746 82.2957L133.786 82.2901L135.127 81.0451L135.122 81.0167Z" fill="#272F36"/>
<path d="M136.691 81.9376C136.656 81.8637 136.583 81.8069 136.463 81.7785C136.384 81.7557 136.304 81.7557 136.224 81.7671C136.145 81.7785 136.077 81.8069 136.008 81.8524H135.997C135.997 81.7898 135.98 81.7387 135.935 81.6989C135.895 81.6534 135.832 81.625 135.753 81.6023C135.684 81.5852 135.616 81.5795 135.554 81.5909C135.491 81.5966 135.429 81.6193 135.372 81.6477H135.36V81.642L135.406 81.5625L135.395 81.534L135.269 81.5056L135.235 81.5227L134.65 82.5004L134.661 82.5232L134.781 82.5516L134.815 82.5402L135.207 81.8865C135.247 81.8126 135.309 81.7671 135.383 81.733C135.457 81.7046 135.537 81.6989 135.622 81.7216C135.701 81.7444 135.753 81.7785 135.775 81.8353C135.804 81.8865 135.787 81.9547 135.747 82.0286L135.36 82.6766L135.377 82.6994L135.497 82.7278L135.531 82.7164L135.923 82.0627C135.969 81.9888 136.026 81.9433 136.105 81.9092C136.179 81.8808 136.264 81.8751 136.344 81.8979C136.423 81.9206 136.475 81.9547 136.503 82.0115C136.526 82.0627 136.514 82.1309 136.475 82.2048L136.088 82.8529L136.099 82.8756L136.219 82.904L136.253 82.8927L136.657 82.2162C136.719 82.1082 136.736 82.0172 136.702 81.9433L136.691 81.9376Z" fill="#272F36"/>
<path d="M137.367 82.0173L137.248 81.9832L137.214 82.0002L136.628 82.978L136.639 83.0007L136.765 83.0348L136.793 83.0178L137.378 82.04L137.367 82.0173Z" fill="#272F36"/>
<path d="M137.56 81.5909C137.521 81.5795 137.481 81.5852 137.447 81.6022C137.407 81.6136 137.378 81.642 137.356 81.6761C137.339 81.7046 137.333 81.7387 137.35 81.7671C137.361 81.7955 137.384 81.8126 137.424 81.8239C137.464 81.8353 137.498 81.8296 137.538 81.8126C137.577 81.7955 137.606 81.7728 137.623 81.7444C137.646 81.7103 137.646 81.6761 137.634 81.6534C137.623 81.625 137.6 81.6079 137.56 81.5966V81.5909Z" fill="#272F36"/>
<path d="M138.305 82.2276C138.163 82.1935 138.032 82.2048 137.913 82.273H137.907L137.958 82.1821L137.947 82.1537L137.828 82.1252L137.793 82.1423L137.208 83.1201L137.219 83.1428L137.339 83.1712L137.373 83.1599L137.754 82.5175C137.799 82.4436 137.862 82.3924 137.941 82.3583C138.021 82.3242 138.106 82.3185 138.197 82.3413C138.277 82.364 138.333 82.3981 138.356 82.4606C138.379 82.5232 138.373 82.5914 138.328 82.6653L137.947 83.302L137.958 83.3247L138.078 83.3531L138.112 83.3418L138.51 82.6767C138.572 82.5743 138.584 82.4777 138.549 82.3981C138.515 82.3185 138.436 82.256 138.305 82.2276Z" fill="#272F36"/>
<path d="M131.154 52.7015L132.632 50.223C132.7 49.9672 132.615 49.7796 132.376 49.6545L131.643 50.2855L130.534 52.1387L130.841 52.8209L131.154 52.6958V52.7015Z" fill="#272F36"/>
<path d="M130.739 53.0084L129.801 53.3836L128.692 55.2367L128.584 56.0212C128.897 56.0326 129.153 55.9246 129.363 55.7029L130.835 53.2301L130.733 53.0027L130.739 53.0084Z" fill="#272F36"/>
<path d="M131.484 55.7256L132.49 54.043L132.183 53.3608L131.87 53.4859L130.5 55.7825L131.484 55.7256Z" fill="#272F36"/>
<path d="M130.398 55.9588C130.324 56.2089 130.409 56.4022 130.654 56.5272L134.064 57.3629L134.178 56.5841L131.381 55.8962L130.398 55.9588Z" fill="#272F36"/>
<path d="M135.918 53.469L136.225 54.1512L136.537 54.0261L138.015 51.5533C138.089 51.3032 138.004 51.1099 137.759 50.9849L137.026 51.6159L135.918 53.469Z" fill="#272F36"/>
<path d="M136.821 51.559L137.555 50.928L134.457 50.1662C134.144 50.1606 133.888 50.2629 133.678 50.4789L134.349 50.9507L136.821 51.559Z" fill="#272F36"/>
<path d="M135.764 53.7361L133.07 53.071L132.444 53.3212L132.649 53.7759L135.338 54.441L135.963 54.1852L135.764 53.7361Z" fill="#272F36"/>
<path d="M137.253 54.8049L135.883 57.1072L136.873 57.0447L137.873 55.3677L137.566 54.6855L137.253 54.8049Z" fill="#272F36"/>
<path d="M142.199 52.8834L142.932 52.2524L139.834 51.4907C139.522 51.485 139.266 51.5873 139.055 51.8034L139.726 52.2752L142.199 52.8834Z" fill="#272F36"/>
<path d="M137.668 54.5035L138.612 54.1283L139.613 52.4456L138.942 51.9795L137.572 54.2761L137.668 54.5035Z" fill="#272F36"/>
<path d="M140.721 55.7598L141.346 55.5097L141.142 55.0549L138.453 54.3955L137.828 54.6456L138.032 55.1004L140.721 55.7598Z" fill="#272F36"/>
<path d="M135.775 57.2775C135.702 57.5334 135.787 57.7209 136.031 57.846L139.135 58.6078L139.243 57.829L136.759 57.2207L135.77 57.2775H135.775Z" fill="#272F36"/>
<path d="M143.143 52.3035L142.409 52.9345L141.301 54.7877L141.608 55.4698L141.92 55.3447L143.399 52.8719C143.472 52.6218 143.387 52.4342 143.143 52.3035Z" fill="#272F36"/>
<path d="M140.562 56.0271L139.453 57.8803L139.34 58.6591C139.652 58.6705 139.914 58.5625 140.118 58.3464L141.596 55.8736L141.494 55.6462L140.556 56.0214L140.562 56.0271Z" fill="#272F36"/>
<path d="M126.396 64.2526L127.402 62.5699L126.731 62.1038L125.361 64.4003L125.464 64.6277L126.396 64.2526Z" fill="#272F36"/>
<path d="M123.571 67.4019C123.497 67.652 123.582 67.8453 123.826 67.9703L126.93 68.7321L127.038 67.9476L124.554 67.3394L123.571 67.4019Z" fill="#272F36"/>
<path d="M125.657 65.4861L125.355 64.804L125.043 64.929L123.673 67.2313L124.656 67.1688L125.657 65.4861Z" fill="#272F36"/>
<path d="M126.237 64.5142L125.617 64.7643L125.816 65.2247L128.51 65.8842L129.136 65.6283L128.931 65.1793L126.237 64.5142Z" fill="#272F36"/>
<path d="M129.988 63.0077L130.722 62.3767L127.629 61.615C127.317 61.6093 127.061 61.7116 126.851 61.9333L127.521 62.4051L129.994 63.0134L129.988 63.0077Z" fill="#272F36"/>
<path d="M129.09 64.912L129.397 65.5941L129.71 65.4691L131.188 62.9906C131.262 62.7405 131.177 62.5529 130.932 62.4221L130.199 63.0531L129.09 64.9063V64.912Z" fill="#272F36"/>
<path d="M129.289 65.7703L128.351 66.1455L127.243 67.9987L127.129 68.7775C127.442 68.7889 127.703 68.6809 127.908 68.4648L129.38 65.992L129.278 65.7646L129.289 65.7703Z" fill="#272F36"/>
<path d="M135.372 64.3265L136.105 63.6956L133.007 62.9338C132.694 62.9281 132.439 63.0305 132.228 63.2465L132.899 63.7183L135.372 64.3265Z" fill="#272F36"/>
<path d="M131.205 66.5435L133.894 67.2029L134.519 66.9528L134.314 66.498L131.626 65.8386L131 66.0887L131.205 66.5435Z" fill="#272F36"/>
<path d="M128.948 68.7263C128.874 68.9765 128.96 69.1698 129.204 69.2948L132.308 70.0566L132.416 69.2721L129.932 68.6638L128.942 68.7263H128.948Z" fill="#272F36"/>
<path d="M136.31 63.7468L135.576 64.3778L134.468 66.231L134.775 66.9132L135.088 66.7881L136.566 64.3153C136.639 64.0595 136.554 63.8719 136.31 63.7468Z" fill="#272F36"/>
<path d="M133.735 67.4702L132.626 69.3233L132.512 70.1078C132.825 70.1192 133.087 70.0112 133.291 69.7952L134.764 67.3224L134.661 67.095L133.723 67.4702H133.735Z" fill="#272F36"/>
<path d="M120.455 78.7029C120.404 78.8734 120.461 79.0098 120.632 79.0951L122.78 79.6238L122.854 79.0838L121.137 78.6631L120.455 78.7086V78.7029Z" fill="#272F36"/>
<path d="M121.899 77.3784L121.689 76.9009L121.479 76.9861L120.529 78.5778L121.211 78.5324L121.899 77.3784Z" fill="#272F36"/>
<path d="M122.411 76.5201L123.104 75.3604L122.644 75.0364L121.695 76.6224L121.763 76.7759L122.411 76.5201Z" fill="#272F36"/>
<path d="M121.871 76.8784L122.013 77.191L123.872 77.6458L124.304 77.4753L124.162 77.1569L122.303 76.7021L121.871 76.8784Z" fill="#272F36"/>
<path d="M125.111 75.7072L125.617 75.2695L123.264 74.6897C123.048 74.6897 122.871 74.7579 122.724 74.9114L123.19 75.2354L125.117 75.7072H125.111Z" fill="#272F36"/>
<path d="M124.412 77.5718L123.764 77.8333L122.996 79.1124L122.922 79.6524C123.138 79.6524 123.32 79.5842 123.463 79.4364L124.486 77.7253L124.418 77.5662L124.412 77.5718Z" fill="#272F36"/>
<path d="M125.486 77.6912L126.134 77.4297L126.822 76.2701L126.362 75.946L125.412 77.5377L125.486 77.6912Z" fill="#272F36"/>
<path d="M125.589 77.7877L125.731 78.1061L127.59 78.5608L128.022 78.3903L127.885 78.072L126.021 77.6172L125.589 77.7877Z" fill="#272F36"/>
<path d="M128.613 76.5713L129.119 76.1336L126.981 75.6106C126.765 75.6106 126.583 75.6788 126.436 75.8323L126.902 76.1563L128.613 76.577V76.5713Z" fill="#272F36"/>
<path d="M124.173 79.6126C124.122 79.7831 124.184 79.9195 124.349 80.0048L126.498 80.5335L126.572 79.9934L124.855 79.5728L124.173 79.6182V79.6126Z" fill="#272F36"/>
<path d="M127.482 78.7428L126.72 80.0218L126.646 80.5618C126.862 80.5675 127.038 80.4936 127.186 80.3458L128.209 78.6348L128.141 78.4756L127.493 78.7371L127.482 78.7428Z" fill="#272F36"/>
<path d="M129.267 76.1677L128.761 76.5998L127.993 77.8845L128.203 78.3563L128.419 78.271L129.437 76.56C129.488 76.3837 129.426 76.253 129.267 76.1677Z" fill="#272F36"/>
<path d="M117.954 75.4287C117.619 75.3491 117.221 75.4571 116.959 75.6902C117.005 75.4059 116.829 75.1558 116.487 75.0706C116.055 74.9625 115.532 75.1729 115.316 75.5424C115.22 75.7015 114.97 76.1222 115.697 76.992L115.982 77.3273L116.544 77.1966C117.988 76.8612 118.244 76.4405 118.335 76.2814C118.551 75.9176 118.38 75.5367 117.954 75.4287Z" fill="#272F36"/>
<path d="M84.7729 84.9221C82.7151 84.4162 80.1968 85.4337 79.1452 87.1903C78.0992 88.9468 78.9178 90.7829 80.9756 91.2832L87.746 92.9488L91.5433 86.582L84.7729 84.9164V84.9221Z" fill="white"/>
<path d="M99.03 88.4182L92.2596 86.7583L88.4623 93.1251L95.2326 94.785C97.2905 95.2909 99.8088 94.2734 100.855 92.5225C101.906 90.766 101.088 88.9298 99.03 88.4239V88.4182Z" fill="white"/>
<path d="M111.616 91.5051C109.558 90.9992 107.04 92.0167 105.988 93.7733C104.942 95.5298 105.761 97.3659 107.818 97.8719C109.876 98.3778 112.395 97.3603 113.441 95.6037C114.492 93.8472 113.674 92.011 111.616 91.5051Z" fill="white"/>
<path d="M119.205 97.0247C117.454 99.9636 118.773 103.028 122.144 103.943L128.596 93.125C125.128 92.3633 120.956 94.08 119.205 97.019V97.0247Z" fill="white"/>
<path d="M128.96 93.2102L122.507 104.028C125.975 104.79 130.148 103.073 131.898 100.134C133.655 97.1951 132.331 94.1311 128.96 93.2102Z" fill="white"/>
<path d="M84.9719 85.718C82.9141 85.2121 80.3958 86.2296 79.3441 87.9862C79.0769 88.4352 78.77 88.5091 78.7359 88.9469C78.7018 89.3846 78.9405 90.1861 79.1224 90.5613C79.4635 91.2775 80.1741 91.8346 81.1746 92.0848L87.9506 93.7504L91.748 87.3836L91.5888 86.6616L84.9719 85.718Z" fill="#5B6F7A"/>
<path d="M99.2289 89.2141L92.4586 87.5542L88.5021 93.199L88.6612 93.921L95.4316 95.5809C97.4894 96.0868 100.008 95.0693 101.054 93.3127C101.423 92.6931 101.56 92.0621 101.497 91.488C101.463 91.1696 101.344 90.4477 101.19 90.1748C100.826 89.5268 100.167 89.4472 99.2289 89.2198V89.2141Z" fill="#5B6F7A"/>
<path d="M111.815 92.3066C109.751 91.8007 107.233 92.8182 106.187 94.5748C105.755 95.3024 105.465 95.2569 105.63 95.9107C105.698 96.1892 105.988 97.2352 106.153 97.4739C106.539 98.031 107.176 98.4631 108.017 98.6677C110.075 99.1736 112.593 98.1561 113.639 96.3995C113.981 95.8254 114.123 95.2512 114.094 94.7112C114.089 94.5691 113.844 93.5686 113.81 93.4322C113.588 92.4942 113.031 92.6022 111.815 92.3009V92.3066Z" fill="#5B6F7A"/>
<path d="M119.409 97.8206C118.602 99.1735 118.432 99.651 118.636 100.85C118.67 101.038 118.977 102.095 119.063 102.266C119.637 103.403 120.768 104.307 122.348 104.739L128.8 93.9209C128.687 93.8982 128.755 93.2217 128.641 93.199C125.242 92.6134 121.103 94.9669 119.404 97.8149L119.409 97.8206Z" fill="#5B6F7A"/>
<path d="M129.159 94.012L122.547 104.108L122.706 104.83C126.174 105.592 130.347 103.875 132.097 100.936C133.854 97.9912 132.529 94.9329 129.159 94.012Z" fill="#5B6F7A"/>
<path d="M84.8185 84.9961C82.7607 84.4901 80.2424 85.5077 79.1908 87.2642C78.1448 89.0208 78.9634 90.8569 81.0212 91.3628L87.7916 93.0228L91.5889 86.656L84.8185 84.9961Z" fill="#7F919C"/>
<path d="M99.0755 88.4978L92.3051 86.8379L88.5077 93.2047L95.2781 94.8646C97.336 95.3705 99.8543 94.353 100.9 92.5964C101.952 90.8342 101.133 89.0037 99.0755 88.4978Z" fill="#7F919C"/>
<path d="M111.661 91.5846C109.603 91.0787 107.085 92.0906 106.033 93.8528C104.987 95.6093 105.8 97.4455 107.864 97.9457C109.922 98.4517 112.44 97.4341 113.486 95.6776C114.538 93.921 113.719 92.0849 111.661 91.5789V91.5846Z" fill="#7F919C"/>
<path d="M119.25 97.0986C117.494 100.038 118.818 103.102 122.189 104.017L128.641 93.199C125.174 92.4372 121.001 94.154 119.25 97.093V97.0986Z" fill="#7F919C"/>
<path d="M129.005 93.29L122.553 104.108C126.021 104.87 130.187 103.153 131.944 100.214C133.701 97.275 132.382 94.2109 129.005 93.29Z" fill="#7F919C"/>
<path d="M131.586 100.003C132.348 98.7244 132.512 97.3828 132.041 96.2231C131.552 95.0123 130.432 94.1084 128.903 93.6935L128.783 93.665L122.775 103.733C123.246 103.823 123.747 103.88 124.253 103.88C127.209 103.88 130.222 102.289 131.586 100.009V100.003Z" fill="url(#paint6_linear_66_1560)"/>
<path d="M126.942 93.4321C123.985 93.4321 120.967 95.0238 119.608 97.309C118.847 98.5881 118.687 99.9297 119.154 101.089C119.642 102.3 120.762 103.204 122.291 103.619L122.411 103.647L128.42 93.5799C127.942 93.4833 127.447 93.4321 126.942 93.4321Z" fill="url(#paint7_linear_66_1560)"/>
<path d="M84.9833 88.3329L85.4494 87.5542L84.7331 87.3779L84.267 88.1567L83.3461 87.935L82.9823 88.5433L83.9032 88.7707L83.437 89.5551L84.1476 89.7314L84.6138 88.9469L85.5347 89.1743L85.8985 88.5603L84.9833 88.3329Z" fill="white"/>
<path d="M97.1086 91.3116L94.5619 90.6863L94.198 91.3002L96.7447 91.9255L97.1086 91.3116Z" fill="white"/>
<path d="M108.938 94.5971C108.921 94.5346 108.887 94.4834 108.842 94.438C108.796 94.3982 108.734 94.347 108.648 94.2902C108.569 94.239 108.512 94.1992 108.478 94.1708C108.438 94.1424 108.421 94.1139 108.41 94.0855C108.398 94.0571 108.404 94.0287 108.421 93.9946C108.449 93.9491 108.489 93.9207 108.54 93.9036C108.597 93.8922 108.66 93.8922 108.728 93.9036C108.813 93.9264 108.876 93.9605 108.904 94.0116C108.933 94.0571 108.938 94.1139 108.904 94.1651L108.893 94.1822V94.1992L108.904 94.2106L109.16 94.2731H109.183L109.2 94.2561L109.217 94.2276C109.262 94.1481 109.279 94.0685 109.268 93.9946C109.257 93.9207 109.217 93.8525 109.149 93.7956C109.08 93.7444 108.989 93.699 108.876 93.6705C108.768 93.6421 108.665 93.6364 108.563 93.6421C108.461 93.6535 108.37 93.6819 108.29 93.7274C108.211 93.7729 108.142 93.8354 108.097 93.915C108.051 93.9889 108.04 94.0628 108.051 94.1253C108.069 94.1878 108.103 94.2447 108.154 94.2959C108.205 94.3413 108.273 94.3925 108.353 94.4493C108.427 94.5005 108.478 94.5346 108.512 94.563C108.546 94.5915 108.569 94.6142 108.58 94.6426C108.592 94.671 108.586 94.6995 108.569 94.7279C108.54 94.7734 108.501 94.8018 108.444 94.8188C108.387 94.8359 108.319 94.8416 108.239 94.8188C108.148 94.7961 108.086 94.7563 108.051 94.7108C108.012 94.6654 108.012 94.6142 108.046 94.563L108.063 94.5346V94.5176L108.046 94.5062L107.79 94.4437H107.767L107.75 94.4607L107.727 94.5005C107.676 94.5858 107.659 94.6597 107.671 94.7279C107.682 94.8018 107.727 94.8643 107.796 94.9212C107.864 94.978 107.961 95.0178 108.08 95.0462C108.256 95.0917 108.415 95.0917 108.563 95.0462C108.705 95.0007 108.813 94.9212 108.887 94.8018C108.938 94.7222 108.955 94.6483 108.933 94.5858L108.938 94.5971Z" fill="white"/>
<path d="M109.694 94.5288V94.5174L109.871 94.2218L109.888 94.2105L110.621 94.3924H110.644L110.661 94.3753L110.769 94.1877L110.774 94.1764L110.757 94.1593L109.723 93.9092H109.7L109.683 93.9206L108.91 95.2166V95.2337L108.921 95.2451L109.956 95.5009H109.984L110.001 95.4838L110.109 95.3019V95.2849L110.098 95.2678L109.359 95.0916V95.0802L109.541 94.7676L109.558 94.7619L110.041 94.8756H110.064L110.081 94.8642L110.189 94.6766L110.195 94.6596L110.178 94.6482L109.694 94.5288Z" fill="white"/>
<path d="M112.088 94.489L110.956 94.2104H110.934L110.922 94.2275L110.809 94.4151L110.803 94.4322L110.82 94.4435L111.206 94.5402L111.218 94.5515L110.575 95.6259L110.57 95.643L110.587 95.6543L110.848 95.7226L110.871 95.7169L110.888 95.7055L111.53 94.6311L111.548 94.6197L111.951 94.7221H111.974L111.991 94.705L112.105 94.5174V94.5004L112.088 94.489Z" fill="white"/>
<path d="M123.536 97.309L123.519 97.2919L123.258 97.2294L123.218 97.2407L122.615 97.5989H122.598L122.53 97.0702L122.507 97.0475L122.246 96.9792L122.223 96.9849L122.206 96.9963L121.433 98.2924L121.427 98.3094L121.444 98.3208L121.706 98.389L121.734 98.3834L121.746 98.3663L122.252 97.525L122.263 97.5193L122.269 97.525L122.314 97.9058L122.337 97.9229L122.468 97.957L122.507 97.9513L122.94 97.6898H122.951V97.6955L122.445 98.5425V98.5596L122.462 98.5709L122.718 98.6335H122.746L122.763 98.6164L123.536 97.3203V97.309Z" fill="white"/>
<path d="M124.298 98.23L123.985 98.1561V98.139L124.139 97.8775L124.145 97.8605L124.128 97.8491L123.912 97.7922L123.889 97.7979L123.872 97.8093L123.713 98.0765L123.701 98.0822L123.389 98.0083H123.366L123.349 98.0253L123.241 98.2072L123.235 98.23L123.252 98.2356L123.559 98.3152L123.565 98.3266L123.411 98.5824L123.406 98.6051L123.423 98.6108L123.639 98.6677L123.661 98.662L123.679 98.6506L123.832 98.3948L123.849 98.3834L124.162 98.463L124.184 98.4573L124.196 98.446L124.31 98.2584L124.315 98.2413L124.298 98.23Z" fill="white"/>
<path d="M129.619 98.8039C129.596 98.7698 129.556 98.7527 129.517 98.7414C129.448 98.7243 129.369 98.7357 129.295 98.7755C129.176 98.838 129.13 98.9574 129.193 99.0427C129.335 99.2416 129.352 99.5088 129.193 99.7646C128.931 100.197 128.311 100.447 127.8 100.322C127.294 100.197 127.089 99.7476 127.351 99.3098C127.504 99.0483 127.794 98.8608 128.107 98.7698C128.238 98.73 128.329 98.622 128.306 98.5254C128.294 98.4628 128.243 98.423 128.175 98.406C128.13 98.3946 128.084 98.3946 128.033 98.406C127.578 98.531 127.152 98.8153 126.924 99.1962C126.544 99.8328 126.839 100.498 127.584 100.68C128.329 100.862 129.244 100.492 129.619 99.8613C129.846 99.4804 129.824 99.0881 129.619 98.7982V98.8039Z" fill="white"/>
<path d="M128.272 99.5315C128.391 99.56 128.539 99.5031 128.596 99.4008L129.301 98.2241C129.363 98.1218 129.312 98.0194 129.193 97.9853C129.079 97.9569 128.931 98.0137 128.869 98.1161L128.164 99.2928C128.101 99.3951 128.152 99.5031 128.266 99.5315H128.272Z" fill="white"/>
<path style="mix-blend-mode:overlay" opacity="0.6" d="M124.906 41.986L154.938 49.359L159.645 60.7794L143.677 87.5426L124.906 41.9804V41.986ZM90.702 60.967L98.5923 80.1185L119.91 85.3541L102.037 41.969L90.702 60.967Z" fill="url(#paint8_linear_66_1560)"/>
</g>
</svg>
