<svg width="60" height="60" viewBox="0 0 60 60" fill="none" xmlns="http://www.w3.org/2000/svg">
    <rect width="60" height="60" fill="white"/>
    <path d="M29.6759 7C20.6364 16.0395 15 29.2113 15 37.3241C15 45.4369 21.5631 52 29.6759 52C37.7887 52 44.3518 45.4369 44.3518 37.3241C44.3518 29.2113 38.7306 16.0547 29.6759 7Z" fill="#F06060"/>
    <g style="mix-blend-mode:multiply" opacity="0.5">
        <path d="M33.5803 41.8514C25.4828 41.8514 18.9045 35.2882 18.9045 27.1755C18.9045 25.2764 19.2235 23.0887 19.816 20.7339C16.7471 26.7653 15 32.8119 15 37.2936C15 45.3912 21.5631 51.9695 29.6759 51.9695C37.7887 51.9695 44.3518 45.4064 44.3518 37.2936C44.3518 37.2329 44.3518 37.1721 44.3518 37.1113C41.6779 40.0131 37.8494 41.8362 33.5803 41.8362V41.8514Z" fill="#F06060"/>
    </g>
    <path opacity="0.2" d="M37.3481 20.8554C35.1908 16.799 32.1219 14.2011 30.4963 15.0519C28.8707 15.9026 29.2961 19.9134 31.4534 23.9698C33.6108 28.0414 36.6796 30.6241 38.29 29.7733C39.9156 28.9074 39.4902 24.9118 37.3329 20.8554H37.3481Z" fill="white"/>
    <path opacity="0.2" d="M30.9825 29.044C30.9825 30.1378 30.1013 31.019 29.0075 31.019C27.9136 31.019 27.0324 30.1378 27.0324 29.044C27.0324 27.9501 27.9136 27.069 29.0075 27.069C30.1013 27.069 30.9825 27.9501 30.9825 29.044Z" fill="white"/>
    <path opacity="0.2" d="M35.5858 32.3559C35.5858 33.0092 35.054 33.5409 34.4008 33.5409C33.7475 33.5409 33.2158 33.0092 33.2158 32.3559C33.2158 31.7026 33.7475 31.1709 34.4008 31.1709C35.054 31.1709 35.5858 31.7026 35.5858 32.3559Z" fill="white"/>
    <circle cx="41.5" cy="42.5" r="9.5" fill="#FF6464" stroke="white" stroke-width="2"/>
    <path d="M38.0625 48.1641C38.3828 48.1641 38.5781 48.0469 38.8047 47.6953L42.2812 42.5547L45.5391 37.7734C45.6562 37.5938 45.7188 37.4297 45.7188 37.2422C45.7188 36.8438 45.3984 36.5547 44.9844 36.5547C44.6172 36.5547 44.4297 36.6797 44.1875 37.0391L40.8359 42.0078L37.4688 46.9375C37.3516 47.1094 37.2891 47.2578 37.2891 47.4844C37.2891 47.9062 37.6562 48.1641 38.0625 48.1641ZM37.4375 42.6406C39 42.6406 39.9844 41.4844 39.9844 39.5938C39.9844 37.6797 38.9922 36.5703 37.4375 36.5703C35.875 36.5703 34.8828 37.6875 34.8828 39.5938C34.8828 41.4922 35.8672 42.6406 37.4375 42.6406ZM37.4375 41.375C36.8906 41.375 36.5547 40.8125 36.5547 39.5938C36.5547 38.375 36.8984 37.8359 37.4375 37.8359C37.9766 37.8359 38.3125 38.375 38.3125 39.5938C38.3125 40.8125 37.9766 41.375 37.4375 41.375ZM45.5938 48.1562C47.1641 48.1562 48.1484 47 48.1484 45.1016C48.1484 43.1875 47.1484 42.0781 45.5938 42.0781C44.0391 42.0781 43.0391 43.1953 43.0391 45.1016C43.0391 47.0078 44.0234 48.1562 45.5938 48.1562ZM45.5938 46.8906C45.0547 46.8906 44.7109 46.3203 44.7109 45.1094C44.7109 43.8828 45.0547 43.3438 45.5938 43.3438C46.1328 43.3438 46.4766 43.8828 46.4766 45.1016C46.4766 46.3203 46.1328 46.8906 45.5938 46.8906Z" fill="white"/>
</svg>
