<svg width="60" height="60" viewBox="0 0 60 60" fill="none" xmlns="http://www.w3.org/2000/svg">
    <rect width="60" height="60" fill="white"/>
    <path d="M24.7897 17.9739L10.1336 17.9739C6.74485 17.9739 4 20.7211 4 24.1074L4 44.1105C4 51.5463 10.0271 57.5733 17.4628 57.5733C24.8986 57.5733 30.9257 51.5463 30.9257 44.1105L30.9257 24.1074C30.9257 20.7187 28.1784 17.9739 24.7921 17.9739H24.7897Z" fill="white"/>
    <path d="M24.7897 17.9739L10.1336 17.9739C6.74485 17.9739 4 20.7211 4 24.1074L4 44.1105C4 51.5463 10.0271 57.5733 17.4628 57.5733C24.8986 57.5733 30.9257 51.5463 30.9257 44.1105L30.9257 24.1074C30.9257 20.7187 28.1784 17.9739 24.7921 17.9739H24.7897Z" fill="white"/>
    <path d="M17.4604 55.5788C20.6167 55.5788 23.4802 54.296 25.557 52.224C25.2108 48.0535 21.7205 44.7786 17.4604 44.7786C13.2003 44.7786 9.70993 48.0559 9.3638 52.224C11.4406 54.296 14.304 55.5788 17.4604 55.5788Z" fill="#4FBE1B"/>
    <g style="mix-blend-mode:multiply" opacity="0.3">
        <path d="M17.078 44.7882L17.078 55.5692C17.2063 55.574 17.3321 55.5788 17.4604 55.5788C17.5887 55.5788 17.717 55.574 17.8429 55.5692L17.8429 44.7882C17.7146 44.7834 17.5887 44.7786 17.4604 44.7786C17.3321 44.7786 17.2038 44.781 17.078 44.7882Z" fill="#4FBE1B"/>
    </g>
    <g opacity="0.3">
        <g style="mix-blend-mode:multiply">
            <path d="M11.7311 50.1811L15.2214 51.8561L15.2214 50.1811L15.2214 48.5037L11.7311 50.1811Z" fill="#4FBE1B"/>
        </g>
        <g style="mix-blend-mode:multiply">
            <path d="M23.1922 50.1811L19.7018 48.5037L19.7018 50.1811L19.7018 51.8561L23.1922 50.1811Z" fill="#4FBE1B"/>
        </g>
    </g>
    <path d="M17.4604 55.8814C10.9687 55.8814 5.68954 50.5999 5.68954 44.1105L5.68954 24.1075C5.68954 21.6579 7.68161 19.6635 10.1336 19.6635L24.7897 19.6635C27.2393 19.6635 29.2338 21.6555 29.2338 24.1075L29.2338 44.1105C29.2338 50.6023 23.9522 55.8814 17.4629 55.8814H17.4604ZM10.1312 20.2686C8.01564 20.2686 6.29225 21.9896 6.29225 24.1075L6.29225 44.1105C6.29225 50.2683 11.3027 55.2763 17.458 55.2763C23.6134 55.2763 28.6238 50.2683 28.6238 44.1105L28.6238 24.1075C28.6238 21.992 26.9028 20.2686 24.7849 20.2686L10.1287 20.2686H10.1312Z" fill="#4FBE1B"/>
    <path d="M25.5639 23.9791L9.35691 23.9791C8.80463 23.9791 8.35691 24.4268 8.35691 24.9791L8.35691 34.0384C8.35691 34.5907 8.80463 35.0384 9.35691 35.0384L25.5639 35.0384C26.1162 35.0384 26.5639 34.5907 26.5639 34.0384L26.5639 24.9791C26.5639 24.4268 26.1162 23.9791 25.5639 23.9791Z" fill="#7A7A7A"/>
    <path d="M14.3331 38.7055C14.3331 39.5841 13.6191 40.2982 12.7404 40.2982L9.85521 40.2982C8.97657 40.2982 8.26252 39.5841 8.26252 38.7055C8.26252 37.8268 8.97657 37.1128 9.85521 37.1128L12.7404 37.1128C13.6191 37.1128 14.3331 37.8268 14.3331 38.7055Z" fill="#4FBE1B"/>
    <path d="M26.6608 38.7055C26.6608 39.5841 25.9468 40.2982 25.0681 40.2982L22.1829 40.2982C21.3042 40.2982 20.5902 39.5841 20.5902 38.7055C20.5902 37.8268 21.3042 37.1128 22.1829 37.1128L25.0681 37.1128C25.9468 37.1128 26.6608 37.8268 26.6608 38.7055Z" fill="#4FBE1B"/>
    <path d="M18.9466 38.7054C18.9466 39.526 18.2809 40.1916 17.4604 40.1916C16.6398 40.1916 15.9766 39.526 15.9766 38.7054C15.9766 37.8849 16.6423 37.2217 17.4604 37.2217C18.2785 37.2217 18.9466 37.8873 18.9466 38.7054Z" fill="#4FBE1B"/>
    <path d="M17.4507 38.8774C17.3878 38.8774 17.3345 38.8265 17.3345 38.7612V37.8971C17.3345 37.8341 17.3854 37.7809 17.4507 37.7809C17.5161 37.7809 17.5669 37.8317 17.5669 37.8971V38.7612C17.5669 38.8241 17.5161 38.8774 17.4507 38.8774Z" fill="white"/>
    <path d="M17.4604 39.6302C17.0296 39.6302 16.6786 39.2792 16.6786 38.8483C16.6786 38.57 16.8311 38.3086 17.0756 38.1706C17.1312 38.1391 17.2014 38.1585 17.2329 38.2142C17.2644 38.2698 17.245 38.34 17.1893 38.3715C17.0175 38.4707 16.9086 38.6523 16.9086 38.8483C16.9086 39.1533 17.1554 39.4002 17.4604 39.4002C17.7654 39.4002 18.0123 39.1533 18.0123 38.8483C18.0123 38.6523 17.9058 38.4707 17.7315 38.3715C17.6759 38.34 17.6565 38.2698 17.688 38.2142C17.7194 38.1585 17.7896 38.1391 17.8453 38.1706C18.0898 38.3086 18.2423 38.57 18.2423 38.8483C18.2423 39.2792 17.8913 39.6302 17.4604 39.6302Z" fill="white"/>
    <g style="mix-blend-mode:multiply" opacity="0.3">
        <path d="M12.3628 39.4659C12.2853 39.4659 12.2055 39.4368 12.1474 39.3763L11.2978 38.5267L10.4482 39.3763C10.3272 39.4973 10.1335 39.4973 10.0149 39.3763C9.89389 39.2553 9.89389 39.0616 10.0149 38.943L11.0824 37.878C11.201 37.7594 11.397 37.7594 11.5156 37.878L12.5831 38.9455C12.7017 39.0641 12.7017 39.2601 12.5831 39.3787C12.5226 39.4392 12.4451 39.4683 12.3652 39.4683L12.3628 39.4659Z" fill="#4FBE1B"/>
        <path d="M22.558 37.7856C22.6354 37.7856 22.7153 37.8147 22.7758 37.8752L23.6254 38.7248L24.475 37.8752C24.5961 37.7566 24.7897 37.7566 24.9083 37.8752C25.0293 37.9938 25.0293 38.1899 24.9083 38.3085L23.8433 39.3759C23.7222 39.4969 23.5286 39.4969 23.41 39.3759L22.3426 38.3085C22.224 38.1874 22.224 37.9938 22.3426 37.8752C22.4031 37.8147 22.4805 37.7856 22.5604 37.7856H22.558Z" fill="#4FBE1B"/>
    </g>
    <path d="M20.8152 18.6589C20.8152 18.8186 20.6845 18.9493 20.5248 18.9493L14.3961 18.9493C14.2363 18.9493 14.1056 18.8186 14.1056 18.6589C14.1056 18.4991 14.2363 18.3684 14.3961 18.3684L20.5248 18.3684C20.6845 18.3684 20.8152 18.4991 20.8152 18.6589Z" fill="#7A7A7A"/>
    <path d="M19.5904 5L15.3303 5L15.3303 18.6565L19.5904 18.6565L19.5904 5Z" fill="#4FBE1B"/>
    <g style="mix-blend-mode:multiply" opacity="0.3">
        <path d="M19.5904 18.6589L15.3303 18.6589L15.3303 10.0007L19.5904 14.3286L19.5904 18.6589Z" fill="#4FBE1B"/>
    </g>
    <path d="M18.9781 5.50586L15.9427 5.50586L15.9427 8.35237L18.9781 8.35237L18.9781 5.50586Z" fill="#E6E6E6"/>
    <path d="M13.723 31.6629C13.348 31.6629 13.0103 31.5883 12.7099 31.4391C12.4094 31.29 12.1687 31.0854 11.9876 30.8255C11.8065 30.5656 11.7074 30.2694 11.6903 29.937L12.4574 29.937C12.4872 30.2332 12.6215 30.4782 12.8601 30.6721C13.1009 30.8638 13.3885 30.9597 13.723 30.9597C13.9915 30.9597 14.2301 30.8969 14.4389 30.7712C14.6499 30.6455 14.815 30.4729 14.9343 30.2534C15.0558 30.0318 15.1165 29.7815 15.1165 29.5023C15.1165 29.2168 15.0536 28.9622 14.9279 28.7385C14.8043 28.5126 14.6339 28.3347 14.4166 28.2048C14.1992 28.0748 13.951 28.0087 13.6719 28.0066C13.4716 28.0045 13.266 28.0354 13.055 28.0993C12.8441 28.1611 12.6705 28.241 12.5341 28.339L11.7926 28.2495L12.1889 25.0279L15.5895 25.0279L15.5895 25.731L12.8537 25.731L12.6236 27.6614H12.6619C12.7962 27.5549 12.9645 27.4665 13.1669 27.3962C13.3693 27.3258 13.5803 27.2907 13.7997 27.2907C14.2003 27.2907 14.5572 27.3866 14.8704 27.5783C15.1857 27.768 15.4329 28.0279 15.6119 28.3582C15.793 28.6884 15.8835 29.0656 15.8835 29.4896C15.8835 29.9072 15.7898 30.28 15.6023 30.6082C15.4169 30.9342 15.1612 31.192 14.8352 31.3816C14.5092 31.5691 14.1385 31.6629 13.723 31.6629ZM17.4696 31.6245C17.3119 31.6245 17.1766 31.568 17.0637 31.4551C16.9507 31.3422 16.8943 31.2069 16.8943 31.0492C16.8943 30.8915 16.9507 30.7562 17.0637 30.6433C17.1766 30.5304 17.3119 30.4739 17.4696 30.4739C17.6272 30.4739 17.7625 30.5304 17.8754 30.6433C17.9884 30.7562 18.0448 30.8915 18.0448 31.0492C18.0448 31.1536 18.0182 31.2495 17.9649 31.3369C17.9138 31.4242 17.8446 31.4945 17.7572 31.5478C17.672 31.5989 17.5761 31.6245 17.4696 31.6245ZM21.2992 31.6629C20.9242 31.6629 20.5865 31.5883 20.286 31.4391C19.9856 31.29 19.7449 31.0854 19.5637 30.8255C19.3826 30.5656 19.2836 30.2694 19.2665 29.937H20.0336C20.0634 30.2332 20.1976 30.4782 20.4363 30.6721C20.677 30.8638 20.9647 30.9597 21.2992 30.9597C21.5677 30.9597 21.8063 30.8969 22.0151 30.7712C22.226 30.6455 22.3912 30.4729 22.5105 30.2534C22.6319 30.0318 22.6927 29.7815 22.6927 29.5023C22.6927 29.2168 22.6298 28.9622 22.5041 28.7385C22.3805 28.5126 22.2101 28.3347 21.9927 28.2048C21.7754 28.0748 21.5272 28.0087 21.2481 28.0066C21.0478 28.0045 20.8422 28.0354 20.6312 28.0993C20.4203 28.1611 20.2466 28.241 20.1103 28.339L19.3688 28.2495L19.7651 25.0279L23.1657 25.0279L23.1657 25.731L20.4299 25.731L20.1998 27.6614H20.2381C20.3723 27.5549 20.5407 27.4665 20.7431 27.3962C20.9455 27.3258 21.1564 27.2907 21.3759 27.2907C21.7765 27.2907 22.1333 27.3866 22.4466 27.5783C22.7619 27.768 23.0091 28.0279 23.188 28.3582C23.3691 28.6884 23.4597 29.0656 23.4597 29.4896C23.4597 29.9072 23.3659 30.28 23.1784 30.6082C22.9931 30.9342 22.7374 31.192 22.4114 31.3816C22.0854 31.5691 21.7147 31.6629 21.2992 31.6629Z" fill="#373737"/>
    <path d="M15.1534 33.5734L15.1534 32.4825H15.3153V32.6529H15.3295C15.3523 32.5947 15.389 32.5495 15.4396 32.5173C15.4903 32.4846 15.5511 32.4683 15.6222 32.4683C15.6941 32.4683 15.754 32.4846 15.8019 32.5173C15.8501 32.5495 15.8878 32.5947 15.9148 32.6529H15.9261C15.9541 32.5966 15.996 32.5518 16.0519 32.5187C16.1077 32.4851 16.1747 32.4683 16.2528 32.4683C16.3504 32.4683 16.4302 32.4988 16.4922 32.5599C16.5542 32.6205 16.5852 32.7149 16.5852 32.8433V33.5734H16.4176V32.8433C16.4176 32.7628 16.3956 32.7052 16.3516 32.6707C16.3075 32.6361 16.2557 32.6188 16.196 32.6188C16.1193 32.6188 16.0599 32.642 16.0178 32.6884C15.9756 32.7343 15.9545 32.7926 15.9545 32.8631L15.9545 33.5734H15.7841L15.7841 32.8262C15.7841 32.7642 15.764 32.7142 15.7237 32.6763C15.6835 32.638 15.6316 32.6188 15.5682 32.6188C15.5246 32.6188 15.4839 32.6304 15.446 32.6536C15.4086 32.6768 15.3783 32.709 15.3551 32.7502C15.3324 32.7909 15.321 32.838 15.321 32.8915L15.321 33.5734H15.1534ZM17.332 34.0052C17.2511 34.0052 17.1815 33.9948 17.1232 33.9739C17.065 33.9536 17.0165 33.9266 16.9776 33.893C16.9393 33.8598 16.9087 33.8243 16.886 33.7864L17.0195 33.6927C17.0347 33.7126 17.0539 33.7353 17.0771 33.7609C17.1003 33.7869 17.132 33.8094 17.1722 33.8283C17.213 33.8477 17.2662 33.8575 17.332 33.8575C17.4201 33.8575 17.4928 33.8361 17.5501 33.7935C17.6074 33.7509 17.636 33.6842 17.636 33.5933V33.3717H17.6218C17.6095 33.3915 17.592 33.4162 17.5693 33.4455C17.547 33.4744 17.5148 33.5002 17.4727 33.5229C17.431 33.5452 17.3746 33.5563 17.3036 33.5563C17.2156 33.5563 17.1365 33.5355 17.0664 33.4938C16.9968 33.4522 16.9416 33.3915 16.9009 33.312C16.8607 33.2325 16.8406 33.1359 16.8406 33.0222C16.8406 32.9105 16.8602 32.8132 16.8995 32.7303C16.9388 32.647 16.9935 32.5826 17.0636 32.5371C17.1336 32.4912 17.2146 32.4683 17.3065 32.4683C17.3775 32.4683 17.4338 32.4801 17.4755 32.5038C17.5176 32.527 17.5498 32.5535 17.5721 32.5833C17.5948 32.6127 17.6123 32.6368 17.6246 32.6558H17.6417V32.4825H17.8036L17.8036 33.6046C17.8036 33.6984 17.7823 33.7746 17.7397 33.8333C17.6976 33.8925 17.6407 33.9358 17.5693 33.9633C17.4982 33.9912 17.4192 34.0052 17.332 34.0052ZM17.3264 33.4058C17.3936 33.4058 17.4504 33.3904 17.4968 33.3596C17.5432 33.3288 17.5785 33.2845 17.6026 33.2268C17.6268 33.169 17.6389 33.0999 17.6389 33.0194C17.6389 32.9408 17.627 32.8714 17.6033 32.8113C17.5797 32.7512 17.5446 32.704 17.4982 32.67C17.4518 32.6359 17.3945 32.6188 17.3264 32.6188C17.2553 32.6188 17.1961 32.6368 17.1488 32.6728C17.1019 32.7088 17.0666 32.7571 17.043 32.8177C17.0198 32.8783 17.0082 32.9455 17.0082 33.0194C17.0082 33.0951 17.02 33.1621 17.0437 33.2204C17.0678 33.2781 17.1033 33.3236 17.1502 33.3567C17.1976 33.3894 17.2563 33.4058 17.3264 33.4058ZM18.6246 32.0506L18.1559 33.7921H18.0025L18.4712 32.0506H18.6246ZM19.2353 33.5961C19.1444 33.5961 19.0641 33.5731 18.9945 33.5272C18.9249 33.4808 18.8704 33.4155 18.8311 33.3312C18.7918 33.2464 18.7722 33.1463 18.7722 33.0308C18.7722 32.9162 18.7918 32.8167 18.8311 32.7325C18.8704 32.6482 18.9251 32.5831 18.9952 32.5371C19.0653 32.4912 19.1463 32.4683 19.2381 32.4683C19.3091 32.4683 19.3652 32.4801 19.4064 32.5038C19.4481 32.527 19.4798 32.5535 19.5016 32.5833C19.5239 32.6127 19.5411 32.6368 19.5534 32.6558H19.5677V32.1188H19.7353L19.7353 33.5734H19.5733V33.4058H19.5534C19.5411 33.4256 19.5236 33.4507 19.5009 33.481C19.4782 33.5109 19.4457 33.5376 19.4036 33.5613C19.3615 33.5845 19.3053 33.5961 19.2353 33.5961ZM19.258 33.4455C19.3252 33.4455 19.382 33.428 19.4284 33.393C19.4748 33.3575 19.5101 33.3084 19.5343 33.2459C19.5584 33.183 19.5705 33.1103 19.5705 33.0279C19.5705 32.9465 19.5587 32.8752 19.535 32.8141C19.5113 32.7526 19.4763 32.7048 19.4299 32.6707C19.3835 32.6361 19.3262 32.6188 19.258 32.6188C19.187 32.6188 19.1278 32.637 19.0804 32.6735C19.0336 32.7095 18.9983 32.7585 18.9746 32.8205C18.9514 32.8821 18.9398 32.9512 18.9398 33.0279C18.9398 33.1056 18.9516 33.1761 18.9753 33.2396C18.9995 33.3025 19.035 33.3527 19.0819 33.3901C19.1292 33.4271 19.1879 33.4455 19.258 33.4455ZM20.2331 32.1188L20.2331 33.5734H20.0655L20.0655 32.1188H20.2331Z" fill="#373737"/>
    <path d="M36.136 42.5995L50.7921 42.5995C54.1808 42.5995 56.9257 39.8522 56.9257 36.4659L56.9257 16.4629C56.9257 9.02711 50.8986 3.00005 43.4628 3.00004C36.0271 3.00004 30 9.0271 30 16.4629L30 36.4659C30 39.8546 32.7473 42.5995 36.1336 42.5995L36.136 42.5995Z" fill="white"/>
    <path d="M36.136 42.5995L50.7921 42.5995C54.1808 42.5995 56.9257 39.8522 56.9257 36.4659L56.9257 16.4629C56.9257 9.02711 50.8986 3.00005 43.4628 3.00004C36.0271 3.00004 30 9.0271 30 16.4629L30 36.4659C30 39.8546 32.7473 42.5995 36.1336 42.5995L36.136 42.5995Z" fill="white"/>
    <path d="M43.4653 4.99451C40.309 4.99451 37.4455 6.27738 35.3687 8.34933C35.7149 12.5199 39.2052 15.7948 43.4653 15.7948C47.7254 15.7948 51.2158 12.5174 51.5619 8.34933C49.4851 6.27738 46.6216 4.99451 43.4653 4.99451Z" fill="#3CBDFF"/>
    <g style="mix-blend-mode:multiply" opacity="0.3">
        <path d="M43.8477 15.7851L43.8477 5.00419C43.7194 4.99935 43.5935 4.99451 43.4653 4.99451C43.337 4.99451 43.2087 4.99935 43.0828 5.00419L43.0828 15.7851C43.2111 15.79 43.337 15.7948 43.4653 15.7948C43.5935 15.7948 43.7218 15.7924 43.8477 15.7851Z" fill="#3CBDFF"/>
    </g>
    <g opacity="0.3">
        <g style="mix-blend-mode:multiply">
            <path d="M49.1946 10.3922L45.7042 8.71719L45.7042 10.3922L45.7042 12.0696L49.1946 10.3922Z" fill="#2181B3"/>
        </g>
        <g style="mix-blend-mode:multiply">
            <path d="M37.7335 10.3922L41.2238 12.0696L41.2238 10.3922L41.2238 8.71719L37.7335 10.3922Z" fill="#2181B3"/>
        </g>
    </g>
    <path d="M43.4652 4.69192C49.957 4.69192 55.2361 9.97346 55.2361 16.4628L55.2361 36.4659C55.2361 38.9154 53.2441 40.9099 50.7921 40.9099L36.136 40.9099C33.6864 40.9099 31.6919 38.9178 31.6919 36.4659L31.6919 16.4628C31.6919 9.97103 36.9734 4.69192 43.4628 4.69192L43.4652 4.69192ZM50.7945 40.3048C52.91 40.3048 54.6334 38.5838 54.6334 36.4659L54.6334 16.4628C54.6334 10.3051 49.623 5.29704 43.4677 5.29704C37.3123 5.29704 32.3019 10.3051 32.3019 16.4628L32.3019 36.4659C32.3019 38.5814 34.0229 40.3048 36.1408 40.3048L50.7969 40.3048L50.7945 40.3048Z" fill="#3CBDFF"/>
    <path d="M35.3617 36.5942L51.5688 36.5942C52.1211 36.5942 52.5688 36.1465 52.5688 35.5942L52.5688 26.535C52.5688 25.9827 52.1211 25.535 51.5688 25.535L35.3617 25.535C34.8095 25.535 34.3617 25.9827 34.3617 26.535L34.3617 35.5942C34.3617 36.1465 34.8095 36.5942 35.3617 36.5942Z" fill="#7A7A7A"/>
    <path d="M46.5925 21.8678C46.5925 20.9891 47.3066 20.2751 48.1852 20.2751L51.0705 20.2751C51.9491 20.2751 52.6632 20.9891 52.6632 21.8678C52.6632 22.7464 51.9491 23.4604 51.0705 23.4604L48.1852 23.4604C47.3066 23.4604 46.5925 22.7464 46.5925 21.8678Z" fill="#3CBDFF"/>
    <path d="M34.2649 21.8678C34.2649 20.9891 34.9789 20.2751 35.8576 20.2751L38.7428 20.2751C39.6215 20.2751 40.3355 20.9891 40.3355 21.8678C40.3355 22.7464 39.6215 23.4604 38.7428 23.4604L35.8576 23.4604C34.9789 23.4604 34.2649 22.7464 34.2649 21.8678Z" fill="#3CBDFF"/>
    <path d="M41.9791 21.8678C41.9791 21.0472 42.6447 20.3816 43.4653 20.3816C44.2858 20.3816 44.9491 21.0472 44.9491 21.8678C44.9491 22.6883 44.2834 23.3516 43.4653 23.3516C42.6472 23.3516 41.9791 22.6859 41.9791 21.8678Z" fill="#3CBDFF"/>
    <path d="M43.4556 22.0397C43.3927 22.0397 43.3394 21.9889 43.3394 21.9235V21.0594C43.3394 20.9965 43.3902 20.9432 43.4556 20.9432C43.5209 20.9432 43.5718 20.9941 43.5718 21.0594V21.9235C43.5718 21.9865 43.5209 22.0397 43.4556 22.0397Z" fill="white"/>
    <path d="M43.4653 22.7925C43.0344 22.7925 42.6835 22.4415 42.6835 22.0107C42.6835 21.7323 42.836 21.4709 43.0804 21.3329C43.1361 21.3015 43.2063 21.3208 43.2378 21.3765C43.2692 21.4322 43.2499 21.5024 43.1942 21.5338C43.0223 21.6331 42.9134 21.8146 42.9134 22.0107C42.9134 22.3157 43.1603 22.5626 43.4653 22.5626C43.7703 22.5626 44.0172 22.3157 44.0172 22.0107C44.0172 21.8146 43.9107 21.6331 43.7364 21.5338C43.6807 21.5024 43.6613 21.4322 43.6928 21.3765C43.7243 21.3208 43.7945 21.3015 43.8501 21.3329C44.0946 21.4709 44.2471 21.7323 44.2471 22.0107C44.2471 22.4415 43.8961 22.7925 43.4653 22.7925Z" fill="white"/>
    <g style="mix-blend-mode:multiply" opacity="0.3">
        <path d="M48.5629 21.1075C48.6403 21.1075 48.7202 21.1365 48.7783 21.1971L49.6279 22.0467L50.4775 21.1971C50.5985 21.076 50.7922 21.076 50.9108 21.1971C51.0318 21.3181 51.0318 21.5117 50.9108 21.6303L49.8433 22.6953C49.7247 22.814 49.5287 22.814 49.4101 22.6953L48.3426 21.6279C48.224 21.5093 48.224 21.3132 48.3426 21.1946C48.4031 21.1341 48.4806 21.1051 48.5605 21.1051L48.5629 21.1075Z" fill="#277EAB"/>
        <path d="M38.3677 22.7877C38.2902 22.7877 38.2104 22.7587 38.1499 22.6982L37.3003 21.8486L36.4507 22.6982C36.3296 22.8168 36.136 22.8168 36.0174 22.6982C35.8964 22.5796 35.8964 22.3835 36.0174 22.2649L37.0824 21.1974C37.2034 21.0764 37.3971 21.0764 37.5157 21.1974L38.5831 22.2649C38.7017 22.3859 38.7017 22.5796 38.5831 22.6982C38.5226 22.7587 38.4452 22.7877 38.3653 22.7877L38.3677 22.7877Z" fill="#277EAB"/>
    </g>
    <path d="M40.1104 41.9145C40.1104 41.7547 40.2411 41.624 40.4009 41.624L46.5296 41.624C46.6894 41.624 46.8201 41.7547 46.8201 41.9145C46.8201 42.0742 46.6894 42.205 46.5296 42.205L40.4009 42.205C40.2411 42.205 40.1104 42.0742 40.1104 41.9145Z" fill="#7A7A7A"/>
    <path d="M41.3353 55.5734L45.5953 55.5734L45.5953 41.9169L41.3353 41.9169L41.3353 55.5734Z" fill="#3CBDFF"/>
    <g style="mix-blend-mode:multiply" opacity="0.3">
        <path d="M41.3353 41.9145L45.5953 41.9145L45.5953 50.5726L41.3353 46.2448L41.3353 41.9145Z" fill="#3CBDFF"/>
    </g>
    <path d="M41.9476 55.0675L44.9829 55.0675L44.9829 52.221L41.9476 52.221L41.9476 55.0675Z" fill="#E6E6E6"/>
    <path d="M38.9627 33L41.8902 27.2088L41.8902 27.1577L38.5152 27.1577L38.5152 26.4545L42.7084 26.4545L42.7084 27.196L39.7936 33L38.9627 33ZM43.3372 33.0511C43.1796 33.0511 43.0443 32.9947 42.9313 32.8817C42.8184 32.7688 42.7619 32.6335 42.7619 32.4759C42.7619 32.3182 42.8184 32.1829 42.9313 32.07C43.0443 31.957 43.1796 31.9006 43.3372 31.9006C43.4949 31.9006 43.6302 31.957 43.7431 32.07C43.856 32.1829 43.9125 32.3182 43.9125 32.4759C43.9125 32.5803 43.8859 32.6761 43.8326 32.7635C43.7815 32.8509 43.7122 32.9212 43.6249 32.9744C43.5396 33.0256 43.4438 33.0511 43.3372 33.0511ZM47.1669 33.0895C46.7919 33.0895 46.4541 33.0149 46.1537 32.8658C45.8533 32.7166 45.6125 32.5121 45.4314 32.2521C45.2503 31.9922 45.1512 31.696 45.1342 31.3636L45.9012 31.3636C45.9311 31.6598 46.0653 31.9048 46.3039 32.0987C46.5447 32.2905 46.8323 32.3864 47.1669 32.3864C47.4353 32.3864 47.674 32.3235 47.8828 32.1978C48.0937 32.0721 48.2588 31.8995 48.3782 31.68C48.4996 31.4585 48.5603 31.2081 48.5603 30.929C48.5603 30.6435 48.4975 30.3889 48.3718 30.1651C48.2482 29.9393 48.0777 29.7614 47.8604 29.6314C47.6431 29.5014 47.3948 29.4354 47.1157 29.4332C46.9154 29.4311 46.7098 29.462 46.4989 29.5259C46.288 29.5877 46.1143 29.6676 45.9779 29.7656L45.2365 29.6761L45.6328 26.4545L49.0333 26.4545L49.0333 27.1577L46.2975 27.1577L46.0674 29.0881L46.1058 29.0881C46.24 28.9815 46.4083 28.8931 46.6108 28.8228C46.8132 28.7525 47.0241 28.7173 47.2436 28.7173C47.6441 28.7173 48.001 28.8132 48.3142 29.005C48.6296 29.1946 48.8767 29.4545 49.0557 29.7848C49.2368 30.1151 49.3274 30.4922 49.3274 30.9162C49.3274 31.3338 49.2336 31.7067 49.0461 32.0348C48.8607 32.3608 48.6051 32.6186 48.2791 32.8082C47.9531 32.9957 47.5823 33.0895 47.1669 33.0895Z" fill="#373737"/>
    <path d="M41.1534 36L41.1534 34.9091L41.3153 34.9091L41.3153 35.0795L41.3295 35.0795C41.3523 35.0213 41.389 34.9761 41.4396 34.9439C41.4903 34.9112 41.5511 34.8949 41.6222 34.8949C41.6941 34.8949 41.754 34.9112 41.8018 34.9439C41.8501 34.9761 41.8878 35.0213 41.9148 35.0795L41.9261 35.0795C41.9541 35.0232 41.996 34.9785 42.0518 34.9453C42.1077 34.9117 42.1747 34.8949 42.2528 34.8949C42.3504 34.8949 42.4302 34.9254 42.4922 34.9865C42.5542 35.0471 42.5852 35.1416 42.5852 35.2699L42.5852 36L42.4176 36L42.4176 35.2699C42.4176 35.1894 42.3956 35.1319 42.3516 35.0973C42.3075 35.0627 42.2557 35.0455 42.196 35.0455C42.1193 35.0455 42.0599 35.0687 42.0178 35.1151C41.9756 35.161 41.9545 35.2192 41.9545 35.2898L41.9545 36L41.7841 36L41.7841 35.2528C41.7841 35.1908 41.764 35.1409 41.7237 35.103C41.6835 35.0646 41.6316 35.0455 41.5682 35.0455C41.5246 35.0455 41.4839 35.0571 41.446 35.0803C41.4086 35.1035 41.3783 35.1357 41.3551 35.1768C41.3324 35.2176 41.321 35.2647 41.321 35.3182L41.321 36L41.1534 36ZM43.332 36.4318C43.2511 36.4318 43.1815 36.4214 43.1232 36.4006C43.065 36.3802 43.0165 36.3532 42.9776 36.3196C42.9393 36.2865 42.9087 36.2509 42.886 36.2131L43.0195 36.1193C43.0347 36.1392 43.0539 36.1619 43.0771 36.1875C43.1003 36.2135 43.132 36.236 43.1722 36.255C43.2129 36.2744 43.2662 36.2841 43.332 36.2841C43.4201 36.2841 43.4928 36.2628 43.5501 36.2202C43.6074 36.1776 43.636 36.1108 43.636 36.0199L43.636 35.7983L43.6218 35.7983C43.6095 35.8182 43.592 35.8428 43.5692 35.8722C43.547 35.901 43.5148 35.9268 43.4727 35.9496C43.431 35.9718 43.3746 35.983 43.3036 35.983C43.2156 35.983 43.1365 35.9621 43.0664 35.9205C42.9968 35.8788 42.9416 35.8182 42.9009 35.7386C42.8607 35.6591 42.8406 35.5625 42.8406 35.4489C42.8406 35.3371 42.8602 35.2398 42.8995 35.157C42.9388 35.0736 42.9935 35.0092 43.0636 34.9638C43.1336 34.9179 43.2146 34.8949 43.3065 34.8949C43.3775 34.8949 43.4338 34.9067 43.4755 34.9304C43.5176 34.9536 43.5498 34.9801 43.5721 35.0099C43.5948 35.0393 43.6123 35.0634 43.6246 35.0824L43.6417 35.0824L43.6417 34.9091L43.8036 34.9091L43.8036 36.0313C43.8036 36.125 43.7823 36.2012 43.7397 36.2599C43.6976 36.3191 43.6407 36.3625 43.5692 36.3899C43.4982 36.4179 43.4192 36.4318 43.332 36.4318ZM43.3263 35.8324C43.3936 35.8324 43.4504 35.817 43.4968 35.7862C43.5432 35.7554 43.5785 35.7112 43.6026 35.6534C43.6268 35.5956 43.6388 35.5265 43.6388 35.446C43.6388 35.3674 43.627 35.2981 43.6033 35.2379C43.5797 35.1778 43.5446 35.1307 43.4982 35.0966C43.4518 35.0625 43.3945 35.0455 43.3263 35.0455C43.2553 35.0455 43.1961 35.0634 43.1488 35.0994C43.1019 35.1354 43.0666 35.1837 43.043 35.2443C43.0198 35.3049 43.0082 35.3722 43.0082 35.446C43.0082 35.5218 43.02 35.5888 43.0437 35.647C43.0678 35.7048 43.1033 35.7502 43.1502 35.7834C43.1976 35.8161 43.2563 35.8324 43.3263 35.8324ZM44.6246 34.4773L44.1559 36.2188L44.0025 36.2188L44.4712 34.4773L44.6246 34.4773ZM45.2353 36.0227C45.1444 36.0227 45.0641 35.9998 44.9945 35.9538C44.9249 35.9074 44.8704 35.8421 44.8311 35.7578C44.7918 35.6731 44.7722 35.5729 44.7722 35.4574C44.7722 35.3428 44.7918 35.2434 44.8311 35.1591C44.8704 35.0748 44.9251 35.0097 44.9952 34.9638C45.0653 34.9179 45.1462 34.8949 45.2381 34.8949C45.3091 34.8949 45.3652 34.9067 45.4064 34.9304C45.4481 34.9536 45.4798 34.9801 45.5016 35.0099C45.5239 35.0393 45.5411 35.0634 45.5534 35.0824L45.5676 35.0824L45.5676 34.5455L45.7353 34.5455L45.7353 36L45.5733 36L45.5733 35.8324L45.5534 35.8324C45.5411 35.8523 45.5236 35.8774 45.5009 35.9077C45.4782 35.9375 45.4457 35.9643 45.4036 35.9879C45.3614 36.0111 45.3053 36.0227 45.2353 36.0227ZM45.258 35.8722C45.3252 35.8722 45.382 35.8546 45.4284 35.8196C45.4748 35.7841 45.5101 35.7351 45.5343 35.6726C45.5584 35.6096 45.5705 35.5369 45.5705 35.4545C45.5705 35.3731 45.5587 35.3018 45.535 35.2408C45.5113 35.1792 45.4763 35.1314 45.4299 35.0973C45.3835 35.0627 45.3262 35.0455 45.258 35.0455C45.187 35.0455 45.1278 35.0637 45.0804 35.1001C45.0336 35.1361 44.9983 35.1851 44.9746 35.2472C44.9514 35.3087 44.9398 35.3778 44.9398 35.4545C44.9398 35.5322 44.9516 35.6027 44.9753 35.6662C44.9995 35.7292 45.035 35.7794 45.0819 35.8168C45.1292 35.8537 45.1879 35.8722 45.258 35.8722ZM46.2331 34.5455L46.2331 36L46.0655 36L46.0655 34.5455L46.2331 34.5455Z" fill="#373737"/>
</svg>
