<svg width="60" height="60" viewBox="0 0 60 60" fill="none" xmlns="http://www.w3.org/2000/svg">
    <rect width="60" height="60" fill="white"/>
    <path d="M40.5994 38.7897L40.5994 24.1336C40.5994 20.7449 37.8522 18 34.4659 18L14.4628 18C7.02706 18 1 24.0271 1 31.4628C0.999999 38.8986 7.02706 44.9257 14.4628 44.9257L34.4659 44.9257C37.8546 44.9257 40.5994 42.1784 40.5994 38.7921L40.5994 38.7897Z" fill="white"/>
    <path d="M40.5994 38.7897L40.5994 24.1336C40.5994 20.7449 37.8522 18 34.4659 18L14.4628 18C7.02706 18 1 24.0271 1 31.4628C0.999999 38.8986 7.02706 44.9257 14.4628 44.9257L34.4659 44.9257C37.8546 44.9257 40.5994 42.1784 40.5994 38.7921L40.5994 38.7897Z" fill="white"/>
    <path d="M2.99449 31.4604C2.99449 34.6167 4.27735 37.4801 6.34931 39.5569C10.5198 39.2108 13.7948 35.7204 13.7948 31.4604C13.7948 27.2003 10.5174 23.7099 6.34931 23.3638C4.27735 25.4406 2.99449 28.304 2.99449 31.4604V31.4604Z" fill="#1F698F"/>
    <g style="mix-blend-mode:multiply" opacity="0.3">
        <path d="M13.7851 31.078L3.00417 31.078C2.99933 31.2063 2.99449 31.3322 2.99449 31.4604C2.99449 31.5887 2.99933 31.717 3.00417 31.8429L13.7851 31.8429C13.7899 31.7146 13.7948 31.5887 13.7948 31.4604C13.7948 31.3322 13.7924 31.2039 13.7851 31.078Z" fill="#1F698F"/>
    </g>
    <g opacity="0.3">
        <g style="mix-blend-mode:multiply">
            <path d="M8.39222 25.7311L6.71724 29.2214L8.39222 29.2214L10.0696 29.2214L8.39222 25.7311Z" fill="#1F698F"/>
        </g>
        <g style="mix-blend-mode:multiply">
            <path d="M8.39219 37.1922L10.0696 33.7018L8.39219 33.7018L6.71721 33.7018L8.39219 37.1922Z" fill="#1F698F"/>
        </g>
    </g>
    <path d="M2.69193 31.4604C2.69194 24.9686 7.97348 19.6895 14.4628 19.6895L34.4659 19.6895C36.9154 19.6895 38.9099 21.6816 38.9099 24.1336L38.9099 38.7897C38.9099 41.2393 36.9179 43.2338 34.4659 43.2338L14.4628 43.2338C7.97105 43.2338 2.69193 37.9522 2.69193 31.4628L2.69193 31.4604ZM38.3048 24.1311C38.3048 22.0156 36.5838 20.2922 34.4659 20.2922L14.4628 20.2922C8.30508 20.2922 3.29706 25.3027 3.29706 31.458C3.29706 37.6133 8.30508 42.6238 14.4628 42.6238L34.4659 42.6238C36.5814 42.6238 38.3048 40.9028 38.3048 38.7849L38.3048 24.1287L38.3048 24.1311Z" fill="#1F698F"/>
    <path d="M34.5942 40.564L34.5942 22.3569L23.5349 22.3569L23.5349 40.564L34.5942 40.564Z" fill="#7A7A7A"/>
    <path d="M19.8678 28.3331C18.9892 28.3331 18.2751 27.6191 18.2751 26.7404L18.2751 23.8552C18.2751 22.9766 18.9892 22.2625 19.8678 22.2625C20.7464 22.2625 21.4605 22.9766 21.4605 23.8552L21.4605 26.7404C21.4605 27.6191 20.7464 28.3331 19.8678 28.3331Z" fill="#1F698F"/>
    <path d="M19.8678 40.6608C18.9892 40.6608 18.2751 39.9467 18.2751 39.0681L18.2751 36.1828C18.2751 35.3042 18.9892 34.5901 19.8678 34.5901C20.7464 34.5901 21.4605 35.3042 21.4605 36.1828L21.4605 39.0681C21.4605 39.9467 20.7464 40.6608 19.8678 40.6608Z" fill="#1F698F"/>
    <path d="M19.8678 32.9466C19.0473 32.9466 18.3817 32.2809 18.3817 31.4604C18.3817 30.6398 19.0473 29.9766 19.8678 29.9766C20.6884 29.9766 21.3516 30.6423 21.3516 31.4604C21.3516 32.2785 20.686 32.9466 19.8678 32.9466V32.9466Z" fill="#1F698F"/>
    <path d="M19.696 31.4507C19.696 31.3878 19.7468 31.3345 19.8122 31.3345L20.6763 31.3345C20.7392 31.3345 20.7925 31.3854 20.7925 31.4507C20.7925 31.5161 20.7416 31.5669 20.6763 31.5669L19.8122 31.5669C19.7492 31.5669 19.696 31.5161 19.696 31.4507Z" fill="white"/>
    <path d="M18.9432 31.4604C18.9432 31.0296 19.2942 30.6786 19.725 30.6786C20.0034 30.6786 20.2648 30.8311 20.4028 31.0756C20.4342 31.1312 20.4149 31.2014 20.3592 31.2329C20.3035 31.2643 20.2333 31.245 20.2019 31.1893C20.1026 31.0175 19.9211 30.9085 19.725 30.9085C19.42 30.9085 19.1731 31.1554 19.1731 31.4604C19.1731 31.7654 19.42 32.0123 19.725 32.0123C19.9211 32.0123 20.1026 31.9058 20.2019 31.7315C20.2333 31.6758 20.3035 31.6565 20.3592 31.6879C20.4149 31.7194 20.4342 31.7896 20.4028 31.8453C20.2648 32.0897 20.0034 32.2422 19.725 32.2422C19.2942 32.2422 18.9432 31.8913 18.9432 31.4604Z" fill="white"/>
    <g style="mix-blend-mode:multiply" opacity="0.3">
        <path d="M19.1075 26.3629C19.1075 26.2854 19.1365 26.2055 19.197 26.1474L20.0466 25.2978L19.197 24.4482C19.076 24.3272 19.076 24.1336 19.197 24.015C19.3181 23.8939 19.5117 23.8939 19.6303 24.015L20.6953 25.0824C20.8139 25.201 20.8139 25.3971 20.6953 25.5157L19.6279 26.5831C19.5093 26.7017 19.3132 26.7017 19.1946 26.5831C19.1341 26.5226 19.1051 26.4451 19.1051 26.3653L19.1075 26.3629Z" fill="#1F698F"/>
        <path d="M20.7876 36.558C20.7876 36.6354 20.7586 36.7153 20.6981 36.7758L19.8485 37.6254L20.6981 38.475C20.8167 38.596 20.8167 38.7897 20.6981 38.9083C20.5795 39.0293 20.3834 39.0293 20.2648 38.9083L19.1974 37.8433C19.0763 37.7222 19.0763 37.5286 19.1974 37.41L20.2648 36.3426C20.3858 36.2239 20.5795 36.2239 20.6981 36.3426C20.7586 36.4031 20.7876 36.4805 20.7876 36.5604L20.7876 36.558Z" fill="#1F698F"/>
    </g>
    <path d="M39.9144 34.8152C39.7547 34.8152 39.624 34.6845 39.624 34.5248L39.624 28.3961C39.624 28.2363 39.7547 28.1056 39.9144 28.1056C40.0742 28.1056 40.2049 28.2363 40.2049 28.3961L40.2049 34.5248C40.2049 34.6845 40.0742 34.8152 39.9144 34.8152Z" fill="#7A7A7A"/>
    <path d="M53.5734 33.5904L53.5734 29.3303L39.9169 29.3303L39.9169 33.5904L53.5734 33.5904Z" fill="#487092"/>
    <g style="mix-blend-mode:multiply" opacity="0.3">
        <path d="M39.9144 33.5904L39.9144 29.3303L48.5726 29.3303L44.2447 33.5904L39.9144 33.5904Z" fill="#487092"/>
    </g>
    <path d="M53.0675 32.9781L53.0675 29.9427L50.2209 29.9427L50.2209 32.9781L53.0675 32.9781Z" fill="#E6E6E6"/>
    <path d="M51.7896 11C49.4554 13.3342 48 16.7355 48 18.8304C48 20.9253 49.6947 22.62 51.7896 22.62C53.8845 22.62 55.5793 20.9253 55.5793 18.8304C55.5793 16.7355 54.1278 13.3381 51.7896 11Z" fill="#F06060"/>
    <g style="mix-blend-mode:multiply" opacity="0.5">
        <path d="M52.7979 19.9994C50.7069 19.9994 49.0082 18.3046 49.0082 16.2097C49.0082 15.7194 49.0906 15.1545 49.2436 14.5464C48.4511 16.1038 48 17.6652 48 18.8225C48 20.9135 49.6947 22.6121 51.7896 22.6121C53.8845 22.6121 55.5793 20.9174 55.5793 18.8225C55.5793 18.8068 55.5793 18.7911 55.5793 18.7754C54.8888 19.5247 53.9002 19.9955 52.7979 19.9955V19.9994Z" fill="#F06060"/>
    </g>
    <path opacity="0.2" d="M53.7708 14.5778C53.2137 13.5304 52.4213 12.8595 52.0015 13.0792C51.5817 13.2989 51.6916 14.3346 52.2486 15.382C52.8057 16.4334 53.5982 17.1003 54.014 16.8806C54.4338 16.657 54.3239 15.6252 53.7669 14.5778H53.7708Z" fill="white"/>
    <path opacity="0.2" d="M52.127 16.6923C52.127 16.9748 51.8995 17.2023 51.617 17.2023C51.3346 17.2023 51.107 16.9748 51.107 16.6923C51.107 16.4098 51.3346 16.1823 51.617 16.1823C51.8995 16.1823 52.127 16.4098 52.127 16.6923Z" fill="white"/>
    <path opacity="0.2" d="M53.3157 17.5475C53.3157 17.7162 53.1784 17.8535 53.0097 17.8535C52.841 17.8535 52.7037 17.7162 52.7037 17.5475C52.7037 17.3788 52.841 17.2415 53.0097 17.2415C53.1784 17.2415 53.3157 17.3788 53.3157 17.5475Z" fill="white"/>
    <path d="M26.9105 27.723C26.9105 27.348 26.9851 27.0103 27.1342 26.7099C27.2834 26.4094 27.4879 26.1687 27.7479 25.9876C28.0078 25.8065 28.304 25.7074 28.6364 25.6903L28.6364 26.4574C28.3402 26.4872 28.0952 26.6214 27.9013 26.8601C27.7095 27.1009 27.6136 27.3885 27.6136 27.723C27.6136 27.9915 27.6765 28.2301 27.8022 28.4389C27.9279 28.6499 28.1005 28.815 28.32 28.9343C28.5415 29.0558 28.7919 29.1165 29.071 29.1165C29.3565 29.1165 29.6112 29.0536 29.8349 28.9279C30.0607 28.8043 30.2386 28.6339 30.3686 28.4165C30.4986 28.1992 30.5646 27.951 30.5668 27.6719C30.5689 27.4716 30.538 27.266 30.4741 27.055C30.4123 26.8441 30.3324 26.6705 30.2344 26.5341L30.3239 25.7926L33.5455 26.1889L33.5455 29.5895L32.8423 29.5895L32.8423 26.8537L30.9119 26.6236L30.9119 26.6619C31.0185 26.7962 31.1069 26.9645 31.1772 27.1669C31.2475 27.3693 31.2827 27.5803 31.2827 27.7997C31.2827 28.2003 31.1868 28.5572 30.995 28.8704C30.8054 29.1857 30.5455 29.4329 30.2152 29.6119C29.8849 29.793 29.5078 29.8835 29.0838 29.8835C28.6662 29.8835 28.2933 29.7898 27.9652 29.6023C27.6392 29.4169 27.3814 29.1612 27.1918 28.8352C27.0043 28.5092 26.9105 28.1385 26.9105 27.723ZM26.9489 31.4695C26.9489 31.3119 27.0053 31.1766 27.1183 31.0637C27.2312 30.9507 27.3665 30.8943 27.5241 30.8943C27.6818 30.8943 27.8171 30.9507 27.93 31.0637C28.043 31.1766 28.0994 31.3119 28.0994 31.4695C28.0994 31.6272 28.043 31.7625 27.93 31.8754C27.8171 31.9884 27.6818 32.0448 27.5241 32.0448C27.4197 32.0448 27.3239 32.0182 27.2365 31.9649C27.1491 31.9138 27.0788 31.8445 27.0256 31.7572C26.9744 31.672 26.9489 31.5761 26.9489 31.4695ZM26.9105 35.2992C26.9105 34.9242 26.9851 34.5865 27.1342 34.286C27.2834 33.9856 27.4879 33.7449 27.7479 33.5637C28.0078 33.3826 28.304 33.2836 28.6364 33.2665L28.6364 34.0336C28.3402 34.0634 28.0952 34.1976 27.9013 34.4363C27.7095 34.677 27.6136 34.9647 27.6136 35.2992C27.6136 35.5676 27.6765 35.8063 27.8022 36.0151C27.9279 36.226 28.1005 36.3912 28.32 36.5105C28.5415 36.6319 28.7919 36.6926 29.071 36.6926C29.3565 36.6926 29.6112 36.6298 29.8349 36.5041C30.0607 36.3805 30.2386 36.21 30.3686 35.9927C30.4986 35.7754 30.5646 35.5272 30.5668 35.248C30.5689 35.0478 30.538 34.8422 30.4741 34.6312C30.4123 34.4203 30.3324 34.2466 30.2344 34.1103L30.3239 33.3688L33.5455 33.7651L33.5455 37.1657L32.8423 37.1657L32.8423 34.4299L30.9119 34.1998L30.9119 34.2381C31.0185 34.3723 31.1069 34.5407 31.1772 34.7431C31.2475 34.9455 31.2827 35.1564 31.2827 35.3759C31.2827 35.7765 31.1868 36.1333 30.995 36.4466C30.8054 36.7619 30.5455 37.0091 30.2152 37.188C29.8849 37.3691 29.5078 37.4597 29.0838 37.4597C28.6662 37.4597 28.2933 37.3659 27.9652 37.1784C27.6392 36.9931 27.3814 36.7374 27.1918 36.4114C27.0043 36.0854 26.9105 35.7147 26.9105 35.2992Z" fill="#373737"/>
    <path d="M25 29.1534L26.0909 29.1534L26.0909 29.3153L25.9205 29.3153L25.9205 29.3295C25.9787 29.3523 26.0239 29.389 26.0561 29.4396C26.0888 29.4903 26.1051 29.5511 26.1051 29.6222C26.1051 29.6941 26.0888 29.754 26.0561 29.8018C26.0239 29.8501 25.9787 29.8878 25.9205 29.9148L25.9205 29.9261C25.9768 29.9541 26.0215 29.996 26.0547 30.0518C26.0883 30.1077 26.1051 30.1747 26.1051 30.2528C26.1051 30.3504 26.0746 30.4302 26.0135 30.4922C25.9529 30.5542 25.8584 30.5852 25.7301 30.5852L25 30.5852L25 30.4176L25.7301 30.4176C25.8106 30.4176 25.8681 30.3956 25.9027 30.3516C25.9373 30.3075 25.9545 30.2557 25.9545 30.196C25.9545 30.1193 25.9313 30.0599 25.8849 30.0178C25.839 29.9756 25.7808 29.9545 25.7102 29.9545L25 29.9545L25 29.7841L25.7472 29.7841C25.8092 29.7841 25.8591 29.764 25.897 29.7237C25.9354 29.6835 25.9545 29.6316 25.9545 29.5682C25.9545 29.5246 25.9429 29.4839 25.9197 29.446C25.8965 29.4086 25.8643 29.3783 25.8232 29.3551C25.7824 29.3324 25.7353 29.321 25.6818 29.321L25 29.321L25 29.1534ZM24.5682 31.332C24.5682 31.2511 24.5786 31.1815 24.5994 31.1232C24.6198 31.065 24.6468 31.0165 24.6804 30.9776C24.7135 30.9393 24.7491 30.9087 24.7869 30.886L24.8807 31.0195C24.8608 31.0347 24.8381 31.0539 24.8125 31.0771C24.7865 31.1003 24.764 31.132 24.745 31.1722C24.7256 31.2129 24.7159 31.2662 24.7159 31.332C24.7159 31.4201 24.7372 31.4928 24.7798 31.5501C24.8224 31.6074 24.8892 31.636 24.9801 31.636L25.2017 31.636L25.2017 31.6218C25.1818 31.6095 25.1572 31.592 25.1278 31.5692C25.099 31.547 25.0732 31.5148 25.0504 31.4727C25.0282 31.431 25.017 31.3746 25.017 31.3036C25.017 31.2156 25.0379 31.1365 25.0795 31.0664C25.1212 30.9968 25.1818 30.9416 25.2614 30.9009C25.3409 30.8607 25.4375 30.8406 25.5511 30.8406C25.6629 30.8406 25.7602 30.8602 25.843 30.8995C25.9264 30.9388 25.9908 30.9935 26.0362 31.0636C26.0821 31.1336 26.1051 31.2146 26.1051 31.3065C26.1051 31.3775 26.0933 31.4338 26.0696 31.4755C26.0464 31.5176 26.0199 31.5498 25.9901 31.5721C25.9607 31.5948 25.9366 31.6123 25.9176 31.6246L25.9176 31.6417L26.0909 31.6417L26.0909 31.8036L24.9687 31.8036C24.875 31.8036 24.7988 31.7823 24.7401 31.7397C24.6809 31.6976 24.6375 31.6407 24.6101 31.5692C24.5821 31.4982 24.5682 31.4192 24.5682 31.332ZM25.1676 31.3263C25.1676 31.3936 25.183 31.4504 25.2138 31.4968C25.2446 31.5432 25.2888 31.5785 25.3466 31.6026C25.4044 31.6268 25.4735 31.6388 25.554 31.6388C25.6326 31.6388 25.7019 31.627 25.7621 31.6033C25.8222 31.5797 25.8693 31.5446 25.9034 31.4982C25.9375 31.4518 25.9545 31.3945 25.9545 31.3263C25.9545 31.2553 25.9366 31.1961 25.9006 31.1488C25.8646 31.1019 25.8163 31.0666 25.7557 31.043C25.6951 31.0198 25.6278 31.0082 25.554 31.0082C25.4782 31.0082 25.4112 31.02 25.353 31.0437C25.2952 31.0678 25.2498 31.1033 25.2166 31.1502C25.1839 31.1976 25.1676 31.2563 25.1676 31.3263ZM26.5227 32.6246L24.7812 32.1559L24.7812 32.0025L26.5227 32.4712L26.5227 32.6246ZM24.9773 33.2353C24.9773 33.1444 25.0002 33.0641 25.0462 32.9945C25.0926 32.9249 25.1579 32.8704 25.2422 32.8311C25.3269 32.7918 25.4271 32.7722 25.5426 32.7722C25.6572 32.7722 25.7566 32.7918 25.8409 32.8311C25.9252 32.8704 25.9903 32.9251 26.0362 32.9952C26.0821 33.0653 26.1051 33.1462 26.1051 33.2381C26.1051 33.3091 26.0933 33.3652 26.0696 33.4064C26.0464 33.4481 26.0199 33.4798 25.9901 33.5016C25.9607 33.5239 25.9366 33.5411 25.9176 33.5534L25.9176 33.5676L26.4545 33.5676L26.4545 33.7353L25 33.7353L25 33.5733L25.1676 33.5733L25.1676 33.5534C25.1477 33.5411 25.1226 33.5236 25.0923 33.5009C25.0625 33.4782 25.0357 33.4457 25.0121 33.4036C24.9889 33.3614 24.9773 33.3053 24.9773 33.2353ZM25.1278 33.258C25.1278 33.3252 25.1454 33.382 25.1804 33.4284C25.2159 33.4748 25.2649 33.5101 25.3274 33.5343C25.3904 33.5584 25.4631 33.5705 25.5455 33.5705C25.6269 33.5705 25.6982 33.5587 25.7592 33.535C25.8208 33.5113 25.8686 33.4763 25.9027 33.4299C25.9373 33.3835 25.9545 33.3262 25.9545 33.258C25.9545 33.187 25.9363 33.1278 25.8999 33.0804C25.8639 33.0336 25.8149 32.9983 25.7528 32.9746C25.6913 32.9514 25.6222 32.9398 25.5455 32.9398C25.4678 32.9398 25.3973 32.9516 25.3338 32.9753C25.2708 32.9995 25.2206 33.035 25.1832 33.0819C25.1463 33.1292 25.1278 33.1879 25.1278 33.258ZM26.4545 34.2331L25 34.2331L25 34.0655L26.4545 34.0655L26.4545 34.2331Z" fill="#373737"/>
</svg>
