<svg width="40" height="40" viewBox="0 0 40 40" fill="none" xmlns="http://www.w3.org/2000/svg">
<rect x="10" y="10" width="20" height="2" rx="1" fill="black"/>
<path fill-rule="evenodd" clip-rule="evenodd" d="M28 13H12V28C12 30.2091 13.7909 32 16 32H24C26.2091 32 28 30.2091 28 28V13ZM21 17C21 16.4477 20.5523 16 20 16C19.4477 16 19 16.4477 19 17L19 28C19 28.5523 19.4477 29 20 29C20.5523 29 21 28.5523 21 28L21 17ZM15 16C15.5523 16 16 16.4477 16 17L16 28C16 28.5523 15.5523 29 15 29C14.4477 29 14 28.5523 14 28L14 17C14 16.4477 14.4477 16 15 16ZM26 17C26 16.4477 25.5523 16 25 16C24.4477 16 24 16.4477 24 17L24 28C24 28.5523 24.4477 29 25 29C25.5523 29 26 28.5523 26 28L26 17Z" fill="black"/>
<rect x="18" y="8" width="4" height="4" rx="1" fill="black"/>
</svg>
