<svg width="40" height="40" viewBox="0 0 40 40" fill="none" xmlns="http://www.w3.org/2000/svg">
<path d="M10.125 34C9.26562 34 8.53021 33.6869 7.91875 33.0608C7.30625 32.4336 7 31.68 7 30.8V16.4C7 15.8933 7.11094 15.4133 7.33281 14.96C7.55365 14.5067 7.85938 14.1333 8.25 13.84L17.625 6.64C17.9115 6.42667 18.2109 6.26667 18.5234 6.16C18.8359 6.05333 19.1615 6 19.5 6C19.8385 6 20.1641 6.05333 20.4766 6.16C20.7891 6.26667 21.0885 6.42667 21.375 6.64L30.75 13.84C31.1406 14.1333 31.4469 14.5067 31.6688 14.96C31.8896 15.4133 32 15.8933 32 16.4V30.8C32 31.68 31.6943 32.4336 31.0828 33.0608C30.4703 33.6869 29.7344 34 28.875 34H22.625V22.8H16.375V34H10.125Z" fill="white"/>
</svg>
