<svg width="40" height="40" viewBox="0 0 40 40" fill="none" xmlns="http://www.w3.org/2000/svg">
<path d="M10 33.1244C9.99989 33.2763 10.0393 33.4257 10.1145 33.5577C10.1896 33.6898 10.2979 33.8 10.4286 33.8775C10.5592 33.9551 10.7078 33.9972 10.8598 33.9999C11.0117 34.0025 11.1617 33.9655 11.295 33.8926L20.4998 28.8702L29.7045 33.8926C29.8378 33.9655 29.9878 34.0025 30.1398 33.9999C30.2917 33.9972 30.4403 33.9551 30.571 33.8775C30.7016 33.8 30.8099 33.6898 30.885 33.5577C30.9602 33.4257 30.9996 33.2763 30.9995 33.1244V9.49992C30.9995 8.57168 30.6308 7.68147 29.9744 7.0251C29.3181 6.36874 28.4278 6 27.4996 6H13.4999C12.5717 6 11.6815 6.36874 11.0251 7.0251C10.3687 7.68147 10 8.57168 10 9.49992V33.1244ZM20.4998 13.7173C22.927 11.2236 28.9941 15.5898 20.4998 21.2019C12.0055 15.5898 18.0726 11.2254 20.4998 13.7208V13.7173Z" fill="white"/>
</svg>
