<svg width="40" height="40" viewBox="0 0 40 40" fill="none" xmlns="http://www.w3.org/2000/svg">
<path d="M13 14C13 10.134 16.134 7 20 7C23.866 7 27 10.134 27 14V17H13V14Z" stroke="black" stroke-width="2"/>
<path fill-rule="evenodd" clip-rule="evenodd" d="M20 14C14.4772 14 10 18.4772 10 24C10 29.5228 14.4772 34 20 34C25.5228 34 30 29.5228 30 24C30 18.4772 25.5228 14 20 14ZM20 19.4545C17.4896 19.4545 15.4545 21.4896 15.4545 24C15.4545 26.5104 17.4896 28.5455 20 28.5455C22.5104 28.5455 24.5455 26.5104 24.5455 24C24.5455 21.4896 22.5104 19.4545 20 19.4545Z" fill="black"/>
</svg>
