<svg width="40" height="40" viewBox="0 0 40 40" fill="none" xmlns="http://www.w3.org/2000/svg">
<path fill-rule="evenodd" clip-rule="evenodd" d="M26 18C29.3137 18 32 15.3137 32 12C32 8.68629 29.3137 6 26 6C22.6863 6 20 8.68629 20 12C20 13.0741 20.2823 14.0824 20.7767 14.9545L14.391 20.2796C13.7319 19.8187 12.9298 19.5483 12.0645 19.5483C9.81975 19.5483 8 21.3681 8 23.6129C8 25.8576 9.81975 27.6774 12.0645 27.6774C13.0633 27.6774 13.978 27.3171 14.6856 26.7194L22.3923 30.8385C22.3677 30.9854 22.3548 31.1364 22.3548 31.2903C22.3548 32.7868 23.568 34 25.0645 34C26.561 34 27.7742 32.7868 27.7742 31.2903C27.7742 29.7938 26.561 28.5806 25.0645 28.5806C24.3765 28.5806 23.7484 28.8371 23.2705 29.2595L15.7826 25.2574C16.0053 24.7546 16.129 24.1982 16.129 23.6129C16.129 22.9252 15.9583 22.2774 15.6568 21.7097L21.9699 16.4451C23.035 17.4113 24.4487 18 26 18Z" fill="black"/>
</svg>
