<svg width="40" height="40" viewBox="0 0 40 40" fill="none" xmlns="http://www.w3.org/2000/svg">
<path fill-rule="evenodd" clip-rule="evenodd" d="M13 6C11.3431 6 10 7.34315 10 9V31C10 32.6569 11.3431 34 13 34H27C28.6569 34 30 32.6569 30 31V9C30 7.34315 28.6569 6 27 6H13ZM13.6349 10.6666C13.2053 10.6666 12.8571 11.0148 12.8571 11.4444C12.8571 11.874 13.2053 12.2222 13.6349 12.2222H26.3651C26.7946 12.2222 27.1428 11.874 27.1428 11.4444C27.1428 11.0148 26.7946 10.6666 26.3651 10.6666H13.6349ZM12.8571 20C12.8571 19.5704 13.2054 19.2222 13.6349 19.2222H26.3651C26.7946 19.2222 27.1429 19.5704 27.1429 20C27.1429 20.4296 26.7946 20.7778 26.3651 20.7778H13.6349C13.2054 20.7778 12.8571 20.4296 12.8571 20ZM13.6349 27.7778C13.2054 27.7778 12.8571 28.126 12.8571 28.5556C12.8571 28.9851 13.2054 29.3333 13.6349 29.3333H26.3651C26.7946 29.3333 27.1429 28.9851 27.1429 28.5556C27.1429 28.126 26.7946 27.7778 26.3651 27.7778H13.6349Z" fill="black"/>
</svg>
