<svg width="256" height="256" viewBox="0 0 256 256" fill="none" xmlns="http://www.w3.org/2000/svg">
<g clip-path="url(#clip0_682_1106)">
<rect width="256" height="256" fill="#D9E9E4"/>
<circle cx="128" cy="-99" r="318" fill="#09202D"/>
<rect x="39" y="10" width="163" height="177" rx="21" fill="#D8E8E4"/>
<rect x="17" y="17" width="11" height="163" rx="5.5" fill="#0090F5"/>
<path d="M17 51H28V175.5C28 178.538 25.5376 181 22.5 181C19.4624 181 17 178.538 17 175.5V51Z" fill="#77AA42"/>
<path d="M17 82H28V175.5C28 178.538 25.5376 181 22.5 181C19.4624 181 17 178.538 17 175.5V82Z" fill="#FEF75D"/>
<path d="M17 115H28V175.5C28 178.538 25.5376 181 22.5 181C19.4624 181 17 178.538 17 175.5V115Z" fill="#EF993E"/>
<path d="M17 148H28V175.5C28 178.538 25.5376 181 22.5 181C19.4624 181 17 178.538 17 175.5V148Z" fill="#EC4438"/>
<path opacity="0.03" d="M65.7965 84.289L71.2555 78.565H84.3465L89.4875 84.289H65.7965ZM64.2065 58.266L69.9305 63.778V76.763L64.2065 81.957V58.266ZM91.1835 81.957L85.4595 76.498V63.46L91.1835 58.266V81.957ZM70.3545 60.174C69.1179 59.1847 67.8635 58.213 66.5915 57.259L70.3545 54.45H84.8235L88.5335 57.259L84.8235 60.174H70.3545ZM65.7435 30.441H89.4345L84.1875 36.165H71.2025L65.7435 30.441ZM64.0475 56.411V32.72L69.7715 37.861V51.005L64.0475 56.411ZM91.0245 32.72V56.411L85.3005 51.27V38.179L91.0245 32.72ZM108.186 84.289L113.645 78.565H126.736L131.877 84.289H108.186ZM106.596 58.266L112.32 63.778V76.763L106.596 81.957V58.266ZM133.573 81.957L127.849 76.498V63.46L133.573 58.266V81.957ZM112.744 60.174C111.508 59.1847 110.253 58.213 108.981 57.259L112.744 54.45H127.213L130.923 57.259L127.213 60.174H112.744ZM108.133 30.441H131.824L126.577 36.165H113.592L108.133 30.441ZM106.437 56.411V32.72L112.161 37.861V51.005L106.437 56.411ZM133.414 32.72V56.411L127.69 51.27V38.179L133.414 32.72ZM150.576 84.289L156.035 78.565H169.126L174.267 84.289H150.576ZM148.986 58.266L154.71 63.778V76.763L148.986 81.957V58.266ZM175.963 81.957L170.239 76.498V63.46L175.963 58.266V81.957ZM155.134 60.174C153.897 59.1847 152.643 58.213 151.371 57.259L155.134 54.45H169.603L173.313 57.259L169.603 60.174H155.134ZM150.523 30.441H174.214L168.967 36.165H155.982L150.523 30.441ZM148.827 56.411V32.72L154.551 37.861V51.005L148.827 56.411ZM175.804 32.72V56.411L170.08 51.27V38.179L175.804 32.72Z" fill="black"/>
<path d="M91.1835 81.957L85.4595 76.498V63.46L91.1835 58.266V81.957ZM91.0245 32.72V56.411L85.3005 51.27V38.179L91.0245 32.72ZM133.573 81.957L127.849 76.498V63.46L133.573 58.266V81.957ZM133.414 32.72V56.411L127.69 51.27V38.179L133.414 32.72ZM150.576 84.289L156.035 78.565H169.126L174.267 84.289H150.576ZM148.986 58.266L154.71 63.778V76.763L148.986 81.957V58.266ZM155.134 60.174C153.897 59.1847 152.643 58.213 151.371 57.259L155.134 54.45H169.603L173.313 57.259L169.603 60.174H155.134ZM150.523 30.441H174.214L168.967 36.165H155.982L150.523 30.441ZM175.804 32.72V56.411L170.08 51.27V38.179L175.804 32.72Z" fill="black"/>
<path opacity="0.03" d="M65.7965 148.289L71.2555 142.565H84.3465L89.4875 148.289H65.7965ZM64.2065 122.266L69.9305 127.778V140.763L64.2065 145.957V122.266ZM91.1835 145.957L85.4595 140.498V127.46L91.1835 122.266V145.957ZM70.3545 124.174C69.1179 123.185 67.8635 122.213 66.5915 121.259L70.3545 118.45H84.8235L88.5335 121.259L84.8235 124.174H70.3545ZM65.7435 94.441H89.4345L84.1875 100.165H71.2025L65.7435 94.441ZM64.0475 120.411V96.72L69.7715 101.861V115.005L64.0475 120.411ZM91.0245 96.72V120.411L85.3005 115.27V102.179L91.0245 96.72ZM108.186 148.289L113.645 142.565H126.736L131.877 148.289H108.186ZM106.596 122.266L112.32 127.778V140.763L106.596 145.957V122.266ZM133.573 145.957L127.849 140.498V127.46L133.573 122.266V145.957ZM112.744 124.174C111.508 123.185 110.253 122.213 108.981 121.259L112.744 118.45H127.213L130.923 121.259L127.213 124.174H112.744ZM108.133 94.441H131.824L126.577 100.165H113.592L108.133 94.441ZM106.437 120.411V96.72L112.161 101.861V115.005L106.437 120.411ZM133.414 96.72V120.411L127.69 115.27V102.179L133.414 96.72ZM150.576 148.289L156.035 142.565H169.126L174.267 148.289H150.576ZM148.986 122.266L154.71 127.778V140.763L148.986 145.957V122.266ZM175.963 145.957L170.239 140.498V127.46L175.963 122.266V145.957ZM155.134 124.174C153.897 123.185 152.643 122.213 151.371 121.259L155.134 118.45H169.603L173.313 121.259L169.603 124.174H155.134ZM150.523 94.441H174.214L168.967 100.165H155.982L150.523 94.441ZM148.827 120.411V96.72L154.551 101.861V115.005L148.827 120.411ZM175.804 96.72V120.411L170.08 115.27V102.179L175.804 96.72Z" fill="black"/>
<path d="M133.59 145.957L127.919 140.498V127.46L133.59 122.266V145.957ZM108.15 94.441H131.894L126.7 100.165H113.609L108.15 94.441ZM133.431 96.72V120.411L127.76 115.27V102.179L133.431 96.72ZM150.381 148.289L155.84 142.565H168.931L174.072 148.289H150.381ZM148.791 122.266L154.515 127.778V140.763L148.791 145.957V122.266ZM175.768 145.957L170.044 140.498V127.46L175.768 122.266V145.957ZM154.939 124.174C153.702 123.185 152.448 122.213 151.176 121.259L154.939 118.45H169.408L173.118 121.259L169.408 124.174H154.939ZM150.328 94.441H174.019L168.772 100.165H155.787L150.328 94.441ZM148.632 120.411V96.72L154.356 101.861V115.005L148.632 120.411Z" fill="black"/>
<path d="M150.044 177.26L152.104 175.1H157.044L158.984 177.26H150.044ZM149.444 167.44L151.604 169.52V174.42L149.444 176.38V167.44ZM159.624 176.38L157.464 174.32V169.4L159.624 167.44V176.38ZM151.764 168.16C151.297 167.787 150.824 167.42 150.344 167.06L151.764 166H157.224L158.624 167.06L157.224 168.16H151.764ZM150.024 156.94H158.964L156.984 159.1H152.084L150.024 156.94ZM149.384 166.74V157.8L151.544 159.74V164.7L149.384 166.74ZM159.564 157.8V166.74L157.404 164.8V159.86L159.564 157.8ZM166.04 177.26L168.1 175.1H173.04L174.98 177.26H166.04ZM165.44 167.44L167.6 169.52V174.42L165.44 176.38V167.44ZM175.62 176.38L173.46 174.32V169.4L175.62 167.44V176.38ZM166.02 156.94H174.96L172.98 159.1H168.08L166.02 156.94ZM165.38 166.74V157.8L167.54 159.74V164.7L165.38 166.74ZM175.56 157.8V166.74L173.4 164.8V159.86L175.56 157.8Z" fill="black"/>
<path d="M135.649 164.754C135.545 165.029 135.33 165.541 134.919 166.249C134.814 166.43 134.697 166.623 134.568 166.828C133.644 168.279 132.029 170.328 129.275 172.721L125.506 176L121.735 172.721C119.221 170.537 117.659 168.64 116.704 167.223C116.565 167.018 116.442 166.825 116.328 166.645C115.765 165.731 115.484 165.08 115.364 164.754C114.254 161.782 115.769 158.472 118.74 157.362C121.276 156.42 124.052 157.378 125.503 159.522C126.954 157.378 129.734 156.42 132.266 157.362C135.244 158.469 136.759 161.779 135.649 164.754Z" fill="#FF6464"/>
<path d="M205.213 47.3418L208.025 47.0684C208.195 48.0124 208.536 48.7057 209.051 49.1484C209.572 49.5911 210.271 49.8125 211.15 49.8125C212.081 49.8125 212.781 49.6172 213.25 49.2266C213.725 48.8294 213.963 48.3672 213.963 47.8398C213.963 47.5013 213.862 47.2148 213.66 46.9805C213.465 46.7396 213.12 46.5312 212.625 46.3555C212.286 46.2383 211.515 46.0299 210.311 45.7305C208.761 45.3464 207.674 44.8743 207.049 44.3145C206.17 43.5267 205.73 42.5664 205.73 41.4336C205.73 40.7044 205.936 40.0241 206.346 39.3926C206.762 38.7546 207.358 38.2695 208.133 37.9375C208.914 37.6055 209.855 37.4395 210.955 37.4395C212.752 37.4395 214.103 37.8333 215.008 38.6211C215.919 39.4089 216.398 40.4603 216.443 41.7754L213.553 41.9023C213.429 41.1667 213.162 40.6393 212.752 40.3203C212.348 39.9948 211.74 39.832 210.926 39.832C210.086 39.832 209.428 40.0046 208.953 40.3496C208.647 40.571 208.494 40.8672 208.494 41.2383C208.494 41.5768 208.637 41.8665 208.924 42.1074C209.288 42.4134 210.174 42.7324 211.58 43.0645C212.986 43.3965 214.025 43.7415 214.695 44.0996C215.372 44.4512 215.9 44.9362 216.277 45.5547C216.661 46.1667 216.854 46.9251 216.854 47.8301C216.854 48.6504 216.626 49.4186 216.17 50.1348C215.714 50.8509 215.07 51.3848 214.236 51.7363C213.403 52.0814 212.365 52.2539 211.121 52.2539C209.311 52.2539 207.921 51.8372 206.951 51.0039C205.981 50.1641 205.402 48.9434 205.213 47.3418ZM223.045 52V45.9746L217.801 37.6836H221.189L224.559 43.3477L227.859 37.6836H231.189L225.926 45.9941V52H223.045ZM231.893 47.3418L234.705 47.0684C234.874 48.0124 235.216 48.7057 235.73 49.1484C236.251 49.5911 236.951 49.8125 237.83 49.8125C238.761 49.8125 239.461 49.6172 239.93 49.2266C240.405 48.8294 240.643 48.3672 240.643 47.8398C240.643 47.5013 240.542 47.2148 240.34 46.9805C240.145 46.7396 239.799 46.5312 239.305 46.3555C238.966 46.2383 238.195 46.0299 236.99 45.7305C235.441 45.3464 234.354 44.8743 233.729 44.3145C232.85 43.5267 232.41 42.5664 232.41 41.4336C232.41 40.7044 232.615 40.0241 233.025 39.3926C233.442 38.7546 234.038 38.2695 234.812 37.9375C235.594 37.6055 236.535 37.4395 237.635 37.4395C239.432 37.4395 240.783 37.8333 241.688 38.6211C242.599 39.4089 243.077 40.4603 243.123 41.7754L240.232 41.9023C240.109 41.1667 239.842 40.6393 239.432 40.3203C239.028 39.9948 238.419 39.832 237.605 39.832C236.766 39.832 236.108 40.0046 235.633 40.3496C235.327 40.571 235.174 40.8672 235.174 41.2383C235.174 41.5768 235.317 41.8665 235.604 42.1074C235.968 42.4134 236.854 42.7324 238.26 43.0645C239.666 43.3965 240.704 43.7415 241.375 44.0996C242.052 44.4512 242.579 44.9362 242.957 45.5547C243.341 46.1667 243.533 46.9251 243.533 47.8301C243.533 48.6504 243.305 49.4186 242.85 50.1348C242.394 50.8509 241.749 51.3848 240.916 51.7363C240.083 52.0814 239.044 52.2539 237.801 52.2539C235.991 52.2539 234.601 51.8372 233.631 51.0039C232.661 50.1641 232.081 48.9434 231.893 47.3418Z" fill="white"/>
<path d="M207.324 64V58.8145H208.11V59.542C208.273 59.2881 208.49 59.0846 208.76 58.9316C209.03 58.7754 209.338 58.6973 209.683 58.6973C210.067 58.6973 210.381 58.777 210.625 58.9365C210.872 59.096 211.047 59.319 211.147 59.6055C211.558 59 212.091 58.6973 212.749 58.6973C213.263 58.6973 213.659 58.8405 213.936 59.127C214.212 59.4102 214.351 59.848 214.351 60.4404V64H213.477V60.7334C213.477 60.3818 213.447 60.1296 213.389 59.9766C213.333 59.8203 213.231 59.695 213.081 59.6006C212.931 59.5062 212.756 59.459 212.554 59.459C212.189 59.459 211.886 59.5811 211.646 59.8252C211.405 60.0661 211.284 60.4535 211.284 60.9873V64H210.405V60.6309C210.405 60.2402 210.334 59.9473 210.19 59.752C210.047 59.5566 209.813 59.459 209.487 59.459C209.24 59.459 209.01 59.5241 208.799 59.6543C208.59 59.7845 208.439 59.9749 208.345 60.2256C208.25 60.4762 208.203 60.8376 208.203 61.3096V64H207.324ZM215.654 64V58.8145H216.44V59.542C216.603 59.2881 216.82 59.0846 217.09 58.9316C217.36 58.7754 217.668 58.6973 218.013 58.6973C218.397 58.6973 218.711 58.777 218.955 58.9365C219.202 59.096 219.377 59.319 219.478 59.6055C219.888 59 220.422 58.6973 221.079 58.6973C221.593 58.6973 221.989 58.8405 222.266 59.127C222.542 59.4102 222.681 59.848 222.681 60.4404V64H221.807V60.7334C221.807 60.3818 221.777 60.1296 221.719 59.9766C221.663 59.8203 221.561 59.695 221.411 59.6006C221.261 59.5062 221.086 59.459 220.884 59.459C220.519 59.459 220.216 59.5811 219.976 59.8252C219.735 60.0661 219.614 60.4535 219.614 60.9873V64H218.735V60.6309C218.735 60.2402 218.664 59.9473 218.521 59.752C218.377 59.5566 218.143 59.459 217.817 59.459C217.57 59.459 217.34 59.5241 217.129 59.6543C216.921 59.7845 216.769 59.9749 216.675 60.2256C216.58 60.4762 216.533 60.8376 216.533 61.3096V64H215.654ZM224.126 64V56.8418H225.073V59.7812H228.794V56.8418H229.741V64H228.794V60.626H225.073V64H224.126ZM234.673 61.1924V60.3525L237.705 60.3477V63.0039C237.24 63.375 236.759 63.6549 236.265 63.8438C235.77 64.0293 235.262 64.1221 234.741 64.1221C234.038 64.1221 233.398 63.9723 232.822 63.6729C232.249 63.3701 231.816 62.9339 231.523 62.3643C231.23 61.7946 231.084 61.1582 231.084 60.4551C231.084 59.7585 231.229 59.109 231.519 58.5068C231.812 57.9014 232.231 57.4521 232.778 57.1592C233.325 56.8662 233.955 56.7197 234.668 56.7197C235.186 56.7197 235.653 56.8044 236.069 56.9736C236.489 57.1396 236.818 57.3724 237.056 57.6719C237.293 57.9714 237.474 58.362 237.598 58.8438L236.743 59.0781C236.636 58.7135 236.502 58.4271 236.343 58.2188C236.183 58.0104 235.955 57.8444 235.659 57.7207C235.363 57.5938 235.034 57.5303 234.673 57.5303C234.24 57.5303 233.866 57.597 233.55 57.7305C233.234 57.8607 232.979 58.0332 232.783 58.248C232.591 58.4629 232.441 58.6989 232.334 58.9561C232.152 59.3988 232.061 59.8789 232.061 60.3965C232.061 61.0345 232.17 61.5684 232.388 61.998C232.609 62.4277 232.93 62.7467 233.35 62.9551C233.77 63.1634 234.215 63.2676 234.688 63.2676C235.098 63.2676 235.498 63.1895 235.889 63.0332C236.279 62.8737 236.576 62.7044 236.777 62.5254V61.1924H234.673Z" fill="white"/>
<path d="M210.873 163V154.41H213.656C214.711 154.41 215.398 154.453 215.719 154.539C216.211 154.668 216.623 154.949 216.955 155.383C217.287 155.812 217.453 156.369 217.453 157.053C217.453 157.58 217.357 158.023 217.166 158.383C216.975 158.742 216.73 159.025 216.434 159.232C216.141 159.436 215.842 159.57 215.537 159.637C215.123 159.719 214.523 159.76 213.738 159.76H212.607V163H210.873ZM212.607 155.863V158.301H213.557C214.24 158.301 214.697 158.256 214.928 158.166C215.158 158.076 215.338 157.936 215.467 157.744C215.6 157.553 215.666 157.33 215.666 157.076C215.666 156.764 215.574 156.506 215.391 156.303C215.207 156.1 214.975 155.973 214.693 155.922C214.486 155.883 214.07 155.863 213.445 155.863H212.607ZM218.865 154.41H220.6V159.062C220.6 159.801 220.621 160.279 220.664 160.498C220.738 160.85 220.914 161.133 221.191 161.348C221.473 161.559 221.855 161.664 222.34 161.664C222.832 161.664 223.203 161.564 223.453 161.365C223.703 161.162 223.854 160.914 223.904 160.621C223.955 160.328 223.98 159.842 223.98 159.162V154.41H225.715V158.922C225.715 159.953 225.668 160.682 225.574 161.107C225.48 161.533 225.307 161.893 225.053 162.186C224.803 162.479 224.467 162.713 224.045 162.889C223.623 163.061 223.072 163.146 222.393 163.146C221.572 163.146 220.949 163.053 220.523 162.865C220.102 162.674 219.768 162.428 219.521 162.127C219.275 161.822 219.113 161.504 219.035 161.172C218.922 160.68 218.865 159.953 218.865 158.992V154.41ZM227.596 163V154.48H229.33V161.553H233.643V163H227.596ZM234.445 160.205L236.133 160.041C236.234 160.607 236.439 161.023 236.748 161.289C237.061 161.555 237.48 161.688 238.008 161.688C238.566 161.688 238.986 161.57 239.268 161.336C239.553 161.098 239.695 160.82 239.695 160.504C239.695 160.301 239.635 160.129 239.514 159.988C239.396 159.844 239.189 159.719 238.893 159.613C238.689 159.543 238.227 159.418 237.504 159.238C236.574 159.008 235.922 158.725 235.547 158.389C235.02 157.916 234.756 157.34 234.756 156.66C234.756 156.223 234.879 155.814 235.125 155.436C235.375 155.053 235.732 154.762 236.197 154.562C236.666 154.363 237.23 154.264 237.891 154.264C238.969 154.264 239.779 154.5 240.322 154.973C240.869 155.445 241.156 156.076 241.184 156.865L239.449 156.941C239.375 156.5 239.215 156.184 238.969 155.992C238.727 155.797 238.361 155.699 237.873 155.699C237.369 155.699 236.975 155.803 236.689 156.01C236.506 156.143 236.414 156.32 236.414 156.543C236.414 156.746 236.5 156.92 236.672 157.064C236.891 157.248 237.422 157.439 238.266 157.639C239.109 157.838 239.732 158.045 240.135 158.26C240.541 158.471 240.857 158.762 241.084 159.133C241.314 159.5 241.43 159.955 241.43 160.498C241.43 160.99 241.293 161.451 241.02 161.881C240.746 162.311 240.359 162.631 239.859 162.842C239.359 163.049 238.736 163.152 237.99 163.152C236.904 163.152 236.07 162.902 235.488 162.402C234.906 161.898 234.559 161.166 234.445 160.205ZM242.889 163V154.41H249.258V155.863H244.623V157.768H248.936V159.215H244.623V161.553H249.422V163H242.889Z" fill="white"/>
<path d="M210.732 177V169.842H213.418C213.965 169.842 214.403 169.915 214.731 170.062C215.063 170.205 215.322 170.428 215.508 170.73C215.697 171.03 215.791 171.344 215.791 171.673C215.791 171.979 215.708 172.267 215.542 172.537C215.376 172.807 215.125 173.025 214.79 173.191C215.223 173.318 215.555 173.535 215.786 173.841C216.021 174.147 216.138 174.508 216.138 174.925C216.138 175.26 216.066 175.573 215.923 175.862C215.783 176.149 215.609 176.37 215.4 176.526C215.192 176.683 214.93 176.801 214.614 176.883C214.302 176.961 213.918 177 213.462 177H210.732ZM211.68 172.85H213.228C213.647 172.85 213.949 172.822 214.131 172.767C214.372 172.695 214.552 172.576 214.673 172.41C214.797 172.244 214.858 172.036 214.858 171.785C214.858 171.548 214.801 171.339 214.688 171.16C214.574 170.978 214.411 170.854 214.199 170.789C213.988 170.721 213.625 170.687 213.11 170.687H211.68V172.85ZM211.68 176.155H213.462C213.768 176.155 213.983 176.144 214.106 176.121C214.325 176.082 214.507 176.017 214.653 175.926C214.8 175.835 214.92 175.703 215.015 175.53C215.109 175.354 215.156 175.153 215.156 174.925C215.156 174.658 215.088 174.427 214.951 174.231C214.814 174.033 214.624 173.895 214.38 173.816C214.139 173.735 213.791 173.694 213.335 173.694H211.68V176.155ZM217.441 177V169.842H220.142C220.617 169.842 220.98 169.865 221.23 169.91C221.582 169.969 221.877 170.081 222.114 170.247C222.352 170.41 222.542 170.639 222.686 170.936C222.832 171.232 222.905 171.557 222.905 171.912C222.905 172.521 222.712 173.037 222.324 173.46C221.937 173.88 221.237 174.09 220.225 174.09H218.389V177H217.441ZM218.389 173.245H220.239C220.851 173.245 221.286 173.131 221.543 172.903C221.8 172.675 221.929 172.355 221.929 171.941C221.929 171.642 221.852 171.386 221.699 171.175C221.549 170.96 221.351 170.818 221.104 170.75C220.944 170.708 220.649 170.687 220.22 170.687H218.389V173.245ZM224.082 177V169.842H225.508L227.202 174.91C227.358 175.382 227.472 175.735 227.544 175.97C227.625 175.709 227.752 175.327 227.925 174.822L229.639 169.842H230.913V177H230V171.009L227.92 177H227.065L224.995 170.906V177H224.082Z" fill="white"/>
<path d="M211.445 99.6836H216.729C217.92 99.6836 218.828 99.7747 219.453 99.957C220.293 100.204 221.012 100.644 221.611 101.275C222.21 101.907 222.666 102.682 222.979 103.6C223.291 104.511 223.447 105.637 223.447 106.979C223.447 108.157 223.301 109.173 223.008 110.025C222.65 111.067 222.139 111.91 221.475 112.555C220.973 113.043 220.296 113.424 219.443 113.697C218.805 113.899 217.952 114 216.885 114H211.445V99.6836ZM214.336 102.105V111.588H216.494C217.301 111.588 217.884 111.542 218.242 111.451C218.711 111.334 219.098 111.135 219.404 110.855C219.717 110.576 219.971 110.117 220.166 109.479C220.361 108.834 220.459 107.958 220.459 106.852C220.459 105.745 220.361 104.895 220.166 104.303C219.971 103.71 219.697 103.248 219.346 102.916C218.994 102.584 218.548 102.359 218.008 102.242C217.604 102.151 216.813 102.105 215.635 102.105H214.336ZM225.82 114V99.6836H228.711V114H225.82ZM244.385 114H241.24L239.99 110.748H234.268L233.086 114H230.02L235.596 99.6836H238.652L244.385 114ZM239.062 108.336L237.09 103.023L235.156 108.336H239.062Z" fill="white"/>
<path d="M211.659 126V120.814H212.445V121.542C212.608 121.288 212.825 121.085 213.095 120.932C213.365 120.775 213.673 120.697 214.018 120.697C214.402 120.697 214.716 120.777 214.96 120.937C215.207 121.096 215.382 121.319 215.482 121.605C215.893 121 216.426 120.697 217.084 120.697C217.598 120.697 217.994 120.84 218.271 121.127C218.547 121.41 218.686 121.848 218.686 122.44V126H217.812V122.733C217.812 122.382 217.782 122.13 217.724 121.977C217.668 121.82 217.566 121.695 217.416 121.601C217.266 121.506 217.09 121.459 216.889 121.459C216.524 121.459 216.221 121.581 215.98 121.825C215.74 122.066 215.619 122.453 215.619 122.987V126H214.74V122.631C214.74 122.24 214.669 121.947 214.525 121.752C214.382 121.557 214.148 121.459 213.822 121.459C213.575 121.459 213.345 121.524 213.134 121.654C212.925 121.785 212.774 121.975 212.68 122.226C212.585 122.476 212.538 122.838 212.538 123.31V126H211.659ZM219.989 126V120.814H220.775V121.542C220.938 121.288 221.155 121.085 221.425 120.932C221.695 120.775 222.003 120.697 222.348 120.697C222.732 120.697 223.046 120.777 223.29 120.937C223.537 121.096 223.712 121.319 223.812 121.605C224.223 121 224.757 120.697 225.414 120.697C225.928 120.697 226.324 120.84 226.601 121.127C226.877 121.41 227.016 121.848 227.016 122.44V126H226.142V122.733C226.142 122.382 226.112 122.13 226.054 121.977C225.998 121.82 225.896 121.695 225.746 121.601C225.596 121.506 225.421 121.459 225.219 121.459C224.854 121.459 224.551 121.581 224.311 121.825C224.07 122.066 223.949 122.453 223.949 122.987V126H223.07V122.631C223.07 122.24 222.999 121.947 222.855 121.752C222.712 121.557 222.478 121.459 222.152 121.459C221.905 121.459 221.675 121.524 221.464 121.654C221.256 121.785 221.104 121.975 221.01 122.226C220.915 122.476 220.868 122.838 220.868 123.31V126H219.989ZM228.461 126V118.842H229.408V121.781H233.129V118.842H234.076V126H233.129V122.626H229.408V126H228.461ZM239.008 123.192V122.353L242.04 122.348V125.004C241.575 125.375 241.094 125.655 240.6 125.844C240.105 126.029 239.597 126.122 239.076 126.122C238.373 126.122 237.733 125.972 237.157 125.673C236.584 125.37 236.151 124.934 235.858 124.364C235.565 123.795 235.419 123.158 235.419 122.455C235.419 121.758 235.564 121.109 235.854 120.507C236.146 119.901 236.566 119.452 237.113 119.159C237.66 118.866 238.29 118.72 239.003 118.72C239.521 118.72 239.988 118.804 240.404 118.974C240.824 119.14 241.153 119.372 241.391 119.672C241.628 119.971 241.809 120.362 241.933 120.844L241.078 121.078C240.971 120.714 240.837 120.427 240.678 120.219C240.518 120.01 240.29 119.844 239.994 119.721C239.698 119.594 239.369 119.53 239.008 119.53C238.575 119.53 238.201 119.597 237.885 119.73C237.569 119.861 237.313 120.033 237.118 120.248C236.926 120.463 236.776 120.699 236.669 120.956C236.487 121.399 236.396 121.879 236.396 122.396C236.396 123.035 236.505 123.568 236.723 123.998C236.944 124.428 237.265 124.747 237.685 124.955C238.104 125.163 238.55 125.268 239.022 125.268C239.433 125.268 239.833 125.189 240.224 125.033C240.614 124.874 240.91 124.704 241.112 124.525V123.192H239.008Z" fill="white"/>
<circle cx="128.5" cy="223.5" r="29.5" fill="#09202D"/>
<circle cx="128.5" cy="223.5" r="26.5" fill="#F6F6F6"/>
<rect x="19" y="224" width="49" height="19" rx="9.5" fill="#F8F8F8"/>
<rect x="43" y="224" width="1" height="19" fill="#D9D9D9"/>
<rect x="189" y="224" width="49" height="19" rx="9.5" fill="#F8F8F8"/>
<rect x="213" y="224" width="1" height="19" fill="#D9D9D9"/>
<path d="M58 233.5L51.25 237.397L51.25 229.603L58 233.5Z" fill="#09202D"/>
<path d="M27 233.5L33.75 229.603L33.75 237.397L27 233.5Z" fill="#09202D"/>
<path d="M42 65.5L48.75 61.6029L48.75 69.3971L42 65.5Z" fill="#09202D"/>
<path d="M224.01 238.686V234.76H220.113V233.119H224.01V229.223H225.67V233.119H229.566V234.76H225.67V238.686H224.01Z" fill="black"/>
<path d="M199.635 234.703V232.936H205.035V234.703H199.635Z" fill="black"/>
<path d="M147.124 223.692C146.927 224.213 146.519 225.183 145.741 226.525C145.543 226.867 145.321 227.232 145.076 227.622C143.326 230.371 140.265 234.253 135.048 238.788L127.907 245L120.76 238.788C115.998 234.648 113.039 231.054 111.229 228.37C110.966 227.981 110.732 227.616 110.517 227.274C109.45 225.543 108.917 224.309 108.689 223.692C106.587 218.061 109.456 211.789 115.087 209.686C119.892 207.901 125.151 209.716 127.901 213.778C130.651 209.716 135.916 207.901 140.715 209.686C146.358 211.783 149.227 218.055 147.124 223.692Z" fill="#FF6464"/>
</g>
<defs>
<clipPath id="clip0_682_1106">
<rect width="256" height="256" fill="white"/>
</clipPath>
</defs>
</svg>
