<svg xmlns="http://www.w3.org/2000/svg" width="215.916" height="153" viewBox="0 0 215.916 153">
  <g id="Group_1997" data-name="Group 1997" transform="translate(-0.042)">
    <path id="Path_294" data-name="Path 294" d="M203.986,47.1c-16.916-24.264-63.592-22.561-71.4-22.38s-14.45-1.975-19.731-14.517S94.462-1.425,77.012,2.938,2.5,39.107.136,89.213q-.036.751-.06,1.493A59.034,59.034,0,0,0,8.536,123.3a59.8,59.8,0,0,0,8.455,10.926q.648.663,1.318,1.308a59.574,59.574,0,0,0,34.043,16.238c2.641.327,3.78,1.26,6.517,1.231h85.678l5.711-1.743q3.086-.048,6.069-.357,2.417-.249,4.763-.662a66.223,66.223,0,0,0,8.578-2.1,65.059,65.059,0,0,0,14.071-6.382,65.769,65.769,0,0,0,8.532-6.155q1.266-1.08,2.476-2.216a67.328,67.328,0,0,0,8.147-9.214c15.523-21.167,18.545-51.086,1.776-76.069Q204.331,47.6,203.986,47.1Z" fill="#fdeacf"/>
    <g id="Group_1982" data-name="Group 1982" style="mix-blend-mode: multiply;isolation: isolate">
      <path id="Path_295" data-name="Path 295" d="M12.433,74.528,3.613,87.151l4.934,0L8.537,123.3a59.842,59.842,0,0,0,8.454,10.926l-.68-47.068,4.934,0Z" fill="#feefdc"/>
    </g>
    <g id="Group_1983" data-name="Group 1983" style="mix-blend-mode: multiply;isolation: isolate">
      <path id="Path_296" data-name="Path 296" d="M38.37,33.873,27.114,49.982l6.3,0-.032,98.656a59.441,59.441,0,0,0,11.4,2.564L43.319,49.987l6.3,0Z" fill="#feefdc"/>
    </g>
    <g id="Group_1984" data-name="Group 1984" style="mix-blend-mode: multiply;isolation: isolate">
      <path id="Path_297" data-name="Path 297" d="M152.124,115.818l-8.82,12.624h4.934l-.007,22.834,2.027-.021q3.086-.048,6.069-.357L156,128.445l4.934,0Z" fill="#feefdc"/>
    </g>
    <g id="Group_1985" data-name="Group 1985" style="mix-blend-mode: multiply;isolation: isolate">
      <path id="Path_298" data-name="Path 298" d="M197.248,59.8,185.992,75.914l6.3,0-.019,59.687q1.268-1.08,2.476-2.217a67.261,67.261,0,0,0,8.147-9.213l-.7-48.254,6.3,0Z" fill="#feefdc"/>
    </g>
    <path id="Path_299" data-name="Path 299" d="M103.463,23.665a8.294,8.294,0,0,0-2.875-5.723,6.145,6.145,0,0,0-5.594-1.363l-7.419,2.028.521,1.9,7.419-2.028a4.518,4.518,0,0,1,4.114,1,6.1,6.1,0,0,1,2.114,4.209l1,13.06c.563,7.39-2,14.5-6.865,19.023l1.155,1.544a23.232,23.232,0,0,0,5.929-9.125,27.789,27.789,0,0,0,1.5-11.466l-1-13.059Z" fill="#fff"/>
    <path id="Path_300" data-name="Path 300" d="M88.078,18.1a.422.422,0,0,0-.39-.328h-.011l-.07.01h0l-3.414.523-.145.022a.631.631,0,0,0-.367.794l.771,2.812a.63.63,0,0,0,.737.492.518.518,0,0,0,.051-.017l.009,0,3.272-1.313h0l.057-.024h0a.419.419,0,0,0,.18-.487L88.077,18.1Z" fill="#f7597f"/>
    <path id="Path_301" data-name="Path 301" d="M73.274,44.8l-5.81-11.743a6.09,6.09,0,0,1-.328-4.7,4.509,4.509,0,0,1,3.028-2.955l7.419-2.028-.521-1.9-7.419,2.028a6.133,6.133,0,0,0-4.117,4.018,8.285,8.285,0,0,0,.447,6.387l5.81,11.743a27.855,27.855,0,0,0,7.145,9.1A23.3,23.3,0,0,0,88.688,59.6l.206-1.916C82.4,56.261,76.564,51.447,73.276,44.8Z" fill="#fff"/>
    <path id="Path_302" data-name="Path 302" d="M80.677,19.945a.633.633,0,0,0-.721-.5l-.136.054-3.2,1.286h0l-.066.027-.009.005a.421.421,0,0,0-.168.48l.681,2.482a.419.419,0,0,0,.4.328h0l.061-.01h0L81,23.568l.009,0c.017,0,.035-.007.053-.011a.629.629,0,0,0,.383-.8l-.771-2.812Z" fill="#f7597f"/>
    <path id="Path_303" data-name="Path 303" d="M101.583,44.141a20.889,20.889,0,0,1-8.7,13.328.84.84,0,0,1-.554.152,20.942,20.942,0,0,1-14.288-7.045c-.363-.422-.557-.684-.559-.686L75.172,51.4c.009.013.245.333.677.835a22.452,22.452,0,0,0,7.145,5.49,24.882,24.882,0,0,0,8.879,2.451l7.666,27.937.023-.006,2.666-.729.023-.006L94.586,59.438a24.813,24.813,0,0,0,6.388-6.625,22.4,22.4,0,0,0,3.345-8.358c.116-.651.155-1.046.157-1.062l-2.762-.126s-.034.328-.13.874Z" fill="#4cb7d8"/>
    <path id="Path_304" data-name="Path 304" d="M101.627,43.26a12.247,12.247,0,0,1-.927,3.9l.156.073a12.406,12.406,0,0,0,.937-3.878l2.678.122.007-.172-2.845-.13Z"/>
    <path id="Path_305" data-name="Path 305" d="M101.862,24.106l-.172.013c.007.1.732,9.611.994,13.105a21.489,21.489,0,0,1-.345,6.021l.167.041a21.664,21.664,0,0,0,.35-6.075c-.262-3.494-.986-13.009-.994-13.105Z"/>
    <path id="Path_306" data-name="Path 306" d="M97.083,16.355A6.331,6.331,0,0,0,94.6,16.6l.058.162a6.422,6.422,0,0,1,7.051,2.479l.139-.1A6.623,6.623,0,0,0,97.083,16.355Z"/>
    <path id="Path_307" data-name="Path 307" d="M67.2,28.382a5.167,5.167,0,0,1,2.547-2.74l-.067-.159a5.351,5.351,0,0,0-2.641,2.837,6.772,6.772,0,0,0,.663,5.408l5.8,11.7.155-.077-5.8-11.7a6.613,6.613,0,0,1-.656-5.27Z"/>
    <path id="Path_308" data-name="Path 308" d="M69.036,40.3c1.6,3.6,4.274,8.219,4.3,8.265l.149-.086c-.027-.046-2.7-4.653-4.293-8.248l-.158.07Z"/>
    <path id="Path_309" data-name="Path 309" d="M77.55,49.835l-.049-.06-2.376,1.556.1.144L77.467,50c.479.566,4.287,4.961,7.674,5.787l.041-.167c-3.548-.864-7.591-5.738-7.632-5.787Z"/>
    <path id="Path_310" data-name="Path 310" d="M87.492,17.722l-3.46.528.026.17,3.46-.528Z"/>
    <path id="Path_311" data-name="Path 311" d="M79.924,19.372l-3.343,1.341.064.16,3.343-1.341Z"/>
    <path id="Path_312" data-name="Path 312" d="M77.333,21.041l-.418.793.153.08.418-.793Z"/>
    <path id="Path_313" data-name="Path 313" d="M77.541,21.572l-.418.793.153.08.418-.793Z"/>
    <path id="Path_314" data-name="Path 314" d="M87.782,19.627l-.418.793.153.08.418-.793Z"/>
    <path id="Path_315" data-name="Path 315" d="M88,20.163l-.418.793.153.08.418-.793Z"/>
    <path id="Path_316" data-name="Path 316" d="M134.65,48.946q-.582-.049-1.166-.077a10.029,10.029,0,0,1,.333,2.575V97.609h2.333V51.444a12.451,12.451,0,0,0-.224-2.357Q135.293,49,134.65,48.946Z" fill="#ff424d"/>
    <path id="Path_317" data-name="Path 317" d="M90.835,50.4a28.714,28.714,0,0,0-22.7,1.692c-24.087,13.105-7.782,43.136,6.08,57.846q1.154,1.35,2.332,2.683a342.742,342.742,0,0,0,30.167,29.7V66.23C102.9,59.81,98.3,52.811,90.835,50.4Z" fill="#ef3a4c"/>
    <g id="Group_1986" data-name="Group 1986" style="mix-blend-mode: multiply;isolation: isolate">
      <path id="Path_318" data-name="Path 318" d="M151.36,33.873h-3.166v2.559h-2.57v3.152h2.57v2.559h3.166V39.584h2.57V36.432h-2.57Zm2.146,2.982V39.16h-2.57v2.559H148.62V39.16h-2.57V36.855h2.57V34.3h2.316v2.559Z" fill="#fdeacf"/>
    </g>
    <g id="Group_1987" data-name="Group 1987" style="mix-blend-mode: multiply;isolation: isolate">
      <path id="Path_319" data-name="Path 319" d="M88.282,31.7H85.116v2.559h-2.57v3.152h2.57v2.559h3.166V37.412h2.57V34.259h-2.57Zm2.146,2.982v2.306h-2.57v2.559H85.542V36.987h-2.57V34.682h2.57V32.123h2.316v2.559Z" fill="#fdeacf"/>
    </g>
    <g id="Group_1988" data-name="Group 1988" style="mix-blend-mode: multiply;isolation: isolate">
      <path id="Path_320" data-name="Path 320" d="M23.25,64.177H20.084v2.559h-2.57v3.152h2.57v2.559H23.25V69.888h2.57V66.736H23.25ZM25.4,67.158v2.306h-2.57v2.559H20.51V69.464H17.94V67.158h2.57V64.6h2.316v2.559Z" fill="#fdeacf"/>
    </g>
    <g id="Group_1989" data-name="Group 1989" style="mix-blend-mode: multiply;isolation: isolate">
      <path id="Path_321" data-name="Path 321" d="M167.984,48.569H163.9v3.3h-3.32v4.072h3.32v3.305h4.089V55.946h3.32V51.874h-3.32Zm2.772,3.852V55.4h-3.32V58.7h-2.993V55.4h-3.319V52.421h3.319V49.116h2.993v3.305Z" fill="#fdeacf"/>
    </g>
    <g id="Group_1990" data-name="Group 1990" style="mix-blend-mode: multiply;isolation: isolate">
      <path id="Path_322" data-name="Path 322" d="M186.771,44.356h-1.558v1.26h-1.266v1.552h1.266v1.26h1.558v-1.26h1.266V45.616h-1.266Zm1.057,1.468V46.96h-1.266v1.26h-1.14V46.96h-1.265V45.825h1.265v-1.26h1.14v1.26Z" fill="#fdeacf"/>
    </g>
    <g id="Group_1991" data-name="Group 1991" style="mix-blend-mode: multiply;isolation: isolate">
      <path id="Path_323" data-name="Path 323" d="M95.829,5.252H93.364V7.245h-2V9.7h2v1.993h2.465V9.7h2V7.245h-2ZM97.5,7.574v1.8h-2v1.993h-1.8V9.37h-2v-1.8h2V5.581h1.8V7.574Z" fill="#fdeacf"/>
    </g>
    <g id="Group_1992" data-name="Group 1992" style="mix-blend-mode: multiply;isolation: isolate">
      <path id="Path_324" data-name="Path 324" d="M27.907,53.2H26.349v1.26H25.084v1.552h1.266v1.26h1.558v-1.26h1.266V54.459H27.907Zm1.057,1.468V55.8H27.7v1.26h-1.14V55.8H25.293V54.668h1.266v-1.26H27.7v1.26Z" fill="#fdeacf"/>
    </g>
    <path id="Path_325" data-name="Path 325" d="M60.051,57.8a13.182,13.182,0,0,0-4.559,25.559v2.626a2.481,2.481,0,0,0,2.483,2.478h5.044A2.481,2.481,0,0,0,65.5,85.985V82.993A13.181,13.181,0,0,0,60.05,57.8Z" fill="#49263e"/>
    <path id="Path_326" data-name="Path 326" d="M60.05,82.411A11.429,11.429,0,1,0,48.6,70.982,11.44,11.44,0,0,0,60.05,82.411Z" fill="#fff"/>
    <path id="Path_327" data-name="Path 327" d="M63.774,67.511a6.441,6.441,0,0,1,2.058,2.948l3.36-1.472a10.63,10.63,0,0,0-2.581-4.116l-2.838,2.64Z" fill="#ef3a4c"/>
    <path id="Path_328" data-name="Path 328" d="M50.946,68.987l3.36,1.472a6.446,6.446,0,0,1,2.059-2.948l-2.838-2.64a10.63,10.63,0,0,0-2.581,4.116Z" fill="#fdeacf"/>
    <path id="Path_329" data-name="Path 329" d="M54.159,64.092l2.87,2.67a5.226,5.226,0,0,1,6.049,0l2.87-2.67a8.581,8.581,0,0,0-11.786,0Z" fill="#80c4a4"/>
    <path id="Path_330" data-name="Path 330" d="M60.05,72.428a.639.639,0,1,0-.64-.639A.64.64,0,0,0,60.05,72.428Z" fill="#49263e"/>
    <path id="Path_331" data-name="Path 331" d="M65.64,66.827l-6.931,5.749a.24.24,0,1,0,.307.368l6.931-5.749a.24.24,0,1,0-.307-.368Z" fill="#49263e"/>
    <path id="Path_332" data-name="Path 332" d="M135.926,49.089a12.45,12.45,0,0,1,.224,2.357V97.61h-2.333V51.445a10.028,10.028,0,0,0-.333-2.575c-8.97-.556-15.282,2.611-20.3,8.083q-1.019,1.129-1.939,2.337v-.034a55.272,55.272,0,0,0-4.528,6.973v73.95q1.455-.186,2.749-.436c4.564-4.237,9.59-8.8,14.624-13.636l.092-.088.072-.07q1.069-1.027,2.136-2.072l.12-.119.029-.028c14.479-14.2,28.42-30.672,31.01-48.36C159.27,61.958,149.094,50.553,135.926,49.089Z" fill="#f24e66"/>
    <path id="Path_333" data-name="Path 333" d="M106.714,142.311q1.224-1.152,2.505-2.341l.23-.213.014-.014q-1.294.251-2.749.436Z" fill="#f94e67"/>
    <path id="Path_334" data-name="Path 334" d="M111.242,59.29q.923-1.205,1.939-2.337-1,1.092-1.939,2.3Z" fill="#f94e67"/>
    <path id="Path_335" data-name="Path 335" d="M123.7,39.014a12.457,12.457,0,0,0-12.454,12.431V59.29q.923-1.205,1.939-2.337c.129-.145.261-.288.394-.43V51.445a10.121,10.121,0,0,1,20.242,0V97.61h2.333V51.445A12.423,12.423,0,0,0,123.7,39.014Z" fill="#49263e"/>
    <path id="Path_336" data-name="Path 336" d="M82.608,119.231h-8.3a12.59,12.59,0,0,1-12.587-12.564V85.014H59.385v21.653a14.923,14.923,0,0,0,14.92,14.892H84.862c-.806-.772-1.455-1.548-2.253-2.328Z" fill="#49263e"/>
    <path id="Path_337" data-name="Path 337" d="M126.507,123.758l-.12.119q-1.066,1.044-2.136,2.073l-.072.069c0,.073,0,.144,0,.217a14.287,14.287,0,0,1-.509,3.831,10.843,10.843,0,0,1-.445,1.272,10.436,10.436,0,0,1-2.483,3.574c-2.4,2.276-6.1,3.868-11.294,4.844q-1,.189-2.075.346-.327.048-.66.093c-1.325.181-2.728.328-4.222.444-1.793.138-3.717.23-5.791.276-2.677.059-5.6.043-8.824-.05l-.088,0-.091,0q-1.764-.051-3.646-.133l-.112,2.585q1.274.056,2.5.1c.035,0,.072,0,.107,0l.1,0q3.5.117,6.63.117,1.77,0,3.428-.038c13.335-.3,21.32-2.431,25.824-6.706a14.012,14.012,0,0,0,4.241-10.411c0-.041,0-.082,0-.123a11.158,11.158,0,0,0-.119-1.712C126.615,124.279,126.566,124.017,126.507,123.758Z" fill="#4cb7d8"/>
    <path id="Path_338" data-name="Path 338" d="M78.939,147.393a9.237,9.237,0,1,0-9.254-9.237A9.245,9.245,0,0,0,78.939,147.393Z" fill="#4cb7d8"/>
    <g id="Group_1993" data-name="Group 1993" opacity="0.6">
      <path id="Path_339" data-name="Path 339" d="M79.34,143.453a5.317,5.317,0,1,0-5.7-4.914A5.321,5.321,0,0,0,79.34,143.453Z" fill="#fff"/>
    </g>
    <path id="Path_340" data-name="Path 340" d="M124.179,126.02l-.092.088a10.313,10.313,0,0,1-.142,2.321c-.05.29-.088.551-.115.8a6.076,6.076,0,0,1-.159.839,8.008,8.008,0,0,1-.445,1.273c-1.154,2.6-4.434,6.62-13.763,8.4q-1.294.251-2.749.437c-1.307.167-2.713.294-4.227.374l0,.086.005.086q2.214-.117,4.217-.37,1.3-.165,2.505-.386c4.835-.884,8.585-2.452,11.193-4.684A9.56,9.56,0,0,0,124,129.247c.027-.244.065-.5.114-.789a10.481,10.481,0,0,0,.136-2.508Z"/>
    <path id="Path_341" data-name="Path 341" d="M78.939,128.833v.172a9.151,9.151,0,1,1,0,18.3v.173a9.324,9.324,0,1,0,0-18.647Z"/>
    <path id="Path_342" data-name="Path 342" d="M78.939,132.753v.172a5.232,5.232,0,1,1,0,10.463v.172a5.4,5.4,0,1,0,0-10.807Z"/>
    <path id="Path_343" data-name="Path 343" d="M69.954,136.95a11.321,11.321,0,0,1,1.139-3.528l-.15-.085a11.5,11.5,0,0,0-1.158,3.581,8.8,8.8,0,0,0,2.017,7.251l.13-.113A8.628,8.628,0,0,1,69.954,136.95Z"/>
    <path id="Path_344" data-name="Path 344" d="M126.653,124.543c-.036-.308-.077-.581-.117-.813l-.029.028c-.039.04-.08.079-.12.119a16.773,16.773,0,0,1,.174,3.767,13.768,13.768,0,0,1-4.092,9.082l.06.062.06.062a13.941,13.941,0,0,0,4.145-9.2c.03-.444.04-.871.036-1.272A17.051,17.051,0,0,0,126.653,124.543Z"/>
    <path id="Path_345" data-name="Path 345" d="M117.7,77.582,112.986,94.71l-.651-4.639h-9.578l-1.775,10.869-4.2-23.815L93.276,91.341H74.291v1.172H94.2L96.591,82.8l4.436,25.151,2.728-16.71h7.558l1.3,9.25,5.3-19.259,4.955,12.233h7.452V92.294h-6.661Z" fill="#fff"/>
    <path id="Path_346" data-name="Path 346" d="M133.493,83.636h-4.468v1.38h4.468Z" fill="#49263e"/>
    <path id="Path_347" data-name="Path 347" d="M135.861,80.825h-2.089a1.527,1.527,0,0,0-1.528,1.525v4.844a1.527,1.527,0,0,0,1.528,1.525h2.089a1.527,1.527,0,0,0,1.528-1.525V82.351A1.527,1.527,0,0,0,135.861,80.825Z" fill="#71d3ea"/>
    <path id="Path_348" data-name="Path 348" d="M137.026,90.1h-6.451s-10.2,17.781,0,34.106h8.483c10.2-16.324,0-34.106,0-34.106Z" fill="#49263e"/>
    <path id="Path_349" data-name="Path 349" d="M138.971,87.34h-8.308a1.38,1.38,0,1,0,0,2.759h8.308a1.38,1.38,0,1,0,0-2.759Z" fill="#4cb7d8"/>
    <path id="Path_350" data-name="Path 350" d="M138.971,124.206h-8.308a1.379,1.379,0,1,0,0,2.759h8.308a1.379,1.379,0,1,0,0-2.759Z" fill="#4cb7d8"/>
    <path id="Path_351" data-name="Path 351" d="M129.73,82.8a1.491,1.491,0,0,0-2.983,0v3.051a1.491,1.491,0,0,0,2.983,0Z" fill="#4cb7d8"/>
    <path id="Path_352" data-name="Path 352" d="M47.758,148.972c-4.229-7.042-10.091-1.488-10.091-1.488s-.156-14.6-13.055-13.472c-11.246.985-10.42,15.846-10.42,15.846a6.773,6.773,0,0,0-4.667,1.783A2.139,2.139,0,0,0,8.93,153H58.87a1.255,1.255,0,0,0-.118-.457c-3.686-7.786-10.993-3.571-10.993-3.571Z" fill="#7fc6a6"/>
    <path id="Path_353" data-name="Path 353" d="M189.225,149.858s.826-14.862-10.42-15.846c-12.9-1.128-13.055,13.472-13.055,13.472s-5.863-5.555-10.092,1.488c0,0-7.307-4.215-10.993,3.571a1.223,1.223,0,0,0-.118.457h49.939a2.137,2.137,0,0,0-.6-1.358,6.768,6.768,0,0,0-4.666-1.783Z" fill="#7fc6a6"/>
    <path id="Path_354" data-name="Path 354" d="M41.046,105.892l-.375-.448-.536.483-1.039-.644s-1.64,3.418-1.582,5.149,3.249,9.842,3.249,9.842L43.574,119l-1.626-7.786Z" fill="#fe9f73"/>
    <path id="Path_355" data-name="Path 355" d="M44.239,120.621l-.779-1.9c-.11-.062-2.369.891-2.9,1.05l.719,1.741a4.014,4.014,0,0,0,.519,1.108c.249.181.472-.005.776-.105.426-.143.944-.278,1.349-.395a.082.082,0,0,1,.051-.04l.088-.024c-.013-.048.277-.182.659-.342-.162-.463-.322-.85-.39-1.046Z" fill="#fe9f73"/>
    <path id="Path_356" data-name="Path 356" d="M43.21,119.536a.538.538,0,0,0-.411.217l.13,1.34a.326.326,0,0,0,.377.246c.232-.015.413-.173.4-.338l-.121-1.249c-.014-.139-.232-.231-.371-.215Z" fill="#fe9f73"/>
    <path id="Path_357" data-name="Path 357" d="M44.911,120.22,40.975,121.3a.947.947,0,0,0-.664,1.164l.233.85.6-.165-.233-.849a.325.325,0,0,1,.227-.4l3.936-1.077a.323.323,0,0,1,.4.226l.221.805.6-.165-.221-.8a.949.949,0,0,0-1.167-.663Z" fill="#49263e"/>
    <path id="Path_358" data-name="Path 358" d="M41.393,122.665l-1.3.357a.246.246,0,0,0-.172.3l.078.285a.246.246,0,0,0,.3.172l1.3-.357a.246.246,0,0,0,.172-.3l-.078-.285A.246.246,0,0,0,41.393,122.665Z" fill="#4cb7d8"/>
    <path id="Path_359" data-name="Path 359" d="M46.52,121.262l-1.3.357a.245.245,0,0,0-.172.3l.078.285a.246.246,0,0,0,.3.172l1.3-.357a.246.246,0,0,0,.172-.3l-.078-.285A.246.246,0,0,0,46.52,121.262Z" fill="#4cb7d8"/>
    <path id="Path_360" data-name="Path 360" d="M53.52,119.765l-20.17,5.522,3.718,13.53,20.17-5.523Z" fill="#fff"/>
    <path id="Path_361" data-name="Path 361" d="M33.35,125.288l.453,1.651a1.711,1.711,0,0,0,1.2-2.1l-1.654.453Z" fill="#49263e"/>
    <path id="Path_362" data-name="Path 362" d="M51.866,120.219a1.714,1.714,0,0,0,2.108,1.2l-.454-1.651-1.654.452Z" fill="#e83c4e"/>
    <path id="Path_363" data-name="Path 363" d="M55.584,133.748l1.654-.452-.454-1.651a1.711,1.711,0,0,0-1.2,2.1Z" fill="#e83c4e"/>
    <path id="Path_364" data-name="Path 364" d="M36.614,137.166l.453,1.651,1.654-.452a1.714,1.714,0,0,0-2.108-1.2Z" fill="#49263e"/>
    <g id="Group_1994" data-name="Group 1994" opacity="0.5" style="mix-blend-mode: multiply;isolation: isolate">
      <path id="Path_365" data-name="Path 365" d="M37.992,124.018l-.41.112L41.3,137.66l.41-.113Z" fill="#e83c4e"/>
    </g>
    <g id="Group_1995" data-name="Group 1995" opacity="0.5" style="mix-blend-mode: multiply;isolation: isolate">
      <path id="Path_366" data-name="Path 366" d="M48.835,121.049l-.41.112,3.718,13.53.41-.112Z" fill="#e83c4e"/>
    </g>
    <path id="Path_367" data-name="Path 367" d="M43.163,120.8a.319.319,0,0,0-.234.375l.416,1.125a.364.364,0,0,0,.4.069.562.562,0,0,0,.309-.32l-.414-1.12a.354.354,0,0,0-.473-.128Z" fill="#fe9f73"/>
    <path id="Path_368" data-name="Path 368" d="M42.406,121a.314.314,0,0,0-.225.377l.479,1.2a.529.529,0,0,0,.447.007.406.406,0,0,0,.268-.232l-.491-1.232A.361.361,0,0,0,42.406,121Z" fill="#fe9f73"/>
    <path id="Path_369" data-name="Path 369" d="M41.688,121.25a.291.291,0,0,0-.2.353l.465,1.113a.5.5,0,0,0,.417,0,.376.376,0,0,0,.246-.218l-.477-1.141a.339.339,0,0,0-.448-.109Z" fill="#fe9f73"/>
    <path id="Path_370" data-name="Path 370" d="M43.7,120.907a.3.3,0,0,0-.215-.177.562.562,0,0,0-.346.024.378.378,0,0,0-.278.444l.453,1.21a.062.062,0,0,0,.005.009.071.071,0,0,0,.079.016c.037-.012.059-.044.048-.071L43,121.152a.259.259,0,0,1,.189-.306.374.374,0,0,1,.237-.016.2.2,0,0,1,.147.121l.41,1.109a.067.067,0,0,0,.085.025c.037-.012.059-.044.049-.07l-.41-1.109Z" fill="#f07162"/>
    <path id="Path_371" data-name="Path 371" d="M44.271,120.566a.363.363,0,0,0-.486-.119.313.313,0,0,0-.217.373l.467,1.2a.516.516,0,0,0,.447.01c.127-.047.274-.219.225-.344Z" fill="#fe9f73"/>
    <path id="Path_372" data-name="Path 372" d="M44.337,120.544a.313.313,0,0,0-.219-.175.564.564,0,0,0-.347.028.376.376,0,0,0-.272.446l.473,1.2.005.009a.072.072,0,0,0,.08.015c.037-.013.058-.045.047-.071l-.473-1.2a.257.257,0,0,1,.185-.307.389.389,0,0,1,.237-.019.206.206,0,0,1,.149.119l.428,1.1a.067.067,0,0,0,.086.025c.037-.013.058-.044.048-.071l-.428-1.1Z" fill="#f07162"/>
    <path id="Path_373" data-name="Path 373" d="M42.95,121.1a.31.31,0,0,0-.22-.174.564.564,0,0,0-.346.03c-.214.087-.322.269-.257.433l.491,1.164a.045.045,0,0,0,.005.009.072.072,0,0,0,.081.015c.036-.013.057-.044.046-.071l-.49-1.163c-.046-.114.025-.235.171-.294a.382.382,0,0,1,.237-.02.205.205,0,0,1,.15.118l.492,1.232a.065.065,0,0,0,.085.024c.036-.013.058-.045.048-.07l-.492-1.233Z" fill="#f07162"/>
    <path id="Path_374" data-name="Path 374" d="M42.243,121.309a.294.294,0,0,0-.211-.161.534.534,0,0,0-.327.031c-.2.084-.311.269-.246.421l.465,1.114a.026.026,0,0,0,.005.008.073.073,0,0,0,.081.016c.036-.013.057-.045.047-.072l-.465-1.113a.232.232,0,0,1,.162-.283.351.351,0,0,1,.218-.02.191.191,0,0,1,.14.106l.477,1.141a.067.067,0,0,0,.085.024c.036-.013.057-.045.047-.072l-.477-1.141Z" fill="#f07162"/>
    <path id="Path_375" data-name="Path 375" d="M42.951,119.079l-.281.331.217,1.1.1.534.113.138.312.027.261-.18.044-.291-.011-1.159Z" fill="#fe9f73"/>
    <path id="Path_376" data-name="Path 376" d="M43.68,119.618c-.041,0-.073.028-.072.058l.025,1.231a.213.213,0,0,1-.1.174.4.4,0,0,1-.236.076.268.268,0,0,1-.3-.222l-.244-1.323c0-.029-.034-.052-.074-.049a.073.073,0,0,0-.071.045.055.055,0,0,0,0,.012l.244,1.322c0,.183.2.324.439.322a.6.6,0,0,0,.345-.11.319.319,0,0,0,.141-.255l-.025-1.231c0-.029-.034-.052-.074-.049Z" fill="#f07162"/>
    <path id="Path_377" data-name="Path 377" d="M19.527,147.32l2.871,2,2.1-3.029-3.087-1.676Z" fill="#fe9f73"/>
    <path id="Path_378" data-name="Path 378" d="M24.99,151.67l-.4-.284-1.053-2.411-1.792.373-2.48-1.777a.138.138,0,0,0-.193.031l-.27.376a.094.094,0,0,0,.022.131l5.767,4.132a.349.349,0,0,0,.52-.138.355.355,0,0,0-.125-.432Z" fill="#fdeacf"/>
    <path id="Path_379" data-name="Path 379" d="M23.183,148.207a1.76,1.76,0,0,1-1.913-1.154,1.087,1.087,0,0,0-1.252-.48l-.731,1.017,5.7,4.086a1.858,1.858,0,0,0-.373-1.028l-1.436-2.441Z" fill="#fc5b73"/>
    <path id="Path_380" data-name="Path 380" d="M20,146.554l-.727,1.011.042.031.727-1.012Z"/>
    <path id="Path_381" data-name="Path 381" d="M21.295,147.045l-.049.017a1.916,1.916,0,0,0,.681.9,1.142,1.142,0,0,0,.136.086l.023-.046a1.843,1.843,0,0,1-.792-.953Z"/>
    <path id="Path_382" data-name="Path 382" d="M19.851,147.373l-.049.018.139.373.049-.018Z"/>
    <path id="Path_383" data-name="Path 383" d="M20.088,147.457l-.049.018.139.373.049-.018Z"/>
    <path id="Path_384" data-name="Path 384" d="M25.014,151.658l-5.7-4.085a.2.2,0,0,0-.279.046l-.2.281.042.03.2-.281a.147.147,0,0,1,.206-.034l5.7,4.085a.321.321,0,0,1-.161.581l0,.051a.366.366,0,0,0,.273-.154A.372.372,0,0,0,25.014,151.658Z"/>
    <path id="Path_385" data-name="Path 385" d="M23.206,148.194l-.045.026c.013.022,1.283,2.182,1.577,2.666a1.268,1.268,0,0,1,.236.788l.051.01a1.277,1.277,0,0,0-.242-.824c-.294-.484-1.564-2.644-1.577-2.666Z"/>
    <path id="Path_386" data-name="Path 386" d="M35.013,148.657l.05,3.3,3.5-.049-.064-3.681Z" fill="#fe9f73"/>
    <path id="Path_387" data-name="Path 387" d="M42.042,152.306h-.487l-2.264-1.346-1.238,1.346H35a.138.138,0,0,0-.138.138v.461a.094.094,0,0,0,.094.094h7.1a.348.348,0,0,0,.341-.415.356.356,0,0,0-.353-.279Z" fill="#fdeacf"/>
    <path id="Path_388" data-name="Path 388" d="M41.144,151.693l-2.592-1.148a1.763,1.763,0,0,1-2.228.176,1.087,1.087,0,0,0-1.3.338v1.251h7.021c-.193-.38-.9-.617-.9-.617Z" fill="#fc5b73"/>
    <path id="Path_389" data-name="Path 389" d="M35.052,151.059H35V152.3h.052Z"/>
    <path id="Path_390" data-name="Path 390" d="M36.338,150.7l-.029.043a1.918,1.918,0,0,0,1.076.331,1.255,1.255,0,0,0,.161-.009l-.008-.051a1.854,1.854,0,0,1-1.2-.313Z"/>
    <path id="Path_391" data-name="Path 391" d="M35.354,151.813l-.029.042.331.223.029-.043Z"/>
    <path id="Path_392" data-name="Path 392" d="M35.6,151.738l-.029.043L35.9,152l.029-.043Z"/>
    <path id="Path_393" data-name="Path 393" d="M42.055,152.282h-7.02a.2.2,0,0,0-.2.2v.346h.052v-.346a.148.148,0,0,1,.149-.148h7.02a.321.321,0,0,1,.208.566l.034.039a.37.37,0,0,0,.132-.284.373.373,0,0,0-.373-.373Z"/>
    <path id="Path_394" data-name="Path 394" d="M41.4,151.768c-.522-.221-2.814-1.237-2.838-1.247l-.021.047c.023.01,2.317,1.026,2.839,1.248a1.272,1.272,0,0,1,.652.5l.047-.022a1.284,1.284,0,0,0-.679-.53Z"/>
    <path id="Path_395" data-name="Path 395" d="M39.862,117.123a1.3,1.3,0,0,0-1.757-1.018l-4.866,1.866a1.3,1.3,0,0,0-.836,1.259c.132,3.873.706,19.022,1.912,28.934a1.3,1.3,0,0,0,1.293,1.144,9.98,9.98,0,0,0,2.871-.432,1.307,1.307,0,0,0,.93-1.227l.491-30.158a1.318,1.318,0,0,0-.015-.219l-.023-.149Z" fill="#1d7c7a"/>
    <path id="Path_396" data-name="Path 396" d="M28.809,131.42s-5.9,9.133-8.156,13.1a1.1,1.1,0,0,0,.277,1.409,9.961,9.961,0,0,0,2.882,1.573,1.1,1.1,0,0,0,1.218-.349l10.551-12.588a2.877,2.877,0,0,0,.624-1.324l2.585-13.988-9.161-1.805L28.81,131.42Z" fill="#258d8c"/>
    <path id="Path_397" data-name="Path 397" d="M37.794,96.21a1.975,1.975,0,0,0-.449-2.484c-1.245-1.327-1.818.423-2.409.484s-1.564-.328-2.135.646-.5,1.78-1.121,1.834-2.832,1.193-2.693,3.245a2.435,2.435,0,0,0,2.071,2.295s7.45,1.688,8.314-.169a2.8,2.8,0,0,0-.54-3.665c-.511-.511-1.627-1.062-1.038-2.187Z" fill="#49263e"/>
    <path id="Path_398" data-name="Path 398" d="M39.934,102.27c-.439-.447-2.737-.657-3.111-.7l-.332.032s-1.547-.075-2.325-.075c-.157,0-.284,0-.359.011-.282.007-1.159.031-2.053.1l-.1-.066-.812.152c-.034,0-.066.007-.1.012a.389.389,0,0,0-.1.025l-.64.119-1.34.645-1.167,1.219L26.2,105.346l-1.233,1.664-.425.6s.184.173.518.435c.252-.512.486-.979.654-1.33a12.69,12.69,0,0,0,3.478,1.84c-.252.445-.519.942-.767,1.415.2.077.413.15.627.217l.3-.648-.452,7.04-.075,1.175-.117,1.819c3.575.424,11.465.6,11.465.6l-.346-7.787.26-3.954.16-.226.665-.246.389-.336.3-.215-.294-1.368A13.87,13.87,0,0,0,39.934,102.27Z" fill="#80c5a6"/>
    <path id="Path_399" data-name="Path 399" d="M33.682,96.136l-.542,5.629,2.426.233.166-1.716a.959.959,0,0,0,.8-.259c.52-.564.376-3.346.376-3.346l-3.222-.542Z" fill="#fe9f73"/>
    <path id="Path_400" data-name="Path 400" d="M35.9,98.016a.687.687,0,0,1,.156-.488.022.022,0,0,0-.034-.028.72.72,0,0,0-.167.523.666.666,0,0,0,.326.452c-.031.054-.138.221-.283.238a.023.023,0,0,0-.02.024.022.022,0,0,0,.02.02h0c.2-.022.322-.269.327-.279l.009-.018-.016-.01a.637.637,0,0,1-.324-.432Z" fill="#f07162"/>
    <path id="Path_401" data-name="Path 401" d="M35.664,100.973l.066-.691a4.788,4.788,0,0,1-1.836-.7,5.886,5.886,0,0,0,1.769,1.391Z" fill="#f07162"/>
    <path id="Path_402" data-name="Path 402" d="M34.638,97.383a.043.043,0,0,0,0,.062.049.049,0,0,0,.029.016.047.047,0,0,0,.033-.01c.023-.02.567-.476.986-.066a.045.045,0,1,0,.063-.063c-.478-.466-1.1.058-1.107.063Z"/>
    <path id="Path_403" data-name="Path 403" d="M36.187,97.433a.044.044,0,0,0-.01.062.043.043,0,0,0,.032.018.049.049,0,0,0,.03-.008s.382-.266.557-.084a.044.044,0,0,0,.063,0,.045.045,0,0,0,0-.063c-.229-.238-.655.06-.673.073Z"/>
    <path id="Path_404" data-name="Path 404" d="M36.569,97.769a.123.123,0,1,0,.111.134A.123.123,0,0,0,36.569,97.769Z" fill="#49263e"/>
    <path id="Path_405" data-name="Path 405" d="M35.479,97.664a.123.123,0,1,0,.111.135A.123.123,0,0,0,35.479,97.664Z" fill="#49263e"/>
    <path id="Path_406" data-name="Path 406" d="M33.35,97.418a.692.692,0,1,0,.624.755A.694.694,0,0,0,33.35,97.418Z" fill="#fe9f73"/>
    <path id="Path_407" data-name="Path 407" d="M33.342,97.81a.469.469,0,0,0-.337-.055.022.022,0,1,0,.01.043.434.434,0,0,1,.3.048.3.3,0,0,1,.119.172.328.328,0,0,0-.358-.042.275.275,0,0,0-.141.308.292.292,0,0,0,.252.243h0a.022.022,0,0,0,.024-.02.023.023,0,0,0-.021-.024.245.245,0,0,1-.217-.208.232.232,0,0,1,.117-.259.3.3,0,0,1,.357.08l.051.061-.012-.078a.377.377,0,0,0-.153-.27Z" fill="#f07162"/>
    <path id="Path_408" data-name="Path 408" d="M35.387,95.342c-1.411-.254-1.7.792-1.7.792l1.59.485,1.528.04.1.017A1.661,1.661,0,0,0,35.387,95.342Z" fill="#fe9f73"/>
    <path id="Path_409" data-name="Path 409" d="M35.079,94.958c-.1-.009-1.711.473-1.711.473s-.638,1.894.185,2.039,1.342-1.217,1.342-1.217a2.578,2.578,0,0,0,2.1-.473l-.157-.751s-1.656-.06-1.754-.07Z" fill="#49263e"/>
    <path id="Path_410" data-name="Path 410" d="M35.6,98.14a.027.027,0,0,0-.005.055A.027.027,0,0,0,35.6,98.14Z" fill="#ea5942"/>
    <path id="Path_411" data-name="Path 411" d="M35.426,98.222a.027.027,0,0,0-.005.055A.027.027,0,0,0,35.426,98.222Z" fill="#ea5942"/>
    <path id="Path_412" data-name="Path 412" d="M35.142,98a.027.027,0,0,0-.005.054A.027.027,0,0,0,35.142,98Z" fill="#ea5942"/>
    <path id="Path_413" data-name="Path 413" d="M34.864,98.169a.027.027,0,0,0-.005.055A.027.027,0,0,0,34.864,98.169Z" fill="#ea5942"/>
    <path id="Path_414" data-name="Path 414" d="M34.619,97.878a.027.027,0,0,0-.005.055A.027.027,0,0,0,34.619,97.878Z" fill="#ea5942"/>
    <path id="Path_415" data-name="Path 415" d="M34.482,98.262a.027.027,0,0,0-.005.055A.027.027,0,0,0,34.482,98.262Z" fill="#ea5942"/>
    <path id="Path_416" data-name="Path 416" d="M36.165,98.032a.027.027,0,0,0-.005.055A.027.027,0,0,0,36.165,98.032Z" fill="#ea5942"/>
    <path id="Path_417" data-name="Path 417" d="M36.347,98.274a.027.027,0,0,0-.005.055A.027.027,0,0,0,36.347,98.274Z" fill="#ea5942"/>
    <path id="Path_418" data-name="Path 418" d="M36.6,98.2a.027.027,0,0,0-.005.055A.027.027,0,0,0,36.6,98.2Z" fill="#ea5942"/>
    <path id="Path_419" data-name="Path 419" d="M36.584,98.588a.027.027,0,0,0-.005.055A.027.027,0,0,0,36.584,98.588Z" fill="#ea5942"/>
    <path id="Path_420" data-name="Path 420" d="M36.792,98.378a.027.027,0,0,0-.005.055A.027.027,0,0,0,36.792,98.378Z" fill="#ea5942"/>
    <path id="Path_421" data-name="Path 421" d="M36.781,98.036a.027.027,0,0,0-.005.055A.027.027,0,0,0,36.781,98.036Z" fill="#ea5942"/>
    <path id="Path_422" data-name="Path 422" d="M35.211,98.375a.027.027,0,0,0-.005.055A.027.027,0,0,0,35.211,98.375Z" fill="#ea5942"/>
    <path id="Path_423" data-name="Path 423" d="M30.519,102.346a2.415,2.415,0,0,0-1.084.768.041.041,0,0,0,.008.057.042.042,0,0,0,.024.008.041.041,0,0,0,.033-.017,2.39,2.39,0,0,1,1.044-.739.041.041,0,0,0,.026-.051A.04.04,0,0,0,30.519,102.346Z" fill="#21111d"/>
    <path id="Path_424" data-name="Path 424" d="M30.6,102.723a2.415,2.415,0,0,0-1.084.768.041.041,0,0,0,.008.057.042.042,0,0,0,.024.008.041.041,0,0,0,.033-.017,2.406,2.406,0,0,1,1.044-.74.039.039,0,0,0,.026-.05A.04.04,0,0,0,30.6,102.723Z" fill="#21111d"/>
    <path id="Path_425" data-name="Path 425" d="M38.9,108.243H34.842a.074.074,0,0,0,0,.147H38.9a.074.074,0,0,0,0-.147Z"/>
    <path id="Path_426" data-name="Path 426" d="M38.317,108.951H35.625a.074.074,0,0,0,0,.147h2.692a.074.074,0,0,0,0-.147Z"/>
    <path id="Path_427" data-name="Path 427" d="M35.588,99.283a.5.5,0,0,0,.505-.2c-.012-.006-.809-.247-.809-.247a.5.5,0,0,0,.305.45Z" fill="#fbfdfc"/>
    <path id="Path_428" data-name="Path 428" d="M31.375,101.671a4.751,4.751,0,0,0,3.2,1.051,5.487,5.487,0,0,0,3.287-1.051A29.817,29.817,0,0,0,31.375,101.671Z" fill="#fe9f73"/>
    <path id="Path_429" data-name="Path 429" d="M41.544,106.832c-.347-1.462-1.069-4.5-1.926-4.806a15.346,15.346,0,0,0-2.54-.53.074.074,0,0,0-.082.063.073.073,0,0,0,.064.082,15.334,15.334,0,0,1,2.51.524c.781.274,1.516,3.376,1.831,4.7.047.2.086.365.116.481a2.282,2.282,0,0,1-1.284.781.073.073,0,0,0,.011.146h.011a2.434,2.434,0,0,0,1.4-.865l.022-.029-.009-.034c-.03-.114-.072-.29-.124-.512Z"/>
    <path id="Path_430" data-name="Path 430" d="M39.8,104.477a.073.073,0,0,0,0,.1,2.958,2.958,0,0,1,.281,3.747l-.01.017-.316,4.276.149-.023.311-4.2a3.154,3.154,0,0,0-.309-3.916.073.073,0,0,0-.1,0Z"/>
    <path id="Path_431" data-name="Path 431" d="M39.746,121.333l-.4,24.239.187,0,.4-24.239Z"/>
    <path id="Path_432" data-name="Path 432" d="M36.113,133.22a4.126,4.126,0,0,1-.859,1.588l-8.737,10.424.143.12L35.4,134.928a4.219,4.219,0,0,0,.9-1.672l1.9-10.26-.185-.034-1.9,10.258Z"/>
    <path id="Path_433" data-name="Path 433" d="M32.587,101.476h0a.49.49,0,0,1-.056,0,7.443,7.443,0,0,0-3.03.542c-1.731.682-4.9,5.345-5.033,5.543a.094.094,0,0,0,.025.13.1.1,0,0,0,.053.017.094.094,0,0,0,.078-.042c.033-.048,3.27-4.813,4.946-5.473a7.259,7.259,0,0,1,2.951-.529c.041,0,.067,0,.078,0a.093.093,0,0,0,.086-.1.1.1,0,0,0-.1-.089Z"/>
    <path id="Path_434" data-name="Path 434" d="M49.53,120.761l.049.18,3.874-1.06,3.669,13.349-4.143,1.135.05.18,4.323-1.184L53.585,119.65Z"/>
    <path id="Path_435" data-name="Path 435" d="M42.346,133.016l-.072.172,2.14.888.072-.172Z"/>
    <path id="Path_436" data-name="Path 436" d="M42.341,133.9l-.072.173,2.14.888.072-.173Z"/>
    <path id="Path_437" data-name="Path 437" d="M28.594,117.284a5.546,5.546,0,0,1-1.694-.805,4.55,4.55,0,0,1-1.932-3.647.29.29,0,0,0-.293-.276h0a.289.289,0,0,0-.286.307,5.157,5.157,0,0,0,2.2,4.1,6.159,6.159,0,0,0,1.856.879.29.29,0,0,0,.363-.229v0a.287.287,0,0,0-.206-.329Z" fill="#ffb357"/>
    <path id="Path_438" data-name="Path 438" d="M24.792,114.563l-.089.03a5.207,5.207,0,0,0,2.672,2.88l.036-.087A5.092,5.092,0,0,1,24.792,114.563Z"/>
    <path id="Path_439" data-name="Path 439" d="M30.927,110.081l-.373.736.084.043.373-.737Z"/>
    <path id="Path_440" data-name="Path 440" d="M30.562,109.934l-.373.736.084.042.373-.736Z"/>
    <path id="Path_441" data-name="Path 441" d="M25.062,108.044a13.292,13.292,0,0,0,3.365,1.925c.249-.472.515-.969.767-1.414a12.706,12.706,0,0,1-3.478-1.84C25.548,107.065,25.314,107.532,25.062,108.044Z" fill="#80c5a6"/>
    <path id="Path_442" data-name="Path 442" d="M27.5,111.71c.188-.324.535-1,.924-1.742a13.264,13.264,0,0,1-3.365-1.924,16.318,16.318,0,0,0-1.571,3.792c.139,2.372,3.036,6.191,4.274,7.23l1.057-1.315.411-.511a5.542,5.542,0,0,1-.336-.663c-.646-1.447-1.66-4.412-1.4-4.869Z" fill="#fe9f73"/>
    <path id="Path_443" data-name="Path 443" d="M26.971,109.3a13.685,13.685,0,0,0,2.084.963l.506-1.426-1.24-.246Z" fill="#80c5a6"/>
    <path id="Path_444" data-name="Path 444" d="M30.316,106.855a.075.075,0,0,0-.1.044l-1.236,3.261a.073.073,0,0,0,.043.094.062.062,0,0,0,.026.006.076.076,0,0,0,.069-.048l1.236-3.261a.074.074,0,0,0-.043-.095Z"/>
    <path id="Path_445" data-name="Path 445" d="M31.286,119.37c-.237-.158-.963-.638-1.435-.911-.182-.3.368-.55.708-.6.174-.023.39-.167-.043-.33a4.644,4.644,0,0,0-1.2-.114l-1.142-2.129-2.1,1.885s1.538,2.134,1.734,2.408a4.608,4.608,0,0,0,1.6,1.086c.8.2.6-.137.6-.137.847.126.454-.375.454-.375.749.18.471-.364.471-.364.412.055.491-.081.485-.2a.281.281,0,0,0-.13-.22Z" fill="#fe9f73"/>
    <path id="Path_446" data-name="Path 446" d="M30.945,119.755a5.1,5.1,0,0,1-.733-.344.041.041,0,0,0-.044.068,4.976,4.976,0,0,0,.748.352.041.041,0,0,0,.052-.024.04.04,0,0,0-.024-.052Z" fill="#f07162"/>
    <path id="Path_447" data-name="Path 447" d="M30.473,120.119a2.547,2.547,0,0,1-.654-.379.04.04,0,0,0-.057.005.041.041,0,0,0,0,.052l.005.005a2.522,2.522,0,0,0,.678.392.04.04,0,0,0,.052-.024A.039.039,0,0,0,30.473,120.119Z" fill="#f07162"/>
    <path id="Path_448" data-name="Path 448" d="M30.017,120.493a2.186,2.186,0,0,1-.593-.312.039.039,0,0,0-.057.007.04.04,0,0,0,0,.05.013.013,0,0,0,.006.006,2.228,2.228,0,0,0,.618.326.042.042,0,0,0,.051-.026A.041.041,0,0,0,30.017,120.493Z" fill="#f07162"/>
    <path id="Path_449" data-name="Path 449" d="M47.307,130.3a2.54,2.54,0,1,0-3.444,1.024A2.534,2.534,0,0,0,47.307,130.3Z" fill="#ff424d"/>
    <path id="Path_450" data-name="Path 450" d="M46.628,128.384l-1.388.406-.423-1.38-.489.149.422,1.375-1.382.4.144.49,1.387-.4.424,1.379.489-.149-.422-1.374,1.381-.4Z" fill="#fff"/>
    <path id="Path_451" data-name="Path 451" d="M169.517,151.777l3.859.052.055-3.624-3.844-.477Z" fill="#fe9f73"/>
    <path id="Path_452" data-name="Path 452" d="M176.161,151.777l3.859.052.056-3.624-3.844-.477Z" fill="#fe9f73"/>
    <path id="Path_453" data-name="Path 453" d="M174.94,119.195l-4.714-1.8c-.752-.288-1.236-.066-1.359.728l-.116.339a3.168,3.168,0,0,0-.086.328l.3,29.083a1.264,1.264,0,0,0,.9,1.185,9.745,9.745,0,0,0,2.781.418,1.26,1.26,0,0,0,1.253-1.106c1.169-9.576,1.725-24.213,1.853-27.955a1.256,1.256,0,0,0-.81-1.215Z" fill="#33192c"/>
    <path id="Path_454" data-name="Path 454" d="M171.858,115.534l1.378,7.167,2.237,25.812a1.065,1.065,0,0,0,.791.936,9.648,9.648,0,0,0,3.167.29,1.065,1.065,0,0,0,.987-.98c.836-11.1.516-29.1.516-29.1l-9.076-4.123Z" fill="#49263e"/>
    <path id="Path_455" data-name="Path 455" d="M172.055,150.454a1.969,1.969,0,0,1-2.483-.2l-2.888,1.275s-1.061.352-1.061.9H173.5v-1.6A1.212,1.212,0,0,0,172.055,150.454Z" fill="#33192c"/>
    <path id="Path_456" data-name="Path 456" d="M173.529,150.83h-.057v1.359h.057Z"/>
    <path id="Path_457" data-name="Path 457" d="M170.7,150.778l-.009.057a1.563,1.563,0,0,0,.18.009,2.148,2.148,0,0,0,1.2-.367l-.033-.047A2.059,2.059,0,0,1,170.7,150.778Z"/>
    <path id="Path_458" data-name="Path 458" d="M172.765,151.913l.033.047.369-.248-.033-.047Z"/>
    <path id="Path_459" data-name="Path 459" d="M173.558,152.218H165.6a.313.313,0,0,0-.315.313v.145a.315.315,0,0,0,.315.313h7.961a.125.125,0,0,0,.126-.126v-.519A.126.126,0,0,0,173.558,152.218Z" fill="#ef9029"/>
    <path id="Path_460" data-name="Path 460" d="M166.4,151.618a1.426,1.426,0,0,0-.756.588l.053.025a1.41,1.41,0,0,1,.727-.559c.581-.247,3.136-1.376,3.162-1.387l-.023-.053c-.026.012-2.581,1.14-3.162,1.387Z"/>
    <path id="Path_461" data-name="Path 461" d="M168.149,150.917l.831,1.292h.537c-.22-.341-.624-.97-.95-1.477l-.418.185Z" fill="#d7e4f7"/>
    <path id="Path_462" data-name="Path 462" d="M168.821,150.622l1.02,1.587h.537l-1.139-1.771C169.12,150.489,168.978,150.552,168.821,150.622Z" fill="#d7e4f7"/>
    <path id="Path_463" data-name="Path 463" d="M173.491,152.189h-7.822a.416.416,0,0,0-.416.414.411.411,0,0,0,.147.316l.037-.044a.357.357,0,0,1,.232-.629h7.822a.166.166,0,0,1,.165.165v.384h.057v-.384a.223.223,0,0,0-.222-.223Z"/>
    <path id="Path_464" data-name="Path 464" d="M178.679,150.454a1.969,1.969,0,0,1-2.483-.2l-2.888,1.275s-1.061.352-1.061.9h7.877v-1.6A1.212,1.212,0,0,0,178.679,150.454Z" fill="#49263e"/>
    <path id="Path_465" data-name="Path 465" d="M180.153,150.83H180.1v1.359h.057Z"/>
    <path id="Path_466" data-name="Path 466" d="M177.326,150.778l-.009.057a1.563,1.563,0,0,0,.18.009,2.148,2.148,0,0,0,1.2-.367l-.033-.047A2.059,2.059,0,0,1,177.326,150.778Z"/>
    <path id="Path_467" data-name="Path 467" d="M179.389,151.913l.033.047.369-.248-.033-.047Z"/>
    <path id="Path_468" data-name="Path 468" d="M179.125,151.843l.032.047.368-.247-.032-.048Z"/>
    <path id="Path_469" data-name="Path 469" d="M180.182,152.218h-7.961a.313.313,0,0,0-.315.313v.145a.315.315,0,0,0,.315.313h7.961a.125.125,0,0,0,.126-.126v-.519A.126.126,0,0,0,180.182,152.218Z" fill="#ffb357"/>
    <path id="Path_470" data-name="Path 470" d="M173.023,151.618a1.426,1.426,0,0,0-.756.588l.053.025a1.41,1.41,0,0,1,.727-.559c.581-.247,3.136-1.376,3.162-1.387l-.023-.053c-.026.012-2.581,1.14-3.162,1.387Z"/>
    <path id="Path_471" data-name="Path 471" d="M174.773,150.917l.831,1.292h.537c-.22-.341-.624-.97-.95-1.477l-.418.185Z" fill="#d7e4f7"/>
    <path id="Path_472" data-name="Path 472" d="M175.445,150.622l1.02,1.587H177l-1.139-1.771C175.744,150.489,175.6,150.552,175.445,150.622Z" fill="#d7e4f7"/>
    <path id="Path_473" data-name="Path 473" d="M180.115,152.189h-7.822a.416.416,0,0,0-.416.414.411.411,0,0,0,.147.316l.037-.044a.357.357,0,0,1,.232-.629h7.822a.166.166,0,0,1,.165.165v.384h.057v-.384a.223.223,0,0,0-.222-.223Z"/>
    <path id="Path_474" data-name="Path 474" d="M168.487,133.12l2.858.363.122-22.513-2.826-.894Z" fill="#fff"/>
    <path id="Path_475" data-name="Path 475" d="M176.652,109.9c-.712,4.874-.289,23.49-.289,23.49a57.778,57.778,0,0,0,6.045,0l.426-20.581S177.365,105.026,176.652,109.9Z" fill="#fff"/>
    <path id="Path_476" data-name="Path 476" d="M164.418,114.144l3.477-.885,1.49-4.26c-.156,0-3.6,1.176-3.6,1.176Z" fill="#fff"/>
    <path id="Path_477" data-name="Path 477" d="M180.635,97.847c-1.516-.157-5.5-.166-5.5-.166s-.523.155-.358.072c-4.37.922-4.745,4.185-4.745,4.185l-1.824,9.451-2.384.209a17.088,17.088,0,0,0-1.116,3.721l6.508,1.818,5.81.887s2.276.886,4.3-1.886c.206-.282,1.353-2.893,1.511-3.329.872-2.4.787-7.528.67-10.918,0,0-.514-3.8-2.869-4.045Z" fill="#fff"/>
    <path id="Path_478" data-name="Path 478" d="M168.542,109.219l-2.258.714a.073.073,0,1,0,.044.139h0l2.258-.714a.074.074,0,0,0,.05-.092A.076.076,0,0,0,168.542,109.219Z" fill="#21111d"/>
    <path id="Path_479" data-name="Path 479" d="M160.793,104.981l-1.622.764-.106.05-1.621.764,7.437,18.949a.992.992,0,0,0,1.347.533l4.128-1.945a.985.985,0,0,0,.44-1.375l-10-17.741Z" fill="#ff424d"/>
    <path id="Path_480" data-name="Path 480" d="M160.581,102.7l-4.8,2.264.9,1.759c.107.225.735.325.962.218l3.638-1.714a.452.452,0,0,0,.216-.6Z" fill="#f99247"/>
    <path id="Path_481" data-name="Path 481" d="M157.6,106.862a.752.752,0,0,1-1-.356l-.751-1.578-.16.075.751,1.579a.928.928,0,0,0,1.234.438l2.615-1.232-.076-.159-2.616,1.232Z" fill="#21111d"/>
    <g id="Group_1996" data-name="Group 1996" opacity="0.5">
      <path id="Path_482" data-name="Path 482" d="M153.93,104.66a9.673,9.673,0,1,0-9.716-9.673A9.695,9.695,0,0,0,153.93,104.66Z" fill="#fff"/>
    </g>
    <path id="Path_483" data-name="Path 483" d="M155.714,87.706c-1.986-.345-3.729.14-3.9,1.085s1.311,1.989,3.3,2.334,3.729-.14,3.895-1.085S157.7,88.051,155.714,87.706Z" fill="#f3fffe"/>
    <path id="Path_484" data-name="Path 484" d="M157.559,106.973l7.338,18.822.165-.064-7.338-18.822Z" fill="#21111d"/>
    <path id="Path_485" data-name="Path 485" d="M149.114,84.854a11.221,11.221,0,1,0,15,5.339A11.19,11.19,0,0,0,149.114,84.854Zm8.973,18.879a9.682,9.682,0,1,1,4.627-12.882A9.735,9.735,0,0,1,158.087,103.732Z" fill="#80c4a4"/>
    <path id="Path_486" data-name="Path 486" d="M158.71,105.042a11.133,11.133,0,1,1-1.261-20.613l.055-.167A11.282,11.282,0,1,0,164.5,99.108l-.164-.064a11.1,11.1,0,0,1-5.625,6Z" fill="#21111d"/>
    <path id="Path_487" data-name="Path 487" d="M163.9,110.189c-.462.136-.387.121-.52.195l-1.281-.051c-.431-.073-1.016-.218-1.016-.218a.314.314,0,0,0-.429.193.367.367,0,0,0,.249.434l1.74.542a.085.085,0,0,1,.059.1l-.016.09a.084.084,0,0,1-.1.069l-1.935-.335a.352.352,0,0,0-.41.3.368.368,0,0,0,.3.4l1.921.334a.087.087,0,0,1,.07.1l-.006.029a.085.085,0,0,1-.082.071l-1.759.041a.458.458,0,0,0-.422.361.283.283,0,0,0,.3.344l1.726-.04a.086.086,0,0,1,.016.17l-1.152.181a.368.368,0,0,0-.309.393.353.353,0,0,0,.4.3l.159-.025a5.3,5.3,0,0,1,1.909.047l2.177.454a28.658,28.658,0,0,0,.353-2.93.694.694,0,0,0,.053-.544s-1.489-1.145-2-.993Z" fill="#fe9f73"/>
    <path id="Path_488" data-name="Path 488" d="M181.992,97.946a9.791,9.791,0,0,0-3.944-.489s3.555,6.23,3.662,6.518,1.855.3,1.855.3.353-5.328-1.574-6.331Z" fill="#fff"/>
    <path id="Path_489" data-name="Path 489" d="M179.9,103.849a.075.075,0,0,0-.094.045c-1.064,3.085-3.141,7.919-3.162,7.967a.074.074,0,0,0,.038.1.068.068,0,0,0,.042,0,.071.071,0,0,0,.054-.043c.021-.048,2.1-4.888,3.167-7.978a.072.072,0,0,0-.046-.092Z" fill="#21111d"/>
    <path id="Path_490" data-name="Path 490" d="M178.724,111.678l-2,.1a.073.073,0,1,0,.008.146l2-.1h.01a.075.075,0,0,0,.06-.075.073.073,0,0,0-.077-.069Z" fill="#21111d"/>
    <path id="Path_491" data-name="Path 491" d="M161.831,110.282l2.17.349-.961-1.663Z" fill="#ff424d"/>
    <path id="Path_492" data-name="Path 492" d="M173.515,98.2c-.84.622-1.508,4.528-1.508,4.528l-.057.326-.248,3.085-.338,4.7,5.177,1.046c.072-2.348,1.95-14.45,1.95-14.45l-1.812.041a8.031,8.031,0,0,0-3.163.72Z" fill="#7fc6a6"/>
    <path id="Path_493" data-name="Path 493" d="M171.284,102.672a.073.073,0,0,0-.084.059c-.35,1.972-.7,7.914-.7,7.974a.07.07,0,0,0,.024.059.078.078,0,0,0,.044.018.071.071,0,0,0,.077-.068c0-.059.348-5.993.7-7.958a.073.073,0,0,0-.06-.084Z" fill="#21111d"/>
    <path id="Path_494" data-name="Path 494" d="M170.766,100.063a4.4,4.4,0,0,0-.808,1.864l-1.4,7.278,0,.029.518.82a.074.074,0,0,0,.09.028.06.06,0,0,0,.011-.006.073.073,0,0,0,.023-.1l-.488-.771,1.4-7.253v0a4.3,4.3,0,0,1,.787-1.805,6.287,6.287,0,0,1,4.208-2.376.879.879,0,0,1-.021-.144,6.429,6.429,0,0,0-4.31,2.441Z" fill="#21111d"/>
    <path id="Path_495" data-name="Path 495" d="M164.553,113.332a11.537,11.537,0,0,0,0,2.024l3.756.985.239-5.874-2.994-.412a7.136,7.136,0,0,0-1,3.279Z" fill="#fff"/>
    <path id="Path_496" data-name="Path 496" d="M171.345,124.138l4.893.786.075-6.909-4.95-.932Z" fill="#7fc6a6"/>
    <path id="Path_497" data-name="Path 497" d="M179.2,112.317c-.1-.021-10.335-2.119-13.678-2.412l-.044,0-.024.037a8.539,8.539,0,0,0-1,3.439.073.073,0,0,0,.064.081.071.071,0,0,0,.081-.064,8.973,8.973,0,0,1,.951-3.34c3.381.307,13.514,2.385,13.616,2.406h.028a.073.073,0,0,0,0-.143Z" fill="#21111d"/>
    <path id="Path_498" data-name="Path 498" d="M183.3,111.123a.084.084,0,0,0-.1.066c-.013.061-1.311,6.159-4.3,6.753-3.028.6-14.08-2.591-14.191-2.623a.082.082,0,0,0-.1.058.085.085,0,0,0,.057.105c.308.089,5.3,1.531,9.46,2.273a15.88,15.88,0,0,0,4.812.354c3.1-.615,4.385-6.629,4.438-6.885a.085.085,0,0,0-.067-.1Z" fill="#21111d"/>
    <path id="Path_499" data-name="Path 499" d="M177.884,91.483a3.67,3.67,0,0,0-2.289-.267,1.551,1.551,0,0,0-1.12,1.41l-.034.644,3.4-1.239s.513.276.475.2-.438-.746-.438-.746Z" fill="#fe9f73"/>
    <path id="Path_500" data-name="Path 500" d="M178.028,91.694l-3.549.86-.145,2.716s-.093.968.754,1.135l-.228,1.286a1.011,1.011,0,0,0,.636,1.125,2.663,2.663,0,0,0,.8.166,1.63,1.63,0,0,0,1.642-1.008,13.375,13.375,0,0,0-.05-2.111l.075-.853.066-3.316Z" fill="#fe9f73"/>
    <path id="Path_501" data-name="Path 501" d="M175.731,93.67a.041.041,0,0,0,.048.066c.472-.339.937.187.956.209a.04.04,0,0,0,.029.014.042.042,0,0,0,.028-.009.041.041,0,0,0,0-.057c-.006-.006-.534-.6-1.066-.222Z" fill="#21111d"/>
    <path id="Path_502" data-name="Path 502" d="M174.492,93.389a.041.041,0,1,0,.049.065c.2-.153.532.16.536.163a.037.037,0,0,0,.026.011.042.042,0,0,0,.031-.012.041.041,0,0,0,0-.057c-.016-.015-.386-.366-.642-.169Z" fill="#21111d"/>
    <path id="Path_503" data-name="Path 503" d="M176.062,93.963a.122.122,0,0,0-.128.115.122.122,0,1,0,.128-.115Z"/>
    <path id="Path_504" data-name="Path 504" d="M174.774,93.774a.122.122,0,0,0-.128.115.121.121,0,0,0,.115.128.121.121,0,1,0,.013-.242Z"/>
    <path id="Path_505" data-name="Path 505" d="M177.886,91.44l.085.264-.507,1.164.185,3c1.267.2,1.18-1.613,1.2-1.881a2.536,2.536,0,0,0,.281-1.631,1.3,1.3,0,0,0-1.248-.918Z" fill="#21111d"/>
    <path id="Path_506" data-name="Path 506" d="M177.713,93.4a.729.729,0,1,0,.692.767A.732.732,0,0,0,177.713,93.4Z" fill="#fe9f73"/>
    <path id="Path_507" data-name="Path 507" d="M177.678,93.848a.456.456,0,0,1,.325,0,.021.021,0,0,0,.027-.011.02.02,0,0,0-.011-.026.491.491,0,0,0-.358.005.392.392,0,0,0-.2.255l-.022.07.055-.048a.32.32,0,0,1,.389-.028.247.247,0,0,1,.082.292.262.262,0,0,1-.258.185h0a.021.021,0,0,0-.022.019.021.021,0,0,0,.019.022h0a.3.3,0,0,0,.3-.212.284.284,0,0,0-.1-.339.345.345,0,0,0-.385-.007.332.332,0,0,1,.158-.172Z" fill="#f07162"/>
    <path id="Path_508" data-name="Path 508" d="M175.088,96.4l-.169.948a2,2,0,0,0,2.19-1.668A1.955,1.955,0,0,1,175.088,96.4Z" fill="#f07162"/>
    <path id="Path_509" data-name="Path 509" d="M175.469,94.834l-.4-.155.18-.947a.021.021,0,0,0-.017-.023.02.02,0,0,0-.024.016l-.186.98.431.168.006,0a.02.02,0,0,0,.009-.039Z" fill="#f07162"/>
    <path id="Path_510" data-name="Path 510" d="M177.493,94.734l-.074,1.371.486-.014-.068-1.377Z" fill="#fe9f73"/>
    <path id="Path_511" data-name="Path 511" d="M177.7,91.4a2.1,2.1,0,0,1-.234,1.508c-.444.927,1.025-.3,1.025-.3S178.465,91.219,177.7,91.4Z" fill="#21111d"/>
    <path id="Path_512" data-name="Path 512" d="M175.634,90.432c-.922-.354-.84.682-.84.682a.551.551,0,0,0-.579.715c.153.734,3.248,1.081,3.248,1.081s1.716-.289,1.274-1.18-2.182-.943-3.1-1.3Z" fill="#21111d"/>
    <path id="Path_513" data-name="Path 513" d="M177.191,92.609a2.218,2.218,0,0,0,.018,1.2l.127.176.164-.557.6-.6S177.4,92.23,177.191,92.609Z" fill="#21111d"/>
    <path id="Path_514" data-name="Path 514" d="M175.344,95.513c.312-.011.414-.359.414-.359s-.839.029-.853.031a.5.5,0,0,0,.439.328Z" fill="#fbfdfc"/>
    <path id="Path_515" data-name="Path 515" d="M160.843,114.426l-1.173.623a.392.392,0,0,0-.07.538.355.355,0,0,0,.449.2l1.178-.626a.4.4,0,0,0,.016-.444A.623.623,0,0,0,160.843,114.426Z" fill="#fe9f73"/>
    <path id="Path_516" data-name="Path 516" d="M161.286,115.117l-1.284.726a.4.4,0,0,0-.061.542.351.351,0,0,0,.45.189l1.253-.708a.588.588,0,0,0-.061-.491.454.454,0,0,0-.3-.259Z" fill="#fe9f73"/>
    <path id="Path_517" data-name="Path 517" d="M161.559,115.934l-1.187.695a.374.374,0,0,0-.052.507.323.323,0,0,0,.42.171l1.158-.678a.555.555,0,0,0-.061-.458A.418.418,0,0,0,161.559,115.934Z" fill="#fe9f73"/>
    <path id="Path_518" data-name="Path 518" d="M161.28,115.036l-1.266.68a.289.289,0,0,1-.366-.161.419.419,0,0,1-.054-.257.222.222,0,0,1,.111-.179l1.161-.617a.073.073,0,0,0,.016-.1.069.069,0,0,0-.086-.043l-1.161.617a.334.334,0,0,0-.162.263.61.61,0,0,0,.079.376.423.423,0,0,0,.532.238l1.267-.681a.036.036,0,0,0,.009-.007.08.08,0,0,0,.006-.09.068.068,0,0,0-.086-.043Z" fill="#f07162"/>
    <path id="Path_519" data-name="Path 519" d="M160.347,113.76l-1.173.648a.4.4,0,0,0-.058.552.349.349,0,0,0,.445.181l1.258-.695a.567.567,0,0,0-.058-.491c-.071-.132-.283-.267-.414-.195Z" fill="#fe9f73"/>
    <path id="Path_520" data-name="Path 520" d="M160.779,114.37l-1.255.7a.287.287,0,0,1-.367-.156.417.417,0,0,1-.057-.257.227.227,0,0,1,.109-.182l1.151-.636a.074.074,0,0,0,.015-.1c-.02-.038-.058-.057-.086-.041l-1.151.636a.338.338,0,0,0-.16.266.618.618,0,0,0,.083.376.418.418,0,0,0,.533.231l1.255-.7a.051.051,0,0,0,.009-.008.08.08,0,0,0,.005-.09c-.02-.038-.058-.057-.086-.041Z" fill="#f07162"/>
    <path id="Path_521" data-name="Path 521" d="M161.547,115.782l-1.209.714c-.118.067-.262.009-.35-.143a.416.416,0,0,1-.059-.257.227.227,0,0,1,.108-.183l1.285-.726a.073.073,0,0,0,.013-.1c-.02-.038-.058-.057-.085-.042l-1.285.726a.347.347,0,0,0-.158.269.618.618,0,0,0,.086.375.392.392,0,0,0,.517.217l1.21-.714a.038.038,0,0,0,.008-.007.077.077,0,0,0,0-.091.065.065,0,0,0-.085-.04Z" fill="#f07162"/>
    <path id="Path_522" data-name="Path 522" d="M161.827,116.518l-1.157.679a.259.259,0,0,1-.337-.135.384.384,0,0,1-.055-.236.213.213,0,0,1,.1-.17l1.187-.695a.077.077,0,0,0,.013-.1c-.02-.038-.059-.056-.086-.04l-1.187.7a.327.327,0,0,0-.146.255.585.585,0,0,0,.084.354.387.387,0,0,0,.5.206l1.156-.679.009-.006a.078.078,0,0,0,0-.092c-.019-.038-.058-.056-.085-.039Z" fill="#f07162"/>
    <path id="Path_523" data-name="Path 523" d="M123.7,41.256a10.21,10.21,0,0,0-10.208,10.189h.173a10.035,10.035,0,0,1,20.07,0h.173A10.188,10.188,0,0,0,123.7,41.256Z" fill="#1d1d1b"/>
    <path id="Path_524" data-name="Path 524" d="M123.7,38.928a12.542,12.542,0,0,0-12.54,12.517h.173a12.367,12.367,0,1,1,24.734,0h.173A12.506,12.506,0,0,0,123.7,38.928Z" fill="#1d1d1b"/>
    <path id="Path_525" data-name="Path 525" d="M135.861,80.738h-2.088a1.614,1.614,0,0,0-1.614,1.612v4.989h.173V82.35a1.442,1.442,0,0,1,1.441-1.439h2.088A1.442,1.442,0,0,1,137.3,82.35v4.989h.173V82.35A1.615,1.615,0,0,0,135.861,80.738Z" fill="#1d1d1b"/>
    <path id="Path_526" data-name="Path 526" d="M138.781,87.254H130.32v.173h8.461Z" fill="#1d1d1b"/>
  </g>
</svg>
