<svg width="40" height="40" viewBox="0 0 40 40" fill="none" xmlns="http://www.w3.org/2000/svg">
<path d="M18.5541 21.967L16.6385 20.0172C16.3648 19.7664 16.0341 19.6409 15.6464 19.6409C15.2588 19.6409 14.9395 19.7664 14.6886 20.0172C14.415 20.2909 14.2722 20.6156 14.2604 20.9914C14.2494 21.3682 14.3808 21.6934 14.6544 21.967L17.5963 24.9089C17.8471 25.1597 18.1664 25.2851 18.5541 25.2851C18.9417 25.2851 19.261 25.1597 19.5119 24.9089L25.3271 19.0936C25.5779 18.8428 25.7034 18.5235 25.7034 18.1358C25.7034 17.7481 25.5779 17.4175 25.3271 17.1438C25.0534 16.893 24.7287 16.7616 24.3529 16.7498C23.9761 16.7388 23.6509 16.8702 23.3773 17.1438L18.5541 21.967ZM19.9908 33.3238C18.2804 33.3238 16.6786 32.9991 15.1853 32.3496C13.6912 31.6992 12.3913 30.8208 11.2857 29.7143C10.1792 28.6087 9.30077 27.3088 8.65038 25.8147C8.0009 24.3214 7.67615 22.7196 7.67615 21.0092C7.67615 19.2989 8.0009 17.6966 8.65038 16.2024C9.30077 14.7092 10.1792 13.4093 11.2857 12.3028C12.3913 11.1972 13.6912 10.3197 15.1853 9.67022C16.6786 9.01983 18.2804 8.69463 19.9908 8.69463C21.7011 8.69463 23.3034 9.01983 24.7976 9.67022C26.2908 10.3197 27.5907 11.1972 28.6972 12.3028C29.8028 13.4093 30.6808 14.7092 31.3311 16.2024C31.9806 17.6966 32.3054 19.2989 32.3054 21.0092C32.3054 22.7196 31.9806 24.3214 31.3311 25.8147C30.6808 27.3088 29.8028 28.6087 28.6972 29.7143C27.5907 30.8208 26.2908 31.6992 24.7976 32.3496C23.3034 32.9991 21.7011 33.3238 19.9908 33.3238ZM8.25768 13.2442C8.00682 13.495 7.69349 13.6145 7.31766 13.6027C6.94093 13.5917 6.62713 13.4608 6.37628 13.21C6.12543 12.9591 6 12.6399 6 12.2522C6 11.8645 6.12543 11.5452 6.37628 11.2944L10.3101 7.36055C10.561 7.10969 10.8748 6.98974 11.2515 7.00069C11.6273 7.01255 11.9407 7.1439 12.1915 7.39475C12.4424 7.64561 12.5678 7.96487 12.5678 8.35256C12.5678 8.74024 12.4424 9.05951 12.1915 9.31036L8.25768 13.2442ZM31.6896 13.21L27.7558 9.27615C27.505 9.0253 27.3855 8.7115 27.3973 8.33477C27.4083 7.95895 27.5392 7.64561 27.79 7.39475C28.0409 7.1439 28.3601 7.01847 28.7478 7.01847C29.1355 7.01847 29.4548 7.1439 29.7056 7.39475L33.6395 11.3286C33.8903 11.5794 34.0103 11.8928 33.9993 12.2686C33.9875 12.6453 33.8561 12.9591 33.6052 13.21C33.3544 13.4608 33.0351 13.5863 32.6474 13.5863C32.2598 13.5863 31.9405 13.4608 31.6896 13.21Z" fill="white"/>
</svg>
