<svg width="40" height="40" viewBox="0 0 40 40" fill="none" xmlns="http://www.w3.org/2000/svg">
<path d="M10.2422 23.4766C10.0443 23.4766 9.88542 23.4245 9.76562 23.3203C9.65104 23.2109 9.59375 23.0677 9.59375 22.8906C9.59375 22.7656 9.6276 22.6016 9.69531 22.3984L12.9062 13.4219C13.0052 13.1458 13.1302 12.9453 13.2812 12.8203C13.4323 12.6901 13.6302 12.625 13.875 12.625C14.1198 12.625 14.3177 12.6901 14.4688 12.8203C14.6198 12.9453 14.7448 13.1458 14.8438 13.4219L18.0547 22.3984C18.1224 22.5859 18.1562 22.7474 18.1562 22.8828C18.1562 23.0651 18.0964 23.2109 17.9766 23.3203C17.8568 23.4245 17.6979 23.4766 17.5 23.4766C17.3125 23.4766 17.1615 23.4271 17.0469 23.3281C16.9323 23.2292 16.8385 23.0651 16.7656 22.8359L15.8672 20.1719H11.875L10.9766 22.8359C10.9036 23.0703 10.8099 23.237 10.6953 23.3359C10.5807 23.4297 10.4297 23.4766 10.2422 23.4766ZM12.2422 19.0703H15.5L13.8984 14.3203H13.8438L12.2422 19.0703Z" fill="black"/>
<rect x="17.5" y="14.5" width="15.5" height="15.5" rx="4" stroke="black" stroke-width="2"/>
<path fill-rule="evenodd" clip-rule="evenodd" d="M11 12H18.5C19.8493 12 20.9905 12.8908 21.3677 14.1163C21.9487 13.8801 22.5842 13.7499 23.25 13.7499H23.3425C22.7874 11.5934 20.8298 10 18.5 10H11C8.23858 10 6 12.2386 6 15V22.5C6 25.2614 8.23858 27.5 11 27.5H18.4075C18.3047 27.1005 18.25 26.6816 18.25 26.2499V25.5H11C9.34315 25.5 8 24.1569 8 22.5V15C8 13.3431 9.34315 12 11 12Z" fill="black"/>
<path d="M21.75 19.625C24.0873 19.625 26.4153 19.625 28.75 19.625" stroke="black" stroke-width="2" stroke-linecap="round"/>
<path d="M25.25 17C25.25 17.5749 25.25 18.2138 25.25 18.75" stroke="black" stroke-width="2" stroke-linecap="round"/>
<path d="M27.875 19.625C27.5177 21.2255 27.046 23.2736 25.4347 24.3646C24.4543 25.0284 23.1138 25.75 21.75 25.75" stroke="black" stroke-width="2" stroke-linecap="round"/>
<path d="M23.5 23.125C23.7302 23.5393 24.0289 24.4149 24.5938 24.6412C25.1035 24.8454 25.5458 25.1439 26.0369 25.3716C26.3157 25.5009 27.7727 25.8638 27.875 25.7147" stroke="black" stroke-width="2" stroke-linecap="round"/>
</svg>
