<svg width="40" height="40" viewBox="0 0 40 40" fill="none" xmlns="http://www.w3.org/2000/svg">
<path d="M19.6336 15.1304C18.6705 15.1304 17.729 15.416 16.9282 15.9511C16.1274 16.4862 15.5033 17.2467 15.1347 18.1365C14.7661 19.0263 14.6697 20.0054 14.8576 20.95C15.0455 21.8946 15.5093 22.7623 16.1903 23.4433C16.8713 24.1243 17.739 24.5881 18.6836 24.776C19.6282 24.9639 20.6073 24.8675 21.4971 24.4989C22.3869 24.1303 23.1474 23.5062 23.6825 22.7054C24.2176 21.9046 24.5032 20.9631 24.5032 20C24.4993 18.7097 23.985 17.4733 23.0726 16.561C22.1603 15.6486 20.9239 15.1343 19.6336 15.1304ZM30.147 20C30.1445 20.455 30.1111 20.9093 30.0472 21.3598L33.0109 23.6802C33.14 23.7868 33.227 23.9358 33.2563 24.1006C33.2856 24.2654 33.2554 24.4353 33.171 24.5798L30.3673 29.4202C30.2821 29.5635 30.1491 29.6721 29.9917 29.727C29.8342 29.7819 29.6625 29.7795 29.5066 29.7203L26.0219 28.3203C25.2962 28.879 24.5021 29.3428 23.6589 29.7002L23.1379 33.3998C23.1087 33.5655 23.0229 33.716 22.8951 33.8255C22.7673 33.9349 22.6055 33.9966 22.4373 34H16.8299C16.6648 33.9968 16.5056 33.9377 16.3783 33.8323C16.2511 33.727 16.1633 33.5816 16.1293 33.4199L15.6083 29.7203C14.7627 29.367 13.9681 28.9025 13.2453 28.3391L9.76056 29.7391C9.60478 29.7984 9.43309 29.8009 9.27567 29.7461C9.11825 29.6914 8.98519 29.5828 8.89986 29.4397L6.09621 24.5999C6.01182 24.4553 5.98159 24.2855 6.01091 24.1207C6.04024 23.9559 6.12721 23.8068 6.2563 23.7003L9.22004 21.3799C9.15682 20.9226 9.12348 20.4617 9.12021 20C9.12274 19.545 9.15609 19.0907 9.22004 18.6402L6.2563 16.3198C6.12721 16.2132 6.04024 16.0642 6.01091 15.8994C5.98159 15.7346 6.01182 15.5647 6.09621 15.4202L8.89986 10.5798C8.98509 10.4365 9.11812 10.3279 9.27555 10.273C9.43298 10.2181 9.60472 10.2205 9.76056 10.2797L13.2453 11.6797C13.971 11.121 14.7651 10.6572 15.6083 10.2998L16.1293 6.60017C16.1585 6.43446 16.2443 6.28401 16.3721 6.17454C16.4999 6.06507 16.6617 6.00338 16.8299 6H22.4373C22.6024 6.00321 22.7616 6.06233 22.8889 6.16768C23.0161 6.27304 23.1039 6.41842 23.1379 6.58009L23.6589 10.2797C24.5055 10.6328 25.3012 11.0972 26.0249 11.6609L29.5066 10.2609C29.6624 10.2016 29.8341 10.1991 29.9915 10.2539C30.1489 10.3086 30.282 10.4172 30.3673 10.5603L33.171 15.4007C33.2554 15.5453 33.2856 15.7151 33.2563 15.8799C33.227 16.0448 33.14 16.1938 33.0109 16.3003L30.0472 18.6207C30.1104 19.0778 30.1437 19.5386 30.147 20Z" fill="white"/>
</svg>
